<svg version="1.1" xmlns="http://www.w3.org/2000/svg" width="426px" height="424px"  viewBox="0 0 3840 3940" preserveAspectRatio="xMidYMid meet" id="SytKfzjdz" xmlns:xlink="http://www.w3.org/1999/xlink" xmlns:svgjs="http://svgjs.com/svgjs">
    <style type="text/css">
        @-webkit-keyframes rJ5LFFGMjuz_Animation{0%{opacity: 0;transform-box: fill-box;-webkit-transform-origin: 50% 50%;transform-origin: 50% 50%;}100%{opacity: 1;transform-box: fill-box;-webkit-transform-origin: 50% 50%;transform-origin: 50% 50%;}}@keyframes rJ5LFFGMjuz_Animation{0%{opacity: 0;transform-box: fill-box;-webkit-transform-origin: 50% 50%;transform-origin: 50% 50%;}100%{opacity: 1;transform-box: fill-box;-webkit-transform-origin: 50% 50%;transform-origin: 50% 50%;}}#SytKfzjdz *{-webkit-animation-duration: 3s;animation-duration: 3s;-webkit-animation-iteration-count: infinite;animation-iteration-count: infinite;-webkit-animation-timing-function: cubic-bezier(0, 0, 1, 1);animation-timing-function: cubic-bezier(0, 0, 1, 1);}#BkxttzMi_M{fill: #f5cdbd;stroke: none;}#B1MFYGzs_f{fill: #3c4650;stroke: none;}#rkF8KtMGi_G{fill: #fdf502;stroke: none;}#r1iIYtfGodM{fill: #7c838a;stroke: none;}#B1AWetFGzj_z{fill: #9da2a7;stroke: none;}#Sy5IgtKGfjuf{fill: #007bff;stroke: none;}#SknDxKYzfjOz{fill: #dbdcde;stroke: none;}#rJ5LFFGMjuz{-webkit-animation-name: rJ5LFFGMjuz_Animation;animation-name: rJ5LFFGMjuz_Animation;}
    </style>
    <g id="BkxttzMi_M" class="">
        <path d="M1677 3512 c-15 -16 -17 -47 -17 -229 0 -191 2 -211 18 -226 16 -15 48 -17 233 -17 154 0 218 3 227 12 15 15 17 430 2 459 -10 18 -23 19 -229 19 -198 0 -219 -2 -234 -18z m441 -228 l-3 -206 -205 0 -205 0 -3 206 -2 206 210 0 211 0 -3 -206z" id="r1btYffsOz"/>
    </g>
    <g id="B1MFYGzs_f">
        <path d="M1907 3694 c-4 -4 -7 -24 -7 -44 0 -20 -5 -41 -12 -48 -9 -9 -7 -13 5 -18 32 -12 41 1 38 52 -3 49 -11 70 -24 58z" id="rymYFMMsdz"/>
        <path d="M1730 3605 c-10 -12 -9 -16 5 -21 23 -9 40 10 22 25 -11 9 -17 8 -27 -4z" id="HJ4tYzfsdz"/>
        <path d="M2050 3605 c-10 -12 -9 -16 5 -21 23 -9 40 10 22 25 -11 9 -17 8 -27 -4z" id="r1SFtzMjOz"/>
        <path d="M1611 3576 c-9 -10 -8 -16 3 -25 10 -9 16 -8 25 3 9 10 8 16 -3 25 -10 9 -16 8 -25 -3z" id="By8ttGzsOz"/>
        <path d="M2181 3576 c-8 -10 -9 -16 -1 -21 14 -9 14 -537 0 -551 -8 -8 -6 -15 5 -24 29 -24 36 3 36 142 0 131 1 136 22 142 l22 6 -22 19 c-19 16 -23 29 -23 79 0 46 4 61 16 66 15 6 15 8 1 24 -9 10 -17 40 -19 71 -3 56 -16 72 -37 47z" id="BkDtYMfsdf"/>
        <path d="M1581 3466 c-18 -22 4 -62 25 -45 18 15 18 33 0 48 -10 9 -16 8 -25 -3z" id="BJdYtMMo_G"/>
        <path d="M2331 3456 c-9 -10 -9 -16 -1 -21 17 -10 37 12 24 25 -8 8 -15 6 -23 -4z" id="rktFtzMjuM"/>
        <path d="M1576 3291 c-17 -19 -17 -20 2 -30 28 -15 52 13 30 35 -13 13 -16 12 -32 -5z" id="H1qtKMGjuz"/>
        <path d="M401 3286 c-8 -10 -8 -16 3 -25 10 -9 16 -8 26 3 12 15 6 36 -9 36 -5 0 -14 -6 -20 -14z" id="BkjFYGGi_G"/>
        <path d="M2320 3285 c-10 -12 -9 -16 4 -21 9 -3 23 -3 32 0 13 5 14 9 4 21 -7 8 -16 15 -20 15 -4 0 -13 -7 -20 -15z" id="HJ3FKffodf"/>
        <path d="M3385 3290 c-4 -7 -2 -17 4 -23 8 -8 11 -204 11 -687 l0 -675 -25 -37 c-14 -20 -22 -39 -17 -41 4 -3 30 -4 57 -3 53 2 60 13 29 47 -12 13 -14 129 -16 720 -3 646 -4 704 -20 707 -9 2 -19 -2 -23 -8z" id="SJatYGGouG"/>
        <path d="M1475 3281 c-7 -13 17 -24 40 -19 9 1 16 8 16 13 0 14 -48 19 -56 6z" id="SJAFKMMoOz"/>
        <path d="M1582 3148 c-13 -17 3 -61 20 -56 19 6 21 43 5 56 -11 10 -17 9 -25 0z" id="rykettzMsuG"/>
        <path d="M1614 3006 c-9 -24 12 -44 28 -28 10 10 8 16 -5 29 -15 15 -17 15 -23 -1z" id="HkegYYGzi_z"/>
        <path d="M1727 2993 c-8 -14 13 -57 22 -47 17 17 17 48 -1 52 -9 2 -18 -1 -21 -5z" id="SkZxFtffsOG"/>
        <path d="M1899 2996 c-9 -9 6 -97 16 -96 13 0 13 92 -1 97 -5 2 -12 1 -15 -1z" id="BJMeYFGMiOM"/>
        <path d="M2045 2990 c-8 -12 20 -24 35 -15 6 3 8 11 5 16 -8 12 -32 12 -40 -1z" id="Hk7gFKzMsdG"/>
        <path d="M1735 2920 c-4 -6 -3 -16 3 -22 6 -6 12 -6 17 2 4 6 3 16 -3 22 -6 6 -12 6 -17 -2z" id="rJEltFMGiuf"/>
        <path d="M1350 2735 c-7 -8 -18 -15 -24 -15 -28 -1 -132 -122 -120 -141 10 -16 19 -9 58 44 21 28 58 64 83 79 24 16 41 32 38 38 -9 14 -21 12 -35 -5z" id="HkBeKYMMi_z"/>
        <path d="M1615 2740 c-3 -5 7 -16 23 -24 37 -19 106 -85 115 -109 7 -19 28 -19 34 -1 4 11 -90 114 -105 114 -5 0 -12 7 -16 15 -6 17 -41 20 -51 5z" id="rkUgYKfGsdG"/>
        <path d="M2160 2735 c-7 -8 -18 -15 -25 -15 -17 0 -95 -79 -95 -96 0 -27 18 -22 45 14 15 20 48 49 72 64 24 16 41 32 38 38 -9 14 -21 12 -35 -5z" id="SkDlFYMfs_z"/>
        <path d="M2425 2740 c-3 -5 9 -17 27 -26 37 -19 101 -81 111 -108 6 -15 10 -16 22 -6 13 11 9 19 -27 63 -23 27 -50 52 -60 54 -9 3 -19 11 -22 19 -6 16 -42 19 -51 4z" id="B1dgKKfMsuz"/>
        <path d="M2015 2590 c-11 -17 5 -32 21 -19 7 6 11 15 8 20 -7 12 -21 11 -29 -1z" id="BJKlFFMMjOz"/>
        <path d="M2594 2587 c-7 -20 -2 -47 11 -50 14 -3 19 43 6 56 -7 7 -12 6 -17 -6z" id="S1ceKtzGs_M"/>
        <path d="M1784 2577 c-8 -22 11 -46 26 -31 7 7 5 17 -4 30 -14 18 -15 18 -22 1z" id="H1jlYtGfj_z"/>
        <path d="M1184 2536 c-8 -21 3 -49 16 -41 5 3 10 15 10 25 0 25 -18 36 -26 16z" id="Bk2xtYzMjdf"/>
        <path d="M1994 2536 c-8 -21 3 -49 16 -41 5 3 10 15 10 25 0 25 -18 36 -26 16z" id="SJ6xKtGMsdG"/>
        <path d="M2626 2523 c-3 -3 -6 -21 -6 -40 0 -26 6 -36 25 -45 20 -9 28 -9 38 1 9 9 7 13 -11 17 -16 5 -22 14 -22 35 0 28 -12 44 -24 32z" id="BJ0lKtGMsOG"/>
        <path d="M1536 2482 c-2 -4 10 -20 29 -35 40 -32 58 -18 23 18 -23 25 -43 31 -52 17z" id="HJyWKtMzi_G"/>
        <path d="M1814 2476 c-4 -10 -2 -22 4 -28 8 -8 13 -7 18 6 4 10 2 22 -4 28 -8 8 -13 7 -18 -6z" id="HJeZKFzfiOM"/>
        <path d="M1460 2460 c-18 -13 -22 -22 -14 -30 7 -7 17 -3 33 14 28 30 14 41 -19 16z" id="BJ-ZYFMzj_M"/>
        <path d="M1144 2456 c-18 -14 -18 -15 -1 -22 22 -8 46 11 31 26 -7 7 -17 5 -30 -4z" id="BJf-FKzMj_f"/>
        <path d="M2275 2450 c-8 -12 20 -24 35 -15 6 3 8 11 5 16 -8 12 -32 12 -40 -1z" id="r1mWKYMMouf"/>
        <path d="M2365 2450 c-3 -6 1 -13 9 -16 21 -8 49 3 41 16 -8 13 -42 13 -50 0z" id="HJVWttGfoOM"/>
        <path d="M1025 2420 c-8 -13 20 -24 41 -16 20 8 9 26 -16 26 -10 0 -22 -5 -25 -10z" id="rkHbFYzzouz"/>
        <path d="M2190 2393 c-19 -23 -30 -47 -28 -61 4 -29 22 -30 26 -1 2 11 19 35 38 51 33 29 37 48 9 48 -7 0 -28 -17 -45 -37z" id="BkUZYFGfjOG"/>
        <path d="M2426 2422 c-2 -4 13 -22 35 -40 32 -27 40 -30 45 -18 12 31 -63 85 -80 58z" id="rJvWYtMzouM"/>
        <path d="M2735 2420 c-9 -15 37 -30 52 -18 7 6 10 14 7 19 -7 12 -51 11 -59 -1z" id="SkuWYtzGiuz"/>
        <path d="M977 2393 c-4 -3 -2 -12 4 -19 13 -16 54 0 44 17 -7 10 -38 12 -48 2z" id="rkK-KFzfsuG"/>
        <path d="M2795 2389 c-4 -6 1 -13 11 -15 11 -3 35 -25 53 -49 19 -24 39 -42 43 -39 17 11 6 38 -31 75 -39 39 -64 48 -76 28z" id="r1q-YtzMjdM"/>
        <path d="M930 2345 c-13 -14 -19 -25 -14 -25 5 0 1 -5 -8 -11 -20 -11 -24 -44 -8 -54 6 -3 15 4 20 17 15 34 33 62 48 71 12 8 8 27 -7 27 -4 0 -18 -11 -31 -25z" id="SkjbFYzzj_f"/>
        <path d="M2504 2337 c-9 -24 0 -52 16 -52 21 0 24 39 6 55 -13 10 -17 9 -22 -3z" id="ry2ZYFMMjOf"/>
        <path d="M2914 2276 c-8 -21 3 -49 16 -41 5 3 10 15 10 25 0 25 -18 36 -26 16z" id="S16WYYMzoOG"/>
        <path d="M864 2247 c-7 -20 -2 -47 11 -50 14 -3 19 43 6 56 -7 7 -12 6 -17 -6z" id="rkRbFtffouz"/>
        <path d="M2945 2217 c-9 -22 -2 -62 10 -60 6 1 11 14 13 29 4 32 -14 56 -23 31z" id="B1yzYKffodM"/>
        <path d="M1124 2155 c-4 -8 -10 -12 -15 -9 -12 7 -23 -22 -15 -43 6 -14 12 -11 35 18 28 33 31 49 10 49 -5 0 -12 -7 -15 -15z" id="r1lMKtGzjOf"/>
        <path d="M1227 2163 c-2 -5 11 -23 29 -42 28 -28 35 -31 40 -17 11 28 -55 83 -69 59z" id="B1WMFFfzsdG"/>
        <path d="M1585 2160 c-8 -13 20 -24 41 -16 8 3 12 10 9 16 -8 13 -42 13 -50 0z" id="rJGzttMMiuM"/>
        <path d="M1542 2127 c-12 -13 -22 -28 -22 -35 0 -23 17 -20 43 8 21 22 24 30 13 39 -10 8 -18 5 -34 -12z" id="By7fYtMzsOG"/>
        <path d="M2615 2130 c-8 -13 20 -24 41 -16 20 8 9 26 -16 26 -10 0 -22 -5 -25 -10z" id="HJEGKKzGi_G"/>
        <path d="M2536 2079 c-27 -32 -31 -44 -18 -53 11 -6 83 69 75 78 -13 13 -32 5 -57 -25z" id="BkBGtFMzoOG"/>
        <path d="M2676 2102 c-2 -4 9 -20 25 -36 25 -25 29 -27 35 -12 11 29 -44 74 -60 48z" id="HkIfFYzfoOf"/>
        <path d="M2245 2041 c-7 -12 12 -24 25 -16 11 7 4 25 -10 25 -5 0 -11 -4 -15 -9z" id="BJvGFFGzouz"/>
        <path d="M2208 2017 c-26 -22 -49 -68 -46 -93 4 -33 22 -31 26 2 2 15 15 42 28 60 25 32 20 54 -8 31z" id="rkOGYYGfi_z"/>
        <path d="M2947 2013 c-3 -4 -7 -21 -8 -38 -3 -22 0 -30 11 -30 9 0 16 11 18 29 4 28 -11 55 -21 39z" id="HyYfYKMGsuG"/>
        <path d="M1524 1997 c-12 -31 87 -110 110 -87 12 12 -2 30 -24 30 -10 0 -32 17 -48 38 -26 32 -31 35 -38 19z" id="S15fFYzfi_f"/>
        <path d="M864 1956 c-8 -21 3 -49 16 -41 5 3 10 15 10 25 0 25 -18 36 -26 16z" id="SyszFKzGjdG"/>
        <path d="M2916 1923 c-3 -3 -6 -13 -6 -21 0 -8 -7 -20 -17 -27 -10 -8 -14 -19 -9 -31 6 -16 9 -15 31 11 25 31 32 60 16 69 -4 3 -11 3 -15 -1z" id="r13GKFffodf"/>
        <path d="M896 1903 c-13 -13 -5 -39 18 -61 28 -26 48 -11 22 17 -9 10 -16 23 -16 29 0 14 -15 24 -24 15z" id="H1aztFzMidz"/>
        <path d="M388 1889 c-10 -5 -18 -16 -18 -23 0 -8 -7 -17 -16 -20 -8 -3 -13 -10 -9 -15 7 -12 104 -11 111 1 5 8 -35 68 -45 68 -3 0 -14 -5 -23 -11z" id="SJCMtKfGjOG"/>
        <path d="M2185 1879 c-10 -15 36 -60 58 -57 25 4 26 22 1 26 -12 2 -24 12 -27 23 -6 21 -22 25 -32 8z" id="H1ymKtfGidz"/>
        <path d="M2841 1817 c-11 -13 -21 -27 -21 -31 0 -5 18 -26 40 -48 33 -33 41 -37 46 -24 4 11 -1 25 -14 37 -16 14 -20 27 -16 48 8 38 -8 46 -35 18z" id="Bke7tKGGsOz"/>
        <path d="M307 1796 c-9 -13 -13 -26 -10 -30 9 -9 43 13 43 29 0 25 -17 25 -33 1z" id="BJ-XKtfzsdG"/>
        <path d="M467 1813 c-3 -5 3 -20 13 -33 13 -18 22 -22 30 -14 7 7 3 17 -14 33 -13 12 -26 19 -29 14z" id="HJGmFYfzjuM"/>
        <path d="M954 1807 c-8 -21 1 -47 16 -47 19 0 23 31 7 48 -15 14 -17 14 -23 -1z" id="Hy7QttGGjOG"/>
        <path d="M3407 1804 c-4 -4 -7 -315 -7 -690 l0 -683 -22 -20 c-18 -18 -19 -21 -5 -27 9 -3 24 -4 34 -2 17 3 18 37 21 708 1 387 -2 708 -6 712 -5 5 -11 5 -15 2z" id="ryVXFKfGjOf"/>
        <path d="M3315 1790 c-4 -6 -3 -16 3 -22 6 -6 12 -6 17 2 4 6 3 16 -3 22 -6 6 -12 6 -17 -2z" id="SJrXKFMfi_M"/>
        <path d="M3484 1789 c-10 -17 13 -36 27 -22 12 12 4 33 -11 33 -5 0 -12 -5 -16 -11z" id="HJ8XKtfMjOM"/>
        <path d="M1271 1728 c-23 -22 -41 -47 -39 -55 5 -23 22 -18 36 12 8 15 29 36 48 47 19 11 31 24 28 29 -11 18 -32 8 -73 -33z" id="HkP7KFzzsOM"/>
        <path d="M1416 1761 c-3 -5 9 -18 28 -29 19 -11 40 -32 48 -47 14 -31 31 -37 36 -13 3 17 -74 98 -94 98 -7 0 -15 -4 -18 -9z" id="BJOQYKzzidz"/>
        <path d="M924 1746 c-4 -10 -2 -22 4 -28 8 -8 13 -7 18 6 4 10 2 22 -4 28 -8 8 -13 7 -18 -6z" id="B1YXtFzGj_f"/>
        <path d="M894 1716 c-8 -21 3 -49 16 -41 5 3 10 15 10 25 0 25 -18 36 -26 16z" id="Hkc7YFMfjuG"/>
        <path d="M2914 1696 c-8 -21 3 -49 16 -41 5 3 10 15 10 25 0 25 -18 36 -26 16z" id="H1omKYfGjOG"/>
        <path d="M864 1656 c-8 -21 3 -49 16 -41 5 3 10 15 10 25 0 25 -18 36 -26 16z" id="rkhXttGGo_M"/>
        <path d="M2945 1627 c-9 -22 -2 -62 10 -60 6 1 11 14 13 29 4 32 -14 56 -23 31z" id="SJTQFKffouG"/>
        <path d="M2714 1619 c-8 -14 5 -29 27 -29 10 0 19 -6 19 -14 0 -20 20 -30 33 -17 8 8 5 17 -12 35 -25 27 -58 39 -67 25z" id="Sy0mYtzMjuM"/>
        <path d="M2277 1614 c-10 -11 71 -86 84 -79 7 5 -3 21 -27 46 -39 40 -46 44 -57 33z" id="rkJVttfzidz"/>
        <path d="M2476 1592 c-8 -16 -25 -32 -37 -35 -24 -6 -17 -27 10 -27 17 0 61 50 61 69 0 24 -20 19 -34 -7z" id="HkxNYKffsOz"/>
        <path d="M2764 1465 c-4 -8 -12 -15 -19 -15 -7 0 -18 -7 -25 -15 -10 -12 -9 -16 4 -21 19 -7 79 43 70 58 -8 13 -24 9 -30 -7z" id="Sy-4tYGMjuf"/>
        <path d="M1211 1416 c-9 -10 -9 -16 -1 -21 17 -10 37 12 24 25 -8 8 -15 6 -23 -4z" id="HkMEYKMzsuf"/>
        <path d="M2945 1416 c-3 -9 -7 -22 -9 -30 -5 -16 17 -40 27 -29 11 10 8 61 -3 68 -6 3 -12 -1 -15 -9z" id="SyQVFFfzidf"/>
        <path d="M864 1377 c-7 -20 -2 -47 11 -50 14 -3 19 43 6 56 -7 7 -12 6 -17 -6z" id="SyVNKFfzidf"/>
        <path d="M1185 1378 c-9 -22 -2 -68 10 -71 14 -3 19 63 6 76 -7 7 -12 5 -16 -5z" id="ByS4tKzzoOf"/>
        <path d="M1567 1354 c-9 -10 2 -24 19 -24 18 0 51 -33 56 -55 4 -21 22 -21 26 1 8 34 -79 100 -101 78z" id="H1IEFYMfjOM"/>
        <path d="M2914 1336 c-8 -21 3 -49 16 -41 5 3 10 15 10 25 0 25 -18 36 -26 16z" id="SyDNtFzGidM"/>
        <path d="M2134 1326 c-4 -10 -2 -22 4 -28 8 -8 13 -7 18 6 4 10 2 22 -4 28 -8 8 -13 7 -18 -6z" id="H1OVFKMMouz"/>
        <path d="M2535 1330 c-4 -6 -3 -16 3 -22 6 -6 12 -6 17 2 4 6 3 16 -3 22 -6 6 -12 6 -17 -2z" id="HJF4KFGzj_M"/>
        <path d="M896 1323 c-17 -17 0 -48 56 -103 33 -33 67 -60 74 -60 20 0 27 20 9 27 -25 9 -115 102 -115 118 0 16 -14 27 -24 18z" id="S15VtYMGouf"/>
        <path d="M1215 1300 c-8 -13 3 -30 20 -30 23 0 27 18 6 30 -13 7 -22 7 -26 0z" id="HksEKKGGiuG"/>
        <path d="M2883 1284 c-4 -10 -21 -31 -39 -48 -25 -23 -30 -33 -22 -43 8 -10 19 -5 49 26 39 38 48 64 29 76 -6 3 -13 -2 -17 -11z" id="S1n4KFzfiOG"/>
        <path d="M2166 1283 c-21 -21 15 -76 71 -109 25 -14 36 -15 45 -6 9 9 7 13 -7 18 -21 8 -85 71 -85 84 0 12 -16 21 -24 13z" id="SkpEFYGGj_G"/>
        <path d="M2486 1244 c-21 -25 -50 -50 -64 -55 -19 -7 -22 -13 -14 -21 9 -9 18 -8 38 3 37 20 100 97 88 109 -6 6 -24 -7 -48 -36z" id="SJANYKzGidz"/>
        <path d="M1646 1223 c-3 -3 -6 -14 -6 -24 0 -9 -12 -26 -27 -37 -25 -18 -26 -21 -11 -27 23 -9 68 32 68 62 0 23 -13 37 -24 26z" id="BkJHtKfMjdG"/>
        <path d="M2765 1180 c-8 -12 20 -24 35 -15 6 3 8 11 5 16 -8 12 -32 12 -40 -1z" id="rkxBYKMzs_f"/>
        <path d="M1075 1150 c-8 -13 20 -24 41 -16 20 8 9 26 -16 26 -10 0 -22 -5 -25 -10z" id="BkWStFfzodM"/>
        <path d="M2695 1150 c-8 -12 20 -24 35 -15 6 3 8 11 5 16 -8 12 -32 12 -40 -1z" id="rkfHYtzGidM"/>
        <path d="M1154 1137 c-8 -22 11 -46 26 -31 7 7 5 17 -4 30 -14 18 -15 18 -22 1z" id="rymrKFMfjOG"/>
        <path d="M1814 1126 c-8 -21 3 -49 16 -41 5 3 10 15 10 25 0 25 -18 36 -26 16z" id="SJErYFzfsOf"/>
        <path d="M2627 1134 c-11 -11 -8 -72 3 -79 12 -7 18 7 22 49 3 28 -11 44 -25 30z" id="HJHrtFMzo_z"/>
        <path d="M1994 1076 c-8 -21 3 -49 16 -41 5 3 10 15 10 25 0 25 -18 36 -26 16z" id="ryUBYtfzouf"/>
        <path d="M1184 1066 c-4 -10 -2 -22 4 -28 8 -8 13 -7 18 6 4 10 2 22 -4 28 -8 8 -13 7 -18 -6z" id="SJwBtYzGjOM"/>
        <path d="M2596 1043 c-3 -3 -6 -16 -6 -29 0 -12 -7 -24 -15 -28 -8 -3 -15 -12 -15 -20 0 -8 -18 -30 -40 -49 -39 -33 -42 -47 -11 -47 20 0 111 123 111 150 0 20 -13 33 -24 23z" id="rJOSFKzfjuf"/>
        <path d="M1783 1024 c-9 -25 13 -40 26 -16 10 19 6 32 -11 32 -5 0 -11 -7 -15 -16z" id="rJtrYFMzj_z"/>
        <path d="M1205 1010 c-15 -24 92 -149 115 -135 8 5 -3 22 -32 51 -23 23 -45 53 -48 65 -6 25 -25 36 -35 19z" id="ry5rtFfGouG"/>
        <path d="M2015 1010 c-10 -17 12 -37 25 -24 8 8 6 15 -4 23 -10 9 -16 9 -21 1z" id="BysSKKMfsOG"/>
        <path d="M1745 963 c-22 -35 -77 -88 -101 -97 -13 -5 -14 -10 -6 -18 11 -11 17 -9 59 16 30 17 96 104 88 116 -10 17 -22 11 -40 -17z" id="r12StKfziuG"/>
        <path d="M2045 959 c-5 -7 -1 -17 8 -24 10 -7 17 -17 17 -22 0 -16 51 -46 61 -36 5 5 -9 27 -35 52 -31 30 -46 39 -51 30z" id="r1prFYzfiOz"/>
        <path d="M1325 860 c-8 -13 20 -24 41 -16 20 8 9 26 -16 26 -10 0 -22 -5 -25 -10z" id="S1RrFFzzouz"/>
        <path d="M2135 860 c-8 -13 20 -24 41 -16 20 8 9 26 -16 26 -10 0 -22 -5 -25 -10z" id="S1JIFKfGoOz"/>
        <path d="M2445 860 c-8 -12 20 -24 35 -15 6 3 8 11 5 16 -8 12 -32 12 -40 -1z" id="HygUFKMMiuf"/>
        <path d="M1395 830 c-8 -13 20 -24 41 -16 20 8 9 26 -16 26 -10 0 -22 -5 -25 -10z" id="ryZ8YYffi_G"/>
        <path d="M1565 830 c-8 -13 20 -24 41 -16 20 8 9 26 -16 26 -10 0 -22 -5 -25 -10z" id="rkGUtKfGiOf"/>
        <path d="M2205 830 c-8 -13 20 -24 41 -16 20 8 9 26 -16 26 -10 0 -22 -5 -25 -10z" id="Hk78KYzGiOG"/>
        <path d="M2375 830 c-8 -13 20 -24 41 -16 20 8 9 26 -16 26 -10 0 -22 -5 -25 -10z" id="rJV8FKMMsOf"/>
        <path d="M2277 643 c-10 -10 -8 -41 2 -48 17 -10 33 31 17 44 -7 6 -16 8 -19 4z" id="BJSUFtGGsOz"/>
        <path d="M2275 448 c-15 -39 15 -78 50 -64 17 6 17 8 1 24 -9 9 -23 26 -31 37 -12 18 -14 18 -20 3z" id="rk8LFFfzsdG"/>
        <path d="M404 417 c-7 -20 3 -37 21 -37 23 0 26 16 5 35 -18 16 -20 16 -26 2z" id="rkvIFYMfidG"/>
        <path d="M1520 405 c-10 -12 -9 -16 5 -21 19 -8 40 9 31 25 -10 15 -21 14 -36 -4z" id="ryuLtFGMs_G"/>
    </g>
    <g id="rkF8KtMGi_G">
        <path d="M1692 3498 c-15 -15 -17 -424 -2 -433 13 -8 425 -9 438 -1 15 9 16 414 1 432 -15 19 -418 21 -437 2z" id="rJ5LFFGMjuz"/>
    </g>
    <g id="r1iIYtfGodM">
        <path d="M1737 3704 c-9 -9 24 -55 34 -48 15 9 10 33 -10 43 -10 6 -21 8 -24 5z" id="HJ2UYFzfsuf"/>
        <path d="M1892 3698 c-7 -7 -12 -26 -12 -44 0 -21 -7 -36 -22 -46 -13 -9 -18 -17 -11 -21 6 -4 23 3 38 15 25 20 28 20 37 4 15 -27 24 -11 20 38 -4 50 -28 76 -50 54z" id="BJpIKFGMouf"/>
        <path d="M2056 3703 c-3 -3 -1 -12 5 -19 14 -17 8 -59 -8 -59 -7 0 -13 -3 -13 -7 0 -5 0 -11 0 -14 0 -4 6 -2 13 4 10 9 19 8 35 -3 12 -9 23 -11 27 -6 3 5 1 12 -5 16 -5 3 -10 22 -10 40 0 33 -28 64 -44 48z" id="BkALttGfjuG"/>
        <path d="M1755 3621 c-3 -6 3 -15 14 -21 12 -6 22 -6 26 -1 3 6 -3 15 -14 21 -12 6 -22 6 -26 1z" id="BkyvtFMzo_M"/>
        <path d="M1595 3590 c-13 -14 -15 -24 -8 -31 7 -7 15 -2 26 15 21 31 6 43 -18 16z" id="ryxwKKzzi_G"/>
        <path d="M2196 3602 c-3 -6 1 -15 8 -21 8 -7 17 -8 20 -3 3 6 -1 15 -8 21 -8 7 -17 8 -20 3z" id="r1WwFYGfi_f"/>
        <path d="M1715 3570 c-3 -5 0 -13 9 -16 21 -8 61 -1 61 11 0 14 -62 19 -70 5z" id="rJfPYKzfjuz"/>
        <path d="M1875 3570 c-3 -5 0 -13 9 -16 21 -8 61 -1 61 11 0 14 -62 19 -70 5z" id="rJ7vtFzGjOG"/>
        <path d="M2035 3570 c-3 -5 0 -13 9 -16 21 -8 61 -1 61 11 0 14 -62 19 -70 5z" id="Hk4wKFfzsuf"/>
        <path d="M1631 3556 c-7 -8 -8 -17 -3 -20 6 -3 15 1 21 8 7 8 8 17 3 20 -6 3 -15 -1 -21 -8z" id="HyHDYKGMidM"/>
        <path d="M2215 3481 c-3 -6 3 -15 14 -21 12 -6 22 -6 26 -1 3 6 -3 15 -14 21 -12 6 -22 6 -26 1z" id="BkUDtFfMsuM"/>
        <path d="M1456 3461 c-9 -14 20 -51 40 -51 21 0 27 20 7 27 -10 4 -23 13 -29 21 -8 11 -13 12 -18 3z" id="SyvwYtfMjdf"/>
        <path d="M1615 3460 c-4 -6 -3 -16 3 -22 6 -6 12 -6 17 2 4 6 3 16 -3 22 -6 6 -12 6 -17 -2z" id="HJ_wKKzzouf"/>
        <path d="M2363 3457 c-4 -7 -17 -17 -27 -21 -14 -5 -16 -10 -8 -18 8 -8 18 -7 36 6 15 9 26 21 26 26 0 16 -18 21 -27 7z" id="rkFPYKGMsdz"/>
        <path d="M1546 3441 c-7 -11 39 -43 48 -34 7 7 -23 43 -35 43 -4 0 -10 -4 -13 -9z" id="Sk5vttfModf"/>
        <path d="M2227 3422 c-10 -10 -14 -21 -11 -25 9 -9 55 23 48 34 -8 14 -19 11 -37 -9z" id="HyoDKYfMi_z"/>
        <path d="M1575 3320 c-3 -5 -28 -10 -54 -10 -32 0 -53 -5 -62 -16 -21 -25 15 -47 69 -41 23 3 45 1 48 -4 3 -5 10 -7 15 -3 16 10 -10 34 -29 27 -9 -4 -4 5 12 19 18 15 25 27 18 32 -6 3 -13 2 -17 -4z" id="HkhPKYMGs_M"/>
        <path d="M2216 3321 c-4 -5 3 -16 15 -24 l21 -15 -21 -12 c-36 -19 -16 -25 63 -20 122 8 132 49 14 57 -35 3 -68 9 -75 15 -7 5 -13 5 -17 -1z" id="SkaDFtfMsdG"/>
        <path d="M390 3300 c-20 -20 -20 -27 -18 -703 2 -446 6 -682 13 -682 7 0 11 236 13 684 2 621 4 685 19 696 11 8 12 14 5 19 -6 4 -20 -2 -32 -14z" id="r1CvYtffs_z"/>
        <path d="M465 3310 c-3 -6 0 -12 7 -15 26 -10 763 0 763 10 0 14 -761 19 -770 5z" id="HyyuttGzs_M"/>
        <path d="M1257 3313 c-4 -6 0 -18 7 -28 8 -11 16 -14 19 -8 4 6 0 18 -7 28 -8 11 -16 14 -19 8z" id="rJldKKzGoOf"/>
        <path d="M2625 3310 c-3 -5 0 -13 8 -15 26 -11 792 0 790 10 -4 14 -789 19 -798 5z" id="BkZOtYzfoOz"/>
        <path d="M1615 3290 c-4 -6 -3 -16 3 -22 6 -6 12 -6 17 2 4 6 3 16 -3 22 -6 6 -12 6 -17 -2z" id="B1MOKFGfs_z"/>
        <path d="M421 3266 c-7 -8 -8 -17 -3 -20 6 -3 15 1 21 8 7 8 8 17 3 20 -6 3 -15 -1 -21 -8z" id="HJQutYfGiOz"/>
        <path d="M3376 3272 c-3 -6 1 -15 8 -21 8 -7 17 -8 20 -3 3 6 -1 15 -8 21 -8 7 -17 8 -20 3z" id="By4OtKfziOG"/>
        <path d="M1573 3158 c-4 -7 -8 -17 -8 -23 0 -5 -10 -12 -23 -15 -32 -7 -28 -25 6 -25 18 0 27 5 27 16 0 9 6 23 13 32 8 9 9 18 3 21 -5 4 -13 1 -18 -6z" id="BJSOKYfMs_M"/>
        <path d="M2216 3161 c-9 -15 23 -36 35 -24 8 8 5 14 -9 22 -12 6 -23 7 -26 2z" id="ByIuYKfzo_G"/>
        <path d="M1615 3140 c-4 -6 -3 -16 3 -22 6 -6 12 -6 17 2 4 6 3 16 -3 22 -6 6 -12 6 -17 -2z" id="ryw_YFfzo_M"/>
        <path d="M2351 3128 c-5 -13 -7 -27 -4 -31 6 -11 33 12 33 29 0 24 -20 26 -29 2z" id="Sk__KtGfsdM"/>
        <path d="M1465 3120 c-4 -6 -3 -16 3 -22 6 -6 12 -6 17 2 4 6 3 16 -3 22 -6 6 -12 6 -17 -2z" id="ByFuKKzzsuM"/>
        <path d="M2252 3108 c-6 -6 -12 -8 -12 -4 0 5 -7 3 -15 -4 -8 -7 -12 -16 -9 -22 3 -5 12 -4 21 3 8 7 29 13 46 13 18 1 34 6 37 11 7 15 -53 18 -68 3z" id="HJc_FYMzsdz"/>
        <path d="M1625 3031 c-4 -8 -1 -19 8 -28 19 -20 30 -1 13 22 -10 14 -15 15 -21 6z" id="ryjOFKGzjdz"/>
        <path d="M2171 3016 c-6 -7 -8 -16 -4 -19 3 -4 -7 -7 -24 -7 -34 0 -73 -36 -73 -68 0 -11 -5 -24 -10 -27 -19 -12 0 -26 20 -15 11 6 20 23 22 43 3 29 6 32 43 37 26 4 39 10 37 19 -1 7 2 19 8 26 7 8 7 16 2 19 -6 3 -15 0 -21 -8z" id="Bk2dttGzodf"/>
        <path d="M1585 3010 c-4 -7 1 -20 13 -32 26 -26 36 -9 13 21 -13 17 -20 20 -26 11z" id="H1TdKtzMidf"/>
        <path d="M1647 2984 c-12 -12 4 -24 33 -24 16 0 32 -5 35 -10 4 -6 11 -8 16 -4 17 10 -22 44 -51 44 -15 0 -30 -3 -33 -6z" id="B1AdKYzfoOz"/>
        <path d="M1772 2967 c-12 -13 -19 -26 -16 -30 4 -3 -1 -18 -10 -31 -8 -14 -12 -27 -7 -30 13 -8 42 29 36 46 -9 23 20 40 62 36 35 -3 38 -6 41 -35 2 -17 10 -37 18 -43 22 -19 46 6 42 44 -3 30 -1 31 40 34 24 2 49 -2 56 -7 20 -17 28 0 9 21 -26 29 -115 21 -119 -12 -1 -5 -2 -13 -3 -16 0 -3 -15 6 -32 20 -39 33 -87 35 -117 3z" id="ryyFttffjdG"/>
        <path d="M1439 2783 c-1 -4 -1 -11 0 -15 0 -4 -8 -12 -19 -18 -11 -6 -18 -15 -15 -20 7 -12 61 5 58 19 -2 7 14 11 42 11 28 0 44 -4 43 -11 -4 -14 50 -31 57 -19 3 5 -4 14 -15 20 -11 6 -19 16 -17 23 1 8 -19 13 -65 15 -38 2 -69 -1 -69 -5z" id="SyltFKzzo_f"/>
        <path d="M2249 2783 c-1 -4 -1 -11 0 -15 0 -4 -8 -12 -19 -18 -11 -6 -18 -15 -15 -20 7 -12 61 5 58 19 -2 7 14 11 43 11 28 0 43 -4 39 -10 -3 -6 2 -13 12 -16 41 -13 48 -15 48 -12 0 1 21 -12 47 -30 26 -18 49 -28 52 -23 6 10 -45 51 -67 55 -20 3 -62 36 -62 49 0 14 -134 24 -136 10z" id="H1ZFttzfouf"/>
        <path d="M1343 2750 c-46 -26 -138 -118 -138 -137 0 -5 -4 -13 -8 -20 -4 -6 -3 -14 3 -18 10 -6 11 -5 14 14 3 24 94 116 142 142 30 17 51 35 48 40 -7 11 -1 13 -61 -21z" id="SkftKFGfjOf"/>
        <path d="M2159 2754 c-54 -31 -80 -54 -74 -65 3 -4 27 7 54 24 26 18 56 37 66 43 11 6 15 13 9 17 -6 3 -30 -6 -55 -19z" id="HkQFYFzMiuz"/>
        <path d="M1646 2751 c-3 -5 5 -16 19 -25 24 -16 45 -6 22 11 -24 19 -36 23 -41 14z" id="rk4KKYMzi_z"/>
        <path d="M2456 2752 c-2 -4 20 -27 49 -50 64 -49 85 -39 23 11 -55 43 -65 49 -72 39z" id="S1rKYFffidf"/>
        <path d="M1333 2701 c-58 -42 -112 -112 -134 -176 -2 -5 -10 -10 -17 -10 -17 0 -36 -32 -23 -39 5 -4 12 -2 16 4 4 6 11 8 16 5 5 -4 2 -16 -7 -30 -9 -13 -11 -26 -6 -29 13 -8 36 20 28 33 -4 5 -2 13 4 16 6 4 10 14 8 23 -7 42 77 154 152 203 14 9 19 18 13 22 -6 4 -28 -6 -50 -22z" id="HkIYFtfzodM"/>
        <path d="M1626 2722 c-3 -6 7 -18 22 -27 15 -10 39 -29 53 -42 15 -14 29 -20 33 -15 6 10 -33 49 -76 76 -15 10 -29 13 -32 8z" id="BJPtYKzMj_f"/>
        <path d="M2142 2700 c-22 -16 -55 -47 -73 -70 -18 -22 -38 -39 -45 -36 -15 6 -48 -41 -35 -49 5 -3 17 5 27 17 14 20 15 20 9 3 -6 -17 -9 -30 -14 -54 -1 -2 -7 2 -15 8 -10 9 -16 9 -21 1 -4 -6 -4 -14 -1 -17 3 -3 1 -12 -5 -19 -13 -16 -4 -48 11 -39 6 4 10 14 9 23 -3 30 1 35 16 22 14 -12 16 -10 19 15 1 6 15 35 33 66 30 53 70 95 123 130 14 9 19 18 13 22 -6 4 -29 -6 -51 -23z" id="rkuFYKMGjdf"/>
        <path d="M1706 2712 c-3 -5 5 -19 18 -31 13 -13 26 -18 30 -13 3 5 -5 19 -18 31 -13 13 -26 18 -30 13z" id="HyFYKKMzsuf"/>
        <path d="M2036 2646 c-26 -35 -21 -61 6 -28 33 40 39 50 30 56 -6 3 -22 -10 -36 -28z" id="Hy9KtYGfj_z"/>
        <path d="M2527 2654 c-3 -3 10 -28 29 -55 19 -27 31 -49 28 -49 -4 0 -1 -7 6 -15 7 -8 9 -15 6 -15 -4 0 -2 -9 4 -21 9 -16 14 -18 26 -8 14 11 15 10 18 -12 0 -6 9 -16 19 -24 10 -7 16 -18 15 -24 -2 -7 14 -18 35 -25 20 -8 37 -11 37 -8 0 3 9 -3 19 -12 11 -10 22 -13 25 -8 5 9 -12 30 -24 30 -20 0 -60 28 -58 41 2 9 -6 17 -17 19 -26 5 -46 22 -39 33 9 16 -6 31 -21 19 -9 -7 -16 -6 -25 5 -12 15 -11 16 10 19 6 0 10 4 10 9 0 4 0 10 0 13 0 4 -7 1 -15 -6 -8 -7 -16 -10 -16 -6 -1 3 -2 9 -3 14 -8 36 -57 97 -69 86z" id="rJoYtKzfo_z"/>
        <path d="M2576 2642 c-3 -5 2 -20 12 -33 24 -29 36 -11 13 20 -11 14 -21 19 -25 13z" id="Sy2KttGfo_f"/>
        <path d="M1777 2633 c-4 -6 0 -18 7 -28 8 -11 16 -14 19 -8 4 6 0 18 -7 28 -8 11 -16 14 -19 8z" id="rJTFYFGMo_M"/>
        <path d="M1748 2614 c-4 -4 4 -26 17 -50 14 -24 22 -44 19 -44 -2 0 0 -9 6 -20 14 -27 14 -1393 0 -1420 -6 -11 -8 -20 -6 -20 3 0 -6 -20 -19 -44 -28 -50 -17 -74 11 -27 13 23 21 28 30 20 10 -8 17 -2 28 26 15 36 13 61 -4 50 -5 -3 -11 -1 -14 4 -4 5 -2 12 4 16 5 3 10 17 10 31 0 14 5 23 13 21 9 -1 12 129 12 628 0 499 -3 629 -12 628 -8 -2 -13 8 -13 25 0 15 -5 33 -12 40 -7 7 -8 12 -4 12 5 0 1 11 -8 24 -9 14 -12 27 -7 30 5 3 14 -8 20 -26 8 -21 15 -28 21 -22 7 7 5 23 -5 48 -13 31 -18 36 -30 26 -8 -7 -15 -9 -15 -4 -1 16 -36 55 -42 48z m66 -1568 c-3 -9 -10 -13 -16 -10 -5 3 -4 12 3 20 15 18 22 13 13 -10z" id="B10FKFfzsOG"/>
        <path d="M1175 2560 c-4 -6 -3 -16 3 -22 6 -6 12 -6 17 2 4 6 3 16 -3 22 -6 6 -12 6 -17 -2z" id="ry1qYtMfsdG"/>
        <path d="M1473 2490 c-46 -28 -59 -57 -37 -81 13 -14 20 -16 30 -8 15 12 9 33 -7 24 -20 -13 -8 25 13 39 31 22 80 20 111 -4 29 -23 46 -11 19 12 -48 42 -82 47 -129 18z" id="rkx9FtzfoOG"/>
        <path d="M2305 2470 c-3 -5 0 -13 9 -16 21 -8 71 -1 71 11 0 14 -72 19 -80 5z" id="Sy-qKtMGidz"/>
        <path d="M1092 2458 c-7 -7 -12 -9 -12 -5 0 4 -14 0 -30 -8 -17 -9 -28 -20 -24 -26 3 -6 19 -2 40 10 18 11 36 16 38 12 4 -7 -35 -32 -54 -35 -15 -3 -30 -19 -24 -27 3 -6 12 -5 21 3 8 6 20 13 27 14 30 5 67 25 61 33 -3 5 -1 12 5 16 6 4 8 11 5 16 -9 13 -39 11 -53 -3z" id="rkM5KtMfidz"/>
        <path d="M2265 2460 c-4 -6 -10 -8 -15 -5 -4 3 -13 -2 -19 -9 -7 -8 -8 -17 -3 -20 6 -3 15 1 22 9 7 8 16 13 20 10 5 -3 11 -1 14 4 4 5 2 12 -3 15 -5 4 -12 2 -16 -4z" id="BJm5FYMGi_M"/>
        <path d="M2615 2461 c-4 -8 -1 -19 8 -28 19 -20 30 -1 13 22 -10 14 -15 15 -21 6z" id="r1VcKtMzodM"/>
        <path d="M2735 2450 c-3 -5 9 -17 27 -26 18 -9 47 -27 65 -40 17 -13 34 -20 38 -15 6 11 -42 49 -92 75 -19 9 -34 12 -38 6z" id="HJrqtKMfiuM"/>
        <path d="M1556 2442 c-8 -8 24 -42 40 -42 7 0 15 4 19 9 6 10 -51 42 -59 33z" id="ryLctKGGsdz"/>
        <path d="M1995 2439 c-10 -27 -1 -1304 10 -1302 14 4 19 1293 5 1307 -6 6 -11 4 -15 -5z" id="S1wcYYGMo_f"/>
        <path d="M2269 2423 c-42 -28 -79 -66 -73 -75 3 -5 20 4 38 19 17 15 42 35 56 44 13 9 19 18 13 22 -5 3 -21 -1 -34 -10z" id="r1_9FYzMs_z"/>
        <path d="M2375 2431 c-3 -6 10 -17 30 -27 35 -16 99 -86 89 -97 -9 -9 16 -47 31 -47 19 0 38 37 28 53 -4 6 -8 15 -8 20 0 4 -3 7 -7 7 -5 0 -11 0 -14 0 -4 0 -2 -6 4 -13 6 -7 7 -19 3 -26 -6 -10 -10 -8 -16 6 -5 10 -9 20 -9 23 -6 22 -34 55 -68 80 -44 32 -54 35 -63 21z" id="HkK5FKzfsuM"/>
        <path d="M2191 2416 c-7 -8 -8 -17 -3 -20 6 -3 15 1 21 8 7 8 8 17 3 20 -6 3 -15 -1 -21 -8z" id="Bk5qFFMMidM"/>
        <path d="M985 2406 c-11 -8 -14 -16 -8 -19 6 -4 18 0 28 7 11 8 14 16 8 19 -6 4 -18 0 -28 -7z" id="SJocYKzGo_f"/>
        <path d="M1955 2409 c-10 -27 -1 -1244 10 -1244 14 0 19 1235 5 1249 -6 6 -11 4 -15 -5z" id="Skh5FYMGiuG"/>
        <path d="M2476 2412 c-3 -5 3 -17 13 -26 11 -10 22 -13 25 -8 3 5 -3 17 -13 26 -11 10 -22 13 -25 8z" id="Bka9YFfMsdG"/>
        <path d="M2160 2375 c-7 -8 -10 -15 -6 -15 4 0 -1 -11 -9 -24 -10 -15 -12 -26 -6 -30 5 -4 15 3 21 14 6 11 8 20 4 20 -4 0 1 9 10 19 10 11 13 22 8 25 -5 3 -15 -1 -22 -9z" id="S109FKMGo_M"/>
        <path d="M2878 2355 c-8 -9 64 -115 74 -109 10 6 -28 77 -52 99 -9 8 -19 13 -22 10z" id="r1ksKYGMiOM"/>
        <path d="M895 2320 c-10 -11 -14 -20 -10 -20 4 0 0 -9 -9 -19 -10 -11 -19 -25 -20 -33 -1 -7 -8 -24 -15 -37 -9 -15 -10 -26 -3 -33 7 -7 14 -3 22 12 6 12 9 24 6 27 -3 3 4 19 15 34 11 16 17 29 13 29 -4 0 3 11 15 24 12 13 18 27 13 30 -5 3 -17 -3 -27 -14z" id="SJesKYMGodM"/>
        <path d="M2175 2320 c-4 -6 -3 -16 3 -22 6 -6 12 -6 17 2 4 6 3 16 -3 22 -6 6 -12 6 -17 -2z" id="SJbjYFMMsuz"/>
        <path d="M907 2273 c-14 -21 -23 -41 -20 -46 7 -11 19 0 41 38 29 47 9 55 -21 8z" id="rkMiYYGGj_z"/>
        <path d="M2135 2280 c-3 -6 1 -13 9 -16 21 -8 49 3 41 16 -8 13 -42 13 -50 0z" id="H1mjKFzMs_f"/>
        <path d="M2897 2273 c-4 -6 0 -18 7 -28 8 -11 16 -14 19 -8 4 6 0 18 -7 28 -8 11 -16 14 -19 8z" id="B1NsKYMGiOG"/>
        <path d="M2955 2221 c-3 -6 -10 -9 -15 -6 -12 7 -23 -12 -15 -25 5 -8 11 -7 21 1 8 6 14 8 14 3 0 -4 5 -3 12 4 9 9 9 15 1 23 -8 8 -13 8 -18 0z" id="S1BjtYzGjuf"/>
        <path d="M879 2203 c-1 -4 -1 -11 -1 -15 1 -3 -5 -12 -13 -18 -8 -7 -15 -19 -15 -26 0 -8 -6 -13 -12 -11 -9 1 -13 -14 -13 -50 0 -29 4 -52 8 -50 9 2 36 -40 37 -57 0 -5 -6 -3 -13 3 -21 17 -29 0 -12 -26 9 -13 13 -23 9 -23 -4 0 -1 -7 6 -15 7 -8 9 -15 5 -15 -4 0 -2 -7 5 -15 7 -8 17 -12 22 -9 5 3 2 14 -8 25 -9 10 -14 20 -11 20 4 1 12 3 17 4 6 1 13 3 16 4 4 0 1 7 -5 14 -6 8 -9 16 -7 18 9 8 -23 104 -33 102 -6 -2 -11 6 -11 18 0 11 4 18 9 14 13 -7 18 4 22 45 2 19 7 40 11 47 5 6 5 14 -2 18 -5 3 -11 3 -11 -2z" id="HkLsYYMGi_z"/>
        <path d="M1122 2178 c-18 -11 -29 -24 -26 -29 5 -9 58 14 69 30 11 19 -12 19 -43 -1z" id="S1voFYGGiOf"/>
        <path d="M1216 2192 c-3 -5 12 -21 34 -35 40 -26 64 -22 32 5 -27 24 -60 39 -66 30z" id="BkdsKtffi_z"/>
        <path d="M1595 2183 c-44 -23 -65 -44 -86 -85 -23 -45 -25 -91 -4 -108 8 -7 13 -16 10 -20 -3 -5 -1 -11 4 -14 5 -4 12 -2 15 3 4 5 3 12 -2 15 -15 9 -13 95 3 126 21 41 104 93 93 58 -3 -7 -10 -13 -16 -13 -7 0 -12 -3 -12 -7 0 -5 0 -11 0 -14 0 -4 6 -1 13 5 8 6 16 9 19 6 3 -3 10 1 17 8 9 11 7 19 -6 35 -17 20 -20 20 -48 5z" id="rkFottMzs_G"/>
        <path d="M2969 2175 c-1 -6 -1 -44 0 -85 1 -60 -1 -70 -9 -51 -8 17 -14 21 -21 14 -13 -13 -8 -48 6 -48 6 0 16 -4 23 -8 30 -20 44 145 14 175 -7 7 -12 8 -13 3z" id="BJcitYGGidz"/>
        <path d="M1127 2128 c-18 -19 -40 -37 -50 -41 -18 -7 -15 -27 4 -27 17 0 99 89 89 95 -6 4 -25 -8 -43 -27z" id="HyojFYMfidM"/>
        <path d="M1205 2151 c-7 -12 12 -24 25 -16 11 7 4 25 -10 25 -5 0 -11 -4 -15 -9z" id="BJnoYYMGjOf"/>
        <path d="M2934 2146 c-4 -10 -2 -22 4 -28 8 -8 13 -7 18 6 4 10 2 22 -4 28 -8 8 -13 7 -18 -6z" id="rJ6iYKfGodM"/>
        <path d="M2592 2138 c-7 -7 -12 -8 -12 -4 0 5 -7 3 -15 -4 -8 -7 -12 -16 -9 -22 3 -5 12 -4 21 4 9 7 21 13 27 13 13 0 21 18 9 22 -5 2 -14 -2 -21 -9z" id="HyCitKfMsuM"/>
        <path d="M2645 2141 c-7 -12 12 -24 25 -16 11 7 4 25 -10 25 -5 0 -11 -4 -15 -9z" id="rJ12KKffsOM"/>
        <path d="M1071 2126 c-7 -8 -8 -17 -3 -20 6 -3 15 1 21 8 7 8 8 17 3 20 -6 3 -15 -1 -21 -8z" id="HJxnKFzGs_M"/>
        <path d="M1298 2125 c-4 -4 -4 -13 -1 -21 3 -8 1 -14 -5 -14 -5 0 -13 7 -16 16 -3 8 -10 12 -16 9 -17 -10 7 -42 30 -40 31 2 42 18 27 39 -7 9 -15 14 -19 11z" id="HJb3ttMMo_z"/>
        <path d="M2698 2124 c-3 -5 9 -26 27 -47 19 -22 36 -34 39 -28 4 6 -8 27 -27 47 -19 21 -36 33 -39 28z" id="HyGnFKzzouM"/>
        <path d="M1545 2091 c-19 -37 -19 -64 -1 -99 15 -28 56 -71 56 -57 0 4 6 2 14 -4 10 -8 16 -9 21 -1 6 9 0 14 -17 11 -4 0 -18 13 -32 30 -28 32 -34 85 -16 119 6 12 7 21 0 25 -5 3 -16 -8 -25 -24z" id="Bk7nYtGfjuf"/>
        <path d="M2611 2107 c-13 -16 -5 -28 14 -21 20 8 56 -14 88 -52 37 -45 55 -33 19 12 -25 32 -83 74 -101 74 -5 0 -14 -6 -20 -13z" id="SyVhYFfzjOG"/>
        <path d="M2516 2081 c-10 -11 -13 -22 -8 -25 5 -3 17 3 26 13 10 11 13 22 8 25 -5 3 -17 -3 -26 -13z" id="rJBnttfGi_M"/>
        <path d="M2538 2049 c-21 -21 -33 -41 -27 -45 12 -7 33 9 60 47 30 43 8 42 -33 -2z" id="B1U2FtGfjuG"/>
        <path d="M2237 2059 c-23 -13 -13 -29 13 -22 12 3 20 2 19 -3 -4 -21 2 -26 16 -14 14 12 14 15 -1 31 -20 22 -23 22 -47 8z" id="B1DnKKzziuf"/>
        <path d="M2182 2013 c-30 -44 -33 -51 -23 -57 5 -3 20 12 35 34 29 44 18 66 -12 23z" id="rJd3YYGfi_f"/>
        <path d="M2914 1948 c-8 -15 -14 -31 -14 -35 0 -5 -21 -32 -46 -61 -38 -43 -44 -55 -34 -67 7 -8 9 -15 5 -15 -3 0 15 -25 40 -55 26 -30 45 -55 41 -55 -4 0 0 -13 8 -28 10 -19 22 -28 35 -27 29 2 36 12 21 30 -7 8 -9 15 -5 15 5 0 1 8 -8 18 -14 16 -17 22 -17 38 0 4 -6 2 -13 -4 -10 -8 -23 1 -55 38 l-41 48 42 52 c23 28 42 55 43 58 2 20 28 61 36 56 5 -3 2 -14 -6 -23 -9 -10 -14 -20 -11 -22 2 -3 -14 -28 -35 -57 -22 -29 -40 -58 -40 -66 0 -18 37 -50 44 -37 4 5 2 12 -4 16 -17 10 -11 35 16 70 14 19 27 41 28 49 1 7 8 21 15 30 7 9 10 16 6 16 -4 0 -2 7 5 15 15 18 8 28 -21 30 -13 1 -25 -8 -35 -27z m21 -278 c-3 -4 2 -13 10 -20 8 -7 12 -17 9 -22 -4 -5 -14 3 -24 19 -17 28 -17 48 1 37 5 -3 7 -9 4 -14z" id="r1t2KFGGjOM"/>
        <path d="M2187 1953 c-11 -11 -8 -32 9 -58 22 -34 34 -22 20 20 -14 40 -20 48 -29 38z" id="BJc2FKMfiOf"/>
        <path d="M1546 1942 c-11 -19 65 -68 91 -58 23 9 10 29 -21 32 -16 2 -36 10 -46 19 -10 9 -21 12 -24 7z" id="rkjhttGGjuf"/>
        <path d="M415 1910 c-8 -14 23 -63 35 -55 4 3 2 19 -7 35 -16 33 -19 35 -28 20z" id="S132FtfGs_z"/>
        <path d="M907 1913 c-4 -6 0 -18 7 -28 8 -11 16 -14 19 -8 4 6 0 18 -7 28 -8 11 -16 14 -19 8z" id="HJ62FKzMj_f"/>
        <path d="M3381 1902 c-13 -25 2 -38 19 -16 9 10 10 18 3 25 -8 8 -14 5 -22 -9z" id="H1RnKKzMouG"/>
        <path d="M2157 1904 c-16 -27 65 -109 108 -109 27 0 33 40 7 54 -24 13 -36 3 -20 -16 6 -7 9 -16 6 -19 -7 -6 -69 54 -84 80 -6 12 -13 16 -17 10z" id="B1yTFFMzodf"/>
        <path d="M333 1845 c-42 -54 -47 -80 -9 -48 20 18 20 18 3 -9 -10 -16 -13 -29 -7 -33 5 -3 15 3 22 15 7 11 16 20 20 20 4 0 9 -298 10 -662 2 -436 6 -662 13 -661 6 2 12 234 15 659 5 614 6 656 23 665 26 15 11 29 -34 29 -37 0 -51 12 -29 25 16 10 31 43 22 49 -4 2 -26 -19 -49 -49z" id="SkgTFYMMsOM"/>
        <path d="M3426 1892 c-3 -6 1 -15 8 -21 8 -7 17 -8 20 -3 3 6 -1 15 -8 21 -8 7 -17 8 -20 3z" id="rkbaYYGGidG"/>
        <path d="M3325 1825 c-20 -25 -33 -45 -29 -45 3 0 1 -6 -5 -13 -13 -16 -5 -27 20 -27 25 0 62 53 47 68 -9 9 -7 16 6 31 10 11 13 22 8 25 -5 3 -26 -14 -47 -39z" id="ryfptFMGjOf"/>
        <path d="M456 1842 c-3 -5 6 -20 19 -32 29 -27 35 -52 7 -27 -27 25 -36 8 -11 -19 17 -18 26 -21 40 -13 11 5 19 15 19 22 0 18 -67 81 -74 69z" id="HJ7aKYMzsdM"/>
        <path d="M906 1842 c-3 -5 1 -15 9 -22 17 -14 20 -46 5 -55 -6 -4 -8 -11 -4 -16 8 -14 44 19 44 41 0 21 -46 65 -54 52z" id="SJVTYtfGoOf"/>
        <path d="M3476 1832 c-3 -5 3 -17 13 -26 11 -10 22 -13 25 -8 3 5 -3 17 -13 26 -11 10 -22 13 -25 8z" id="ryBpttMzsdM"/>
        <path d="M979 1824 c-1 -5 -1 -18 0 -29 1 -12 -9 -31 -23 -44 -14 -13 -23 -28 -20 -33 8 -13 74 52 74 73 0 17 -29 48 -31 33z" id="SyUatKzfsdz"/>
        <path d="M3427 1824 c-8 -8 73 -83 90 -84 16 0 26 18 19 37 -5 11 -10 12 -19 4 -10 -8 -20 -3 -42 19 -30 31 -37 35 -48 24z" id="HkwTttMfiuf"/>
        <path d="M1310 1781 c-56 -30 -119 -113 -108 -143 8 -19 63 -18 63 2 0 8 4 20 8 27 4 6 3 14 -3 18 -10 6 -11 5 -14 -14 0 -6 -7 -16 -13 -22 -21 -21 -16 11 7 49 56 92 185 97 253 11 14 -18 27 -27 31 -21 9 15 -41 70 -85 92 -47 25 -93 25 -139 1z" id="rk_ptKffs_M"/>
        <path d="M3415 1790 c-4 -6 -3 -16 3 -22 6 -6 12 -6 17 2 4 6 3 16 -3 22 -6 6 -12 6 -17 -2z" id="rkFpFKzMiuf"/>
        <path d="M1355 1750 c-8 -13 20 -24 41 -16 8 3 12 10 9 16 -8 13 -42 13 -50 0z" id="rJqatKfzjOz"/>
        <path d="M1426 1742 c-3 -6 1 -15 8 -21 8 -7 17 -8 20 -3 3 6 -1 15 -8 21 -8 7 -17 8 -20 3z" id="rkjTtFfzjuf"/>
        <path d="M880 1711 c-6 -12 -6 -22 -1 -26 6 -3 15 3 21 14 6 12 6 22 1 26 -6 3 -15 -3 -21 -14z" id="SJh6KKffsdM"/>
        <path d="M1476 1692 c-3 -6 1 -15 8 -21 8 -7 17 -8 20 -3 3 6 -1 15 -8 21 -8 7 -17 8 -20 3z" id="rJaTYYGfiuf"/>
        <path d="M859 1666 c-1 -3 -2 -9 -3 -13 -1 -5 -7 -18 -14 -29 -13 -25 -5 -39 15 -23 7 6 13 8 13 3 -1 -16 -25 -53 -35 -53 -5 -1 -10 -26 -10 -56 0 -30 3 -54 7 -52 8 2 43 -43 43 -55 0 -5 3 -8 8 -8 6 0 9 5 6 13 0 1 -3 16 -5 32 -7 45 -13 57 -24 50 -5 -3 -10 3 -10 14 0 12 5 20 12 19 10 -3 23 41 32 102 1 9 5 21 10 28 4 6 5 13 2 13 -3 1 -9 2 -13 3 -5 1 -14 5 -20 9 -7 5 -14 6 -14 3z" id="HyApFFMfjuf"/>
        <path d="M1494 1638 c-6 -9 -4 -10 26 -11 11 -1 19 3 18 8 -4 12 -37 14 -44 3z" id="SyJRFYMGs_G"/>
        <path d="M2275 1636 c-17 -12 -18 -17 -7 -40 14 -31 33 -27 24 6 -3 14 -1 19 6 14 16 -10 24 10 9 23 -10 8 -19 7 -32 -3z" id="SJeCKtMGjdf"/>
        <path d="M2487 1639 c-9 -6 -15 -14 -13 -18 3 -5 -6 -19 -20 -32 -30 -28 -78 -27 -110 3 -13 11 -24 15 -28 10 -3 -6 8 -22 25 -36 31 -26 73 -34 84 -16 4 6 10 8 14 5 9 -5 50 35 50 50 0 5 4 11 10 13 36 12 -17 -61 -61 -84 -21 -11 -27 -19 -20 -26 25 -25 135 90 116 120 -14 21 -25 24 -47 11z" id="HJZCYtGzjOM"/>
        <path d="M2695 1642 c-12 -12 -4 -42 14 -51 23 -13 35 -3 19 16 -24 29 2 22 36 -10 29 -27 36 -42 36 -71 0 -21 -5 -46 -10 -56 -6 -12 -7 -21 0 -25 12 -7 40 47 40 77 0 31 -33 83 -66 104 -26 18 -60 25 -69 16z" id="Hyz0KKfGs_z"/>
        <path d="M2966 1583 c-4 -5 -13 -8 -19 -8 -16 0 -22 -34 -8 -48 7 -7 13 -3 21 14 8 19 9 7 8 -53 -3 -85 5 -106 23 -62 20 54 0 182 -25 157z" id="ByXAFYMMj_G"/>
        <path d="M2758 1565 c-3 -3 -2 -22 2 -40 7 -32 5 -37 -31 -66 -21 -17 -39 -34 -39 -38 0 -17 28 -43 39 -37 9 6 9 11 0 23 -11 12 -7 19 19 40 18 13 30 28 27 33 -3 5 -1 11 5 15 5 3 10 14 10 24 0 21 -23 55 -32 46z" id="BJ4RFYGGiuz"/>
        <path d="M2306 1551 c-3 -5 10 -18 29 -30 33 -19 59 -14 32 7 -26 20 -56 32 -61 23z" id="SkSAFKGMouG"/>
        <path d="M2934 1456 c-4 -10 -2 -22 4 -28 8 -8 13 -7 18 6 4 10 2 22 -4 28 -8 8 -13 7 -18 -6z" id="ByICtKfMjdz"/>
        <path d="M1235 1450 c-3 -6 -10 -8 -15 -5 -5 3 -11 1 -14 -4 -4 -5 -2 -12 3 -15 5 -4 12 -2 16 4 4 6 11 8 17 4 5 -4 -2 -18 -17 -34 -15 -15 -22 -30 -17 -34 13 -8 57 45 57 68 0 22 -20 33 -30 16z" id="rkvAYtGfjuz"/>
        <path d="M836 1401 c-4 -6 -1 -21 6 -33 7 -13 13 -26 14 -30 1 -5 2 -11 3 -14 0 -4 7 -1 15 5 11 9 18 4 35 -24 11 -20 26 -33 31 -30 7 4 7 12 2 18 -4 7 -16 25 -26 40 -14 23 -20 26 -32 16 -8 -6 -14 -10 -15 -8 0 2 -2 14 -3 27 -3 29 -21 48 -30 33z" id="r1u0YKzfj_M"/>
        <path d="M1170 1390 c-13 -24 -10 -60 5 -62 12 -1 25 71 14 78 -4 2 -13 -5 -19 -16z" id="rJK0FtfzouG"/>
        <path d="M2921 1379 c-5 -13 -10 -28 -11 -34 -1 -5 -6 -15 -11 -22 -7 -7 -6 -14 1 -18 5 -3 11 -4 11 -1 1 3 2 9 3 14 1 4 8 17 16 29 10 16 18 19 26 12 16 -13 30 9 15 24 -6 6 -11 7 -11 3 0 -5 -7 -3 -15 4 -12 10 -16 8 -24 -11z" id="BJqAYFfGsOf"/>
        <path d="M1551 1361 c-8 -14 -7 -22 4 -31 14 -11 19 -7 16 13 -2 10 27 9 50 -3 10 -6 28 -29 39 -51 12 -22 25 -37 30 -34 16 10 -28 84 -63 105 -40 25 -64 25 -76 1z" id="B1oCYFGzjOz"/>
        <path d="M2125 1350 c-8 -13 4 -32 15 -25 9 6 32 -29 36 -54 4 -19 45 -61 56 -55 4 3 -5 22 -21 41 -17 20 -28 40 -25 45 8 13 -24 58 -41 58 -7 0 -17 -4 -20 -10z" id="r1n0YFfMjuG"/>
        <path d="M2516 1338 c-17 -24 -9 -50 8 -26 6 8 19 17 29 21 10 4 15 11 12 17 -10 17 -33 11 -49 -12z" id="S1pRtKMMidM"/>
        <path d="M1206 1342 c-3 -5 6 -19 19 -32 28 -26 23 -50 -5 -25 -10 9 -21 12 -24 7 -3 -5 1 -15 9 -22 8 -7 15 -9 15 -5 0 4 7 2 15 -5 18 -15 28 -8 30 20 2 22 -50 77 -59 62z" id="H1RAKKMMjdG"/>
        <path d="M1587 1334 c-4 -4 4 -19 17 -33 15 -16 26 -41 28 -66 3 -35 -1 -42 -32 -63 -48 -32 -63 -52 -49 -69 13 -15 45 -17 54 -3 3 6 -3 14 -15 18 -20 7 -19 10 17 33 21 13 38 29 38 36 0 6 3 15 8 19 4 4 7 20 7 36 0 30 -59 105 -73 92z" id="r1kkgKKMzi_M"/>
        <path d="M2930 1321 c-6 -12 -6 -22 -1 -26 6 -3 15 3 21 14 6 12 6 22 1 26 -6 3 -15 -3 -21 -14z" id="Hke1gtFGGiuz"/>
        <path d="M876 1311 c-4 -5 -2 -12 4 -16 6 -4 8 -10 5 -14 -2 -5 4 -16 14 -25 11 -10 22 -13 25 -8 3 5 -3 17 -14 27 -11 10 -17 21 -15 26 3 4 1 10 -4 13 -5 4 -12 2 -15 -3z" id="HJWJeFYfMjOf"/>
        <path d="M2128 1305 c-8 -8 16 -60 40 -87 25 -29 32 -9 9 26 -12 18 -27 41 -32 51 -6 9 -13 13 -17 10z" id="SJMJgtYfGidf"/>
        <path d="M2531 1271 c-12 -22 -25 -43 -31 -46 -6 -4 -8 -11 -4 -16 9 -14 32 8 55 52 11 22 15 40 9 44 -5 3 -18 -12 -29 -34z" id="H1m1gKtMzsdG"/>
        <path d="M2866 1281 c-10 -11 -13 -22 -8 -25 5 -3 17 3 26 13 10 11 13 22 8 25 -5 3 -17 -3 -26 -13z" id="B1VklYFfGi_z"/>
        <path d="M2472 1250 c-17 -21 -28 -41 -23 -44 12 -8 73 62 66 75 -8 12 -6 14 -43 -31z" id="HyBJgYYGMj_z"/>
        <path d="M2892 1260 c-23 -31 -14 -51 10 -22 23 27 29 40 20 46 -5 3 -18 -8 -30 -24z" id="HJUyeYFGzjOG"/>
        <path d="M976 1231 c-3 -5 16 -24 44 -42 27 -18 48 -34 45 -37 -2 -3 -11 1 -19 7 -9 8 -16 8 -20 2 -10 -16 43 -46 57 -32 6 6 7 11 3 11 -5 0 -3 6 4 14 9 12 5 19 -27 35 -21 12 -48 28 -60 37 -13 9 -23 11 -27 5z" id="BJDyeKtfziOf"/>
        <path d="M1667 1199 c-8 -19 -24 -42 -35 -53 -12 -10 -19 -23 -16 -28 8 -12 52 29 71 66 10 19 11 32 5 38 -7 7 -15 0 -25 -23z" id="S1ukxttzGjdz"/>
        <path d="M2786 1205 c-17 -13 -33 -22 -37 -20 -4 3 -12 -2 -18 -9 -7 -8 -8 -17 -3 -20 6 -3 15 1 22 9 7 8 16 13 20 10 5 -3 21 5 36 18 36 31 17 42 -20 12z" id="HyK1gKtGGodG"/>
        <path d="M2245 1210 c-9 -14 44 -45 56 -33 7 7 1 15 -20 26 -17 8 -33 11 -36 7z" id="rJ91etFMMj_z"/>
        <path d="M956 1201 c-3 -5 5 -16 19 -25 24 -16 45 -6 22 11 -24 19 -36 23 -41 14z" id="B1jkeKKfMj_z"/>
        <path d="M2405 1196 c-11 -8 -14 -16 -8 -19 6 -4 18 0 28 7 11 8 14 16 8 19 -6 4 -18 0 -28 -7z" id="Hk31gKFfMjOz"/>
        <path d="M2205 1190 c-9 -15 78 -65 95 -55 5 3 11 1 15 -5 3 -5 17 -10 30 -10 13 0 27 5 30 10 4 6 10 8 15 5 15 -10 54 15 42 27 -7 7 -18 6 -33 -3 -36 -19 -78 -15 -137 13 -29 14 -55 22 -57 18z" id="By6yeYYMGsdM"/>
        <path d="M2461 1186 c-7 -8 -8 -17 -3 -20 6 -3 15 1 21 8 7 8 8 17 3 20 -6 3 -15 -1 -21 -8z" id="ryRygtKfzo_f"/>
        <path d="M2325 1180 c-8 -12 20 -24 35 -15 6 3 8 11 5 16 -8 12 -32 12 -40 -1z" id="SyJegKKffjdz"/>
        <path d="M1109 1165 c-1 -3 -2 -8 -3 -12 -1 -5 -4 -13 -8 -19 -9 -14 0 -24 23 -24 10 0 25 -10 34 -22 8 -13 22 -23 30 -23 8 0 15 -4 16 -10 5 -43 111 -181 131 -169 5 3 -9 25 -31 49 -40 44 -87 123 -83 139 2 5 0 16 -4 25 -4 9 -8 23 -10 31 -4 22 -34 40 -66 40 -15 0 -29 -2 -29 -5z m78 -45 c19 -29 -1 -33 -27 -5 -22 23 -22 25 -4 25 10 0 25 -9 31 -20z" id="B1xleKKMfiuf"/>
        <path d="M2655 1161 c-3 -6 1 -14 10 -17 11 -5 13 -10 5 -19 -14 -17 -1 -25 26 -15 31 12 25 54 -8 58 -15 2 -29 -2 -33 -7z" id="SJZxltYMzjuf"/>
        <path d="M2757 1154 c-38 -20 -24 -38 14 -19 16 9 27 20 24 25 -7 12 -4 13 -38 -6z" id="BJGelFtzMsOz"/>
        <path d="M1964 1126 c-4 -9 -1 -22 5 -30 6 -7 8 -16 5 -19 -3 -3 -3 -11 1 -17 5 -8 11 -8 21 1 14 11 15 10 18 -11 0 -5 4 -10 9 -10 7 0 8 4 6 15 -1 3 -2 11 -3 17 0 7 -10 13 -21 13 -15 0 -19 6 -17 22 4 26 -16 41 -24 19z" id="rJmgeFFGModz"/>
        <path d="M2599 1078 c-5 -10 -7 -18 -5 -18 12 0 -49 -97 -81 -131 -19 -20 -31 -39 -26 -42 12 -7 73 56 99 101 10 18 24 30 31 28 11 -5 30 11 32 26 1 4 4 15 8 23 3 9 3 19 -1 22 -14 14 -48 9 -57 -9z m30 -34 c-6 -7 -15 -11 -21 -8 -5 3 -4 12 3 20 6 7 15 11 21 8 5 -3 4 -12 -3 -20z" id="rJEgltFffs_G"/>
        <path d="M1175 1040 c-4 -6 1 -23 11 -38 10 -15 19 -29 19 -32 1 -14 18 -30 26 -24 6 4 3 14 -8 26 -10 11 -17 21 -15 22 5 2 -17 56 -22 56 -3 0 -8 -5 -11 -10z" id="HkHxeFtzMjdM"/>
        <path d="M1988 1035 c-10 -10 22 -56 34 -49 5 3 32 -19 60 -50 27 -31 54 -53 59 -50 6 3 -8 25 -29 48 -22 24 -45 53 -52 66 -8 15 -15 19 -22 12 -8 -8 -16 -5 -27 9 -9 11 -19 17 -23 14z" id="S1UxgtKzfi_G"/>
        <path d="M1780 971 c-6 -12 -6 -22 -1 -26 6 -3 15 3 21 14 6 12 6 22 1 26 -6 3 -15 -3 -21 -14z" id="SkveeYFzGs_z"/>
        <path d="M2593 977 c-19 -24 -23 -36 -14 -41 5 -3 16 5 25 19 16 24 6 45 -11 22z" id="Sy_geKFMGoOM"/>
        <path d="M2016 972 c-3 -6 1 -15 8 -21 8 -7 17 -8 20 -3 3 6 -1 15 -8 21 -8 7 -17 8 -20 3z" id="B1KxettGGsdG"/>
        <path d="M1701 926 c-13 -13 -18 -26 -13 -30 5 -3 19 5 31 18 13 13 18 26 13 30 -5 3 -19 -5 -31 -18z" id="HycxxttGzo_G"/>
        <path d="M1237 933 c-4 -6 11 -27 32 -47 21 -21 41 -34 44 -29 4 6 -11 27 -32 47 -21 21 -41 34 -44 29z" id="S1olxYKGzjOG"/>
        <path d="M2046 932 c-3 -6 1 -15 8 -21 8 -7 17 -8 20 -3 3 6 -1 15 -8 21 -8 7 -17 8 -20 3z" id="HkhlgFtzMs_f"/>
        <path d="M1726 901 c-15 -16 -23 -31 -18 -35 5 -3 21 8 36 23 15 16 23 31 18 35 -5 3 -21 -8 -36 -23z" id="S1agltKfMsuG"/>
        <path d="M2536 901 c-15 -16 -23 -31 -18 -35 5 -3 21 8 36 23 15 16 23 31 18 35 -5 3 -21 -8 -36 -23z" id="HyClxKKfGsdG"/>
        <path d="M2096 882 c-3 -6 1 -15 8 -21 8 -7 17 -8 20 -3 3 6 -1 15 -8 21 -8 7 -17 8 -20 3z" id="H1kbeYYzfjOz"/>
        <path d="M1365 870 c-3 -5 4 -14 15 -20 11 -6 18 -15 15 -21 -4 -5 -17 -1 -32 11 -14 11 -30 17 -36 13 -5 -3 0 -13 14 -24 13 -10 26 -16 28 -13 2 2 10 -1 18 -8 10 -8 17 -8 25 0 7 7 8 12 4 12 -5 0 -3 6 3 14 10 12 7 18 -18 30 -17 9 -32 12 -36 6z" id="Bkg-xKFzzidf"/>
        <path d="M1607 863 c-23 -12 -26 -17 -16 -29 6 -8 8 -14 3 -14 -4 0 -3 -5 3 -11 13 -13 97 26 88 41 -4 6 -18 4 -35 -5 -39 -20 -50 -18 -21 4 30 23 15 34 -22 14z" id="SyWZeYFzzjOM"/>
        <path d="M2175 870 c-3 -5 4 -14 15 -20 16 -9 19 -15 10 -25 -14 -17 7 -32 23 -16 6 6 7 11 3 11 -5 0 -3 6 3 14 10 12 7 18 -18 30 -17 9 -32 12 -36 6z" id="HkMWgYYzfidz"/>
        <path d="M2417 863 c-23 -12 -26 -17 -16 -29 6 -8 8 -14 3 -14 -4 0 -3 -5 3 -11 13 -13 97 26 88 41 -4 6 -18 4 -35 -5 -39 -20 -50 -18 -21 4 30 23 15 34 -22 14z" id="H1Q-xYtzGi_G"/>
        <path d="M2135 851 c-3 -6 3 -15 14 -21 12 -6 22 -6 26 -1 3 6 -3 15 -14 21 -12 6 -22 6 -26 1z" id="rJEWgFKzzoOz"/>
        <path d="M1439 845 c-1 -3 -2 -8 -3 -12 -1 -5 -5 -13 -9 -20 -18 -28 81 -45 138 -23 23 9 25 13 15 25 -7 8 -9 15 -4 15 4 0 3 5 -3 11 -7 7 -19 9 -28 5 -14 -5 -15 -9 -5 -21 11 -13 5 -15 -41 -15 -42 1 -50 3 -36 11 9 6 15 14 12 20 -6 9 -34 13 -36 4z" id="SyrbxFKMfsdG"/>
        <path d="M2249 845 c-1 -3 -2 -8 -3 -12 -1 -5 -5 -13 -9 -20 -18 -28 81 -45 138 -23 21 8 25 13 16 24 -6 7 -8 16 -4 19 10 10 -25 20 -44 12 -17 -6 -17 -7 1 -21 18 -13 15 -14 -35 -14 -42 1 -50 3 -36 11 9 6 15 14 12 20 -6 9 -34 13 -36 4z" id="rk8WxttzMsdG"/>
        <path d="M1532 658 c-5 -7 -10 -62 -10 -123 l-1 -110 -537 -3 c-490 -2 -538 -1 -549 14 -8 12 -14 13 -19 6 -10 -17 30 -52 59 -52 15 0 24 -5 22 -12 -1 -7 5 -13 13 -13 8 0 14 6 13 13 -2 9 102 12 496 12 431 0 500 2 511 15 7 8 9 15 5 15 -4 0 -2 7 5 15 8 9 11 45 9 104 -2 50 0 93 4 97 4 4 7 -2 7 -14 0 -11 5 -24 10 -27 16 -10 24 24 12 51 -13 26 -34 31 -50 12z" id="S1PblFFGzsOf"/>
        <path d="M2267 653 c-9 -16 -2 -258 8 -261 6 -2 12 7 15 20 5 20 7 21 13 5 4 -10 11 -16 16 -12 5 3 12 1 16 -5 4 -7 181 -10 515 -10 334 0 511 3 515 10 4 6 10 8 15 5 5 -3 14 3 20 14 12 24 -4 39 -17 16 -8 -14 -72 -15 -533 -15 -461 0 -525 1 -533 15 -4 8 -12 13 -18 10 -5 -4 -9 26 -9 74 0 43 -3 88 -6 98 -6 16 -5 15 9 -2 15 -19 16 -19 23 -2 3 10 2 23 -5 30 -6 6 -11 7 -11 3 0 -5 -6 -3 -14 3 -8 7 -16 8 -19 4z" id="SJ_-gFFzGj_z"/>
        <path d="M374 436 c-8 -21 3 -49 16 -41 5 3 10 15 10 25 0 25 -18 36 -26 16z" id="HktWgYtzMoOf"/>
        <path d="M1532 389 c-13 -5 -20 -13 -17 -19 8 -13 18 -13 40 3 23 17 8 28 -23 16z" id="S1q-eKFGGiuf"/>
        <path d="M405 380 c-8 -13 20 -24 41 -16 20 8 9 26 -16 26 -10 0 -22 -5 -25 -10z" id="BkoZxtYzModM"/>
        <path d="M2305 380 c-8 -12 20 -24 35 -15 6 3 8 11 5 16 -8 12 -32 12 -40 -1z" id="SJ2WeKFGzj_M"/>
        <path d="M3355 380 c-8 -12 20 -24 35 -15 6 3 8 11 5 16 -8 12 -32 12 -40 -1z" id="HJTWeYYGMjuG"/>
    </g>
    <g id="B1AWetFGzj_z">
        <path d="M1727 3702 c-10 -10 -17 -33 -17 -50 0 -31 -1 -32 -45 -32 -63 0 -95 -32 -95 -95 l0 -45 -48 0 c-35 0 -54 -5 -66 -18 -15 -18 -15 -20 2 -35 21 -19 38 -11 21 10 -9 10 -2 13 38 13 67 0 82 13 85 80 l3 55 55 3 c66 4 80 14 80 58 0 19 4 34 10 34 5 0 7 -13 4 -29 -7 -35 24 -61 74 -61 54 0 72 15 72 61 0 32 3 40 15 36 19 -8 28 8 12 22 -23 18 -57 -14 -57 -55 0 -34 0 -34 -45 -34 l-46 0 3 36 c2 27 -2 39 -18 50 -18 13 -23 12 -37 -4z" id="rkJzlKKGMj_G"/>
        <path d="M2042 3698 c-7 -7 -12 -27 -12 -46 l0 -33 -47 1 c-66 2 -67 2 -53 -15 8 -10 30 -15 61 -15 53 0 69 15 69 64 0 14 5 26 10 26 6 0 10 -16 10 -35 0 -42 20 -55 84 -55 l46 0 0 -55 c0 -70 22 -87 104 -83 77 4 71 22 -9 26 l-65 3 0 47 c0 70 -20 92 -81 92 -49 0 -49 0 -49 33 0 36 -15 57 -40 57 -9 0 -21 -5 -28 -12z" id="rygzxFKzzsuM"/>
        <path d="M1637 3552 c-15 -16 -17 -47 -17 -268 0 -210 2 -253 16 -272 15 -22 18 -22 273 -22 237 0 259 1 274 18 15 16 17 50 17 273 0 287 -1 293 -63 287 -47 -4 -49 -22 -2 -26 l35 -3 0 -260 0 -259 -260 0 -260 0 0 259 0 260 38 3 c47 4 48 22 1 26 -24 2 -40 -3 -52 -16z" id="H1-MlKtzfjuG"/>
        <path d="M1765 3560 c-3 -5 0 -13 8 -16 23 -9 122 0 122 11 0 14 -122 19 -130 5z" id="HJMMltFGMsOf"/>
        <path d="M1925 3560 c-3 -5 0 -13 8 -16 23 -9 122 0 122 11 0 14 -122 19 -130 5z" id="BkmMgtYGziuM"/>
        <path d="M2361 3441 c-7 -5 -32 -6 -54 -4 -59 7 -97 -23 -97 -76 0 -54 23 -71 94 -71 47 0 57 -3 53 -15 -9 -21 12 -30 29 -13 12 12 12 17 0 33 -11 15 -30 21 -78 25 l-63 5 -3 34 c-4 42 9 52 71 49 32 -1 53 4 63 14 17 17 6 31 -15 19z" id="rJNfeFFGfoOf"/>
        <path d="M1507 3434 c-12 -12 4 -24 34 -24 28 0 29 -2 29 -45 l0 -45 -44 0 c-28 0 -52 -7 -67 -19 -22 -18 -23 -21 -7 -37 20 -20 45 -10 27 12 -10 12 -3 14 44 14 45 0 58 4 67 19 17 32 12 96 -8 114 -18 17 -63 23 -75 11z" id="HJHMlFtfzidG"/>
        <path d="M389 3311 l-24 -19 -5 -706 -5 -706 -42 -49 c-46 -53 -52 -71 -28 -91 12 -10 20 -9 40 4 14 9 25 21 25 26 0 6 3 10 8 10 4 0 6 -303 4 -672 -1 -370 1 -679 4 -688 4 -8 6 -20 5 -27 -2 -14 33 -35 43 -26 3 4 -1 14 -9 23 -13 14 -15 110 -18 715 -1 514 -5 699 -13 702 -7 2 -25 -8 -40 -22 -46 -43 -39 -11 10 50 l46 56 0 692 c0 526 3 696 12 705 16 16 858 18 858 2 0 -7 -143 -10 -408 -10 -383 0 -410 -1 -425 -18 -16 -17 -17 -79 -17 -685 0 -440 3 -668 10 -672 6 -4 8 -10 5 -15 -3 -4 15 -30 40 -58 42 -47 55 -72 38 -72 -5 0 -20 14 -34 32 -23 28 -29 30 -43 19 -14 -12 -16 -81 -16 -690 0 -596 2 -679 16 -699 l15 -22 538 0 c473 0 540 2 551 15 9 11 10 19 3 26 -8 8 -13 7 -17 0 -5 -8 -168 -11 -542 -11 l-534 0 0 680 0 680 28 -32 c31 -34 56 -34 65 1 4 16 -8 37 -46 81 l-52 59 3 676 2 675 404 0 c239 0 415 4 430 10 31 11 33 30 8 53 -17 15 -62 17 -444 17 -404 0 -427 -1 -449 -19z" id="SkLzgFFzGsOz"/>
        <path d="M2562 3318 c-7 -7 -12 -19 -12 -28 0 -39 11 -40 427 -40 l403 0 2 -670 c2 -436 6 -671 13 -673 7 -1 11 227 13 667 2 612 1 671 -14 688 -16 17 -42 18 -416 18 -261 0 -398 3 -398 10 0 7 141 9 418 8 l417 -3 3 -701 2 -700 50 -59 c47 -55 58 -75 44 -75 -3 0 -19 14 -36 30 -31 31 -53 35 -53 9 0 -7 8 -15 19 -17 10 -2 29 -16 41 -30 14 -17 28 -23 39 -19 34 13 29 37 -23 100 l-51 62 0 697 c0 685 0 698 -20 718 -19 19 -33 20 -438 20 -312 0 -421 -3 -430 -12z" id="ByvGeYtGzo_z"/>
        <path d="M1545 3270 c-3 -6 1 -13 9 -16 11 -4 16 -19 16 -50 l0 -44 -48 0 c-51 0 -72 -12 -72 -42 0 -23 30 -38 79 -38 41 0 41 0 41 -39 0 -24 8 -48 21 -65 17 -22 28 -26 70 -26 47 0 49 -1 49 -28 0 -16 8 -36 18 -45 16 -15 21 -15 37 -3 11 8 19 26 20 42 0 27 3 29 43 32 40 3 42 2 42 -26 0 -38 33 -70 55 -52 18 15 11 32 -10 23 -11 -4 -15 3 -15 24 0 39 -28 63 -72 63 -40 0 -82 -37 -72 -63 3 -10 1 -17 -5 -17 -6 0 -11 10 -11 23 0 41 -21 56 -80 59 l-55 3 -3 50 c-2 27 -8 55 -14 62 -6 7 -32 13 -59 13 -27 0 -49 5 -49 10 0 6 20 10 43 10 55 0 77 22 77 77 0 49 -37 92 -55 63z" id="Bk_GlFFGGidM"/>
        <path d="M2222 3258 c-7 -7 -12 -31 -12 -54 0 -55 25 -74 97 -74 29 0 53 -4 53 -10 0 -6 -26 -10 -58 -10 -74 0 -92 -17 -92 -83 l0 -47 -48 0 c-54 0 -82 -20 -82 -58 0 -12 -4 -22 -10 -22 -5 0 -10 9 -10 21 0 44 -18 59 -69 59 -52 0 -84 -21 -64 -41 8 -8 13 -7 17 0 4 6 25 11 47 11 36 0 39 -2 39 -28 0 -16 9 -37 19 -46 18 -17 20 -17 40 3 12 12 21 32 21 46 0 23 3 25 48 25 63 0 82 20 82 83 l0 47 56 0 c63 0 94 13 94 38 0 31 -22 42 -87 42 l-63 0 0 39 c0 22 5 43 10 46 11 7 4 25 -9 25 -4 0 -12 -5 -19 -12z" id="rkYfeFtzfodG"/>
        <path d="M1456 2791 c-3 -5 -15 -7 -25 -4 -30 8 -137 -55 -183 -106 -33 -37 -63 -88 -73 -121 -6 -19 -19 -49 -31 -72 -19 -36 0 -46 23 -12 10 15 18 37 18 49 1 12 9 32 18 45 9 14 17 29 17 34 0 5 16 29 36 53 38 47 125 103 160 103 11 0 23 3 27 6 3 4 31 7 62 7 31 0 59 -3 62 -7 4 -3 14 -6 23 -6 31 0 101 -41 142 -83 51 -53 100 -157 102 -217 0 -25 6 -47 11 -50 12 -6 19 65 9 89 -4 9 -6 20 -5 24 4 21 -56 123 -98 166 -53 54 -143 105 -172 98 -11 -3 -22 -1 -25 4 -3 5 -25 9 -49 9 -24 0 -46 -4 -49 -9z" id="B1cfxYtzMidG"/>
        <path d="M2267 2794 c-3 -4 -21 -8 -39 -9 -50 -3 -175 -86 -162 -107 3 -5 19 3 36 17 39 33 101 65 126 65 10 0 21 3 25 6 3 4 31 7 62 7 31 0 59 -3 62 -7 4 -3 14 -6 23 -6 42 0 139 -69 176 -125 19 -29 39 -24 24 6 -33 60 -171 156 -211 146 -11 -3 -22 -1 -25 4 -6 10 -87 12 -97 3z" id="S1iMlKFfzouM"/>
        <path d="M1455 2750 c-4 -6 -10 -8 -15 -5 -13 8 -72 -24 -65 -35 5 -8 41 0 68 17 21 13 114 4 158 -15 79 -34 168 -130 175 -187 4 -36 24 -76 34 -70 14 8 13 16 -7 61 -9 22 -17 41 -18 44 -5 23 -41 73 -78 107 -49 45 -122 87 -137 78 -5 -3 -11 -1 -15 5 -3 5 -26 10 -50 10 -24 0 -47 -5 -50 -10z" id="rk2feYtGzodG"/>
        <path d="M2265 2750 c-4 -6 -11 -8 -16 -5 -13 9 -104 -43 -144 -82 -37 -35 -87 -115 -90 -142 -1 -9 -5 -24 -9 -33 -10 -22 -4 -52 9 -50 6 1 10 15 11 30 1 41 49 134 91 175 72 73 207 112 269 79 10 -5 22 -9 25 -9 4 1 29 -13 56 -32 51 -35 115 -118 119 -156 1 -11 8 -33 15 -50 7 -16 13 -32 13 -35 4 -19 22 -31 44 -29 41 4 152 -52 190 -96 33 -37 72 -113 72 -140 0 -21 19 -29 26 -11 9 23 -39 119 -85 168 -36 39 -137 101 -158 97 -4 -1 -15 1 -23 4 -8 3 -24 7 -35 9 -12 2 -19 10 -17 19 1 9 -5 34 -15 55 -9 21 -17 42 -17 45 -1 3 -14 26 -30 52 -28 44 -102 107 -130 111 -8 1 -21 8 -30 15 -8 7 -20 10 -25 7 -5 -4 -12 -2 -16 4 -3 5 -26 10 -50 10 -24 0 -47 -5 -50 -10z" id="rkaGgtFzfouf"/>
        <path d="M1324 2687 c-36 -31 -18 -42 20 -12 16 13 24 25 18 29 -6 3 -23 -4 -38 -17z" id="BJAfetYffjOM"/>
        <path d="M1257 2618 c-41 -55 -60 -99 -48 -111 7 -7 16 3 30 35 11 24 30 56 41 71 11 14 16 28 11 31 -5 4 -21 -8 -34 -26z" id="ryJmeYFGzsOz"/>
        <path d="M1991 2579 c-12 -23 -20 -47 -18 -53 3 -7 -1 -20 -9 -31 -16 -22 -19 -81 -4 -90 12 -8 18 7 23 60 5 45 12 67 34 108 10 19 12 32 5 39 -6 6 -17 -5 -31 -33z" id="BJemgKKzGidG"/>
        <path d="M2606 2602 c-2 -4 4 -28 15 -52 14 -30 23 -40 30 -33 7 7 4 23 -10 52 -22 42 -26 47 -35 33z" id="SJ-mxYYfzi_M"/>
        <path d="M1475 2502 c-41 -26 -52 -42 -51 -77 1 -40 36 -47 60 -11 21 33 53 33 78 1 37 -47 82 -23 62 33 -11 31 -67 72 -98 72 -12 0 -34 -8 -51 -18z m95 -27 c18 -9 30 -24 30 -35 0 -27 -14 -25 -34 5 -21 32 -47 32 -86 -1 -33 -28 -45 -28 -34 0 7 19 51 45 77 46 10 0 31 -7 47 -15z" id="rkf7etYfzodG"/>
        <path d="M2646 2492 c-6 -11 27 -44 40 -41 12 3 40 -7 101 -38 62 -30 112 -82 148 -154 16 -31 30 -48 36 -42 15 15 -32 95 -91 154 -52 53 -141 104 -164 96 -6 -2 -23 4 -38 15 -15 10 -29 14 -32 10z" id="r1QQxFFzfidf"/>
        <path d="M1197 2484 c-4 -4 -7 -15 -7 -24 0 -12 -11 -19 -37 -23 -54 -7 -118 -36 -106 -48 6 -6 26 -4 54 6 24 8 57 17 72 20 31 6 57 49 41 65 -6 6 -13 7 -17 4z" id="BJVXxYFGzsdM"/>
        <path d="M2270 2473 c-43 -18 -71 -43 -64 -55 3 -5 14 -2 24 7 9 8 41 20 71 27 97 20 176 -19 219 -107 22 -46 20 -75 -5 -55 -8 6 -12 17 -9 24 7 17 -60 91 -100 110 -19 9 -49 16 -66 16 -37 0 -103 -37 -94 -51 3 -6 15 -4 30 5 33 22 102 20 142 -4 32 -20 80 -86 74 -104 -5 -14 19 -36 39 -36 11 0 24 10 30 23 15 32 -12 89 -69 146 -68 68 -146 87 -222 54z" id="HJrXeFtMfjuG"/>
        <path d="M1043 2449 c-44 -20 -168 -128 -158 -137 3 -3 -4 -15 -15 -27 -12 -12 -20 -26 -18 -31 1 -5 -6 -24 -16 -42 -18 -34 -19 -87 -1 -87 6 0 13 18 17 40 9 57 12 67 28 95 8 14 13 28 12 31 -4 16 113 112 163 135 30 14 53 30 50 35 -8 12 -12 11 -62 -12z" id="rkU7gFKffidG"/>
        <path d="M2168 2392 c-23 -25 -48 -78 -48 -100 0 -42 51 -57 70 -21 7 11 9 23 6 26 -3 3 4 18 14 34 11 15 16 30 12 33 -12 7 -46 -30 -39 -41 7 -11 -21 -48 -30 -40 -9 9 14 76 34 99 8 9 10 19 5 22 -5 3 -16 -2 -24 -12z" id="SkP7xFYzGj_G"/>
        <path d="M984 2358 c-21 -18 -52 -55 -69 -83 -32 -51 -63 -141 -51 -152 3 -3 1 -12 -5 -19 -12 -15 5 -119 22 -130 5 -3 7 -10 4 -15 -9 -13 61 -124 92 -147 l26 -19 -22 -20 c-29 -27 -11 -39 20 -14 20 16 21 21 10 35 -7 9 -10 16 -6 16 4 0 -6 13 -23 28 -34 32 -84 124 -89 164 -1 15 -7 46 -12 68 -5 22 -6 42 -2 45 4 2 13 29 20 59 14 62 58 134 108 175 20 16 30 31 24 35 -5 4 -27 -8 -47 -26z" id="HJOmeFFGfo_G"/>
        <path d="M1099 2161 c-50 -49 -60 -79 -34 -101 12 -10 20 -9 39 4 14 8 27 25 31 36 6 19 20 25 69 32 14 2 29 -10 48 -39 30 -44 45 -52 66 -31 44 44 -49 148 -133 148 -32 0 -45 -8 -86 -49z m149 5 c30 -15 60 -61 48 -73 -4 -4 -18 6 -30 22 -13 17 -28 30 -33 31 -4 0 -16 4 -26 9 -25 10 -83 -18 -92 -44 -8 -27 -35 -36 -35 -12 0 11 16 33 35 50 40 35 87 41 133 17z" id="SkF7lFYzMsuf"/>
        <path d="M1595 2193 c-55 -28 -118 -104 -101 -121 3 -3 1 -11 -5 -18 -6 -7 -8 -18 -4 -24 8 -13 26 -3 23 13 -4 23 43 97 72 112 53 27 72 13 21 -17 -38 -21 -68 -65 -54 -79 8 -8 15 -2 25 17 7 16 30 37 51 47 28 13 37 23 37 42 0 35 -28 47 -65 28z" id="rk9QetKfGs_f"/>
        <path d="M2966 2192 c-9 -15 12 -65 24 -57 14 9 13 28 -3 50 -9 11 -16 14 -21 7z" id="B1i7gttGzodG"/>
        <path d="M2593 2153 c-31 -6 -103 -87 -103 -117 0 -13 7 -29 16 -37 13 -11 22 -6 59 34 28 31 51 47 67 47 29 0 68 -26 68 -45 0 -8 12 -22 26 -32 25 -16 27 -16 40 2 21 29 17 51 -18 91 -47 53 -91 69 -155 57z m105 -43 c33 -20 61 -64 48 -77 -4 -4 -18 6 -31 23 -50 63 -111 65 -156 5 -26 -35 -39 -39 -39 -13 0 19 43 65 70 75 32 12 76 6 108 -13z" id="rynXgFYMfjdM"/>
        <path d="M2935 2118 c-9 -22 -2 -68 10 -71 14 -3 19 63 6 76 -7 7 -12 5 -16 -5z" id="HJTmgKYGzouz"/>
        <path d="M2206 2044 c-93 -64 -79 -191 27 -249 30 -16 38 -17 51 -6 24 20 19 49 -11 68 -16 9 -34 23 -40 32 -20 23 -16 69 8 89 74 60 74 60 61 74 -20 20 -60 16 -96 -8z m64 0 c0 -4 -18 -24 -40 -45 -22 -22 -40 -48 -40 -59 0 -31 26 -75 57 -98 34 -25 23 -41 -14 -21 -57 30 -80 112 -47 168 21 35 84 76 84 55z" id="rJAQeFKzMsdG"/>
        <path d="M824 2026 c-12 -31 31 -145 47 -129 7 7 5 23 -5 48 -9 21 -16 48 -16 61 0 28 -18 41 -26 20z" id="r1yVeFYGzj_M"/>
        <path d="M2970 2014 c-6 -14 -9 -31 -8 -38 2 -9 -15 -51 -39 -98 -2 -4 1 -9 6 -13 10 -5 53 66 49 82 0 5 4 21 10 36 15 35 15 44 2 52 -6 3 -15 -6 -20 -21z" id="r1e4xKYzfs_M"/>
        <path d="M1547 2023 c-4 -3 -7 -10 -7 -14 0 -15 62 -79 76 -79 8 0 14 -7 14 -15 0 -8 -4 -15 -9 -15 -15 0 -76 46 -86 65 -19 37 -26 45 -36 40 -5 -4 -3 -18 5 -33 30 -57 116 -113 142 -91 25 21 16 48 -26 74 -23 14 -45 37 -50 50 -10 27 -13 29 -23 18z" id="ByZNgFYfMiuM"/>
        <path d="M2924 1994 c-15 -49 -58 -124 -86 -153 -17 -17 -27 -31 -23 -31 4 0 2 -7 -5 -15 -11 -13 -7 -21 23 -51 32 -32 74 -106 91 -158 5 -14 10 -16 18 -8 20 20 -40 132 -105 196 -19 19 -19 19 0 35 57 47 125 173 105 193 -8 8 -13 6 -18 -8z" id="HyfElKYzMidM"/>
        <path d="M876 1882 c-8 -13 52 -94 64 -87 6 4 -2 22 -17 43 -39 54 -40 55 -47 44z" id="ByXEgttzzj_f"/>
        <path d="M3325 1835 c-31 -37 -45 -62 -43 -77 5 -36 38 -35 70 3 l27 34 1 -682 0 -683 -530 0 -529 0 -3 90 c-4 115 -22 123 -26 11 -2 -62 1 -89 13 -107 l15 -24 530 0 529 0 15 22 c14 20 16 103 16 706 0 626 -1 683 -17 689 -11 4 -25 -4 -44 -25 -16 -18 -31 -32 -34 -32 -14 0 -1 27 35 70 22 27 36 51 31 54 -5 3 -30 -19 -56 -49z" id="rJNNlYFzMoOf"/>
        <path d="M1355 1800 c-3 -5 -11 -7 -18 -4 -19 7 -91 -49 -115 -90 -29 -49 -9 -56 23 -7 27 43 93 84 135 84 34 0 106 -38 124 -66 21 -31 31 -77 17 -77 -6 0 -11 7 -11 15 0 19 -75 95 -94 95 -31 0 -25 -20 9 -34 27 -12 40 -26 55 -61 18 -41 23 -46 47 -43 39 4 42 44 9 97 -27 42 -100 96 -116 86 -5 -3 -11 -1 -15 5 -8 13 -42 13 -50 0z" id="Byr4gFKMGsdf"/>
        <path d="M887 1727 c-41 -62 -73 -147 -64 -171 9 -24 27 -11 27 20 0 25 47 133 75 171 10 12 12 24 7 27 -6 3 -26 -18 -45 -47z" id="H1IVxYYMzjdz"/>
        <path d="M2878 1775 c-4 -4 8 -26 27 -49 18 -22 34 -45 35 -51 1 -5 7 -21 12 -35 6 -14 12 -38 13 -53 2 -16 8 -34 14 -40 17 -17 24 15 10 49 -7 16 -13 37 -14 46 -1 10 -9 26 -18 36 -10 10 -15 21 -12 24 3 2 -10 22 -27 42 -18 21 -36 35 -40 31z" id="rkPNlFFMzsOG"/>
        <path d="M3426 1753 c-3 -3 -6 -312 -6 -685 0 -584 -2 -678 -14 -678 -22 0 -30 -19 -11 -26 9 -4 24 1 35 11 20 18 20 35 20 696 0 373 -4 680 -9 683 -4 3 -11 3 -15 -1z" id="rJ_VlFYfMjOf"/>
        <path d="M1295 1719 c-19 -17 -38 -42 -41 -55 -4 -13 -15 -24 -27 -26 -30 -4 -24 -22 8 -26 22 -3 28 3 45 43 15 35 28 49 55 61 20 8 33 19 30 24 -11 18 -34 11 -70 -21z" id="S1K4eYtzGs_M"/>
        <path d="M929 1712 c-21 -25 -50 -80 -48 -89 1 -4 -3 -21 -10 -37 -6 -16 -11 -36 -10 -45 1 -9 -1 -23 -5 -33 -10 -23 22 -146 52 -193 32 -52 83 -106 94 -99 5 3 -9 26 -31 51 -22 24 -47 63 -55 86 -25 66 -45 164 -35 174 4 4 10 24 12 43 2 20 17 61 34 93 30 55 31 85 2 49z" id="BJ9EgtKfzjuf"/>
        <path d="M2271 1647 c-13 -16 -5 -28 15 -20 8 3 14 1 14 -4 0 -16 60 -74 70 -68 10 6 -66 105 -80 105 -4 0 -13 -6 -19 -13z" id="ryj4lKYGzoOG"/>
        <path d="M2469 1625 c-12 -20 -35 -43 -51 -51 -16 -8 -26 -19 -23 -23 10 -16 45 1 77 38 17 20 39 36 47 36 25 0 19 30 -6 33 -17 3 -28 -6 -44 -33z" id="rk24gYKffsOG"/>
        <path d="M2690 1645 c-17 -20 -9 -48 20 -62 13 -6 32 -22 41 -34 11 -15 18 -18 23 -10 5 7 -7 26 -29 47 -41 38 -40 55 2 33 28 -15 68 -73 67 -99 -1 -37 -68 -120 -98 -120 -17 0 -2 27 32 56 28 25 34 35 25 44 -8 9 -14 7 -22 -9 -7 -11 -25 -28 -42 -36 -24 -13 -30 -22 -27 -43 2 -22 8 -27 33 -28 23 -1 40 10 73 44 24 24 41 50 38 57 -2 7 1 18 7 24 8 8 8 14 0 22 -6 6 -9 17 -6 25 6 17 -81 104 -106 104 -10 0 -24 -7 -31 -15z" id="Sy6NltFGfj_M"/>
        <path d="M2265 1600 c-17 -28 85 -110 135 -110 33 0 75 26 109 67 45 54 27 61 -24 8 -38 -39 -50 -45 -85 -45 -35 0 -47 6 -85 44 -24 25 -47 41 -50 36z" id="BkAEgttzGjuz"/>
        <path d="M2935 1528 c-9 -22 -2 -68 10 -71 14 -3 19 63 6 76 -7 7 -12 5 -16 -5z" id="B11HgtKMGo_M"/>
        <path d="M1190 1425 c-18 -18 -29 -38 -26 -44 5 -7 21 3 43 26 24 26 37 34 41 25 2 -8 -8 -26 -22 -41 -32 -34 -32 -41 -1 -75 30 -32 32 -46 6 -39 -10 2 -28 22 -40 44 -25 43 -46 44 -30 1 14 -35 27 -50 61 -68 54 -28 79 22 33 66 -31 29 -31 41 0 70 33 31 29 62 -6 66 -19 2 -36 -7 -59 -31z" id="r1xSeYKzfiuz"/>
        <path d="M823 1434 c-6 -17 20 -102 45 -144 39 -63 151 -161 194 -169 35 -6 89 -32 92 -43 2 -7 7 -21 10 -31 3 -9 6 -21 7 -25 1 -4 10 -25 21 -46 41 -80 164 -179 235 -188 39 -5 26 17 -19 32 -24 8 -61 25 -81 38 -36 23 -107 100 -107 118 0 5 -9 20 -19 33 -10 13 -16 32 -14 41 7 26 -46 80 -83 83 -39 4 -97 39 -152 91 -46 43 -102 148 -102 190 0 30 -18 44 -27 20z" id="SyZBetFMzoOz"/>
        <path d="M2970 1425 c-7 -19 -7 -32 -1 -38 7 -7 14 -1 22 17 9 20 10 29 1 38 -8 8 -14 4 -22 -17z" id="ByfrlYYGfjuz"/>
        <path d="M2924 1416 c-4 -9 -4 -20 0 -23 3 -4 -1 -15 -11 -25 -9 -10 -13 -18 -9 -18 14 0 -55 -89 -93 -119 -21 -17 -41 -31 -44 -31 -2 0 -21 -7 -42 -16 -27 -11 -35 -18 -27 -26 30 -30 207 106 216 166 1 8 7 20 13 27 6 8 11 16 12 19 0 3 3 13 7 23 4 10 2 23 -4 29 -8 8 -13 7 -18 -6z" id="S17SetKffouM"/>
        <path d="M1552 1378 c-21 -21 -13 -47 18 -63 16 -8 38 -25 49 -36 11 -13 21 -16 25 -10 7 11 -14 36 -54 64 -31 22 -16 36 18 16 36 -20 72 -75 72 -111 0 -40 -24 -82 -60 -108 -17 -12 -28 -26 -24 -31 17 -28 114 87 114 136 0 83 -115 186 -158 143z" id="B1EHlYKMzo_M"/>
        <path d="M2120 1349 c-7 -11 -8 -28 -4 -37 4 -9 8 -21 8 -27 7 -63 145 -179 192 -161 18 7 10 26 -12 26 -23 0 -87 36 -110 62 -32 36 -60 91 -56 111 6 29 21 19 32 -22 11 -40 93 -126 111 -116 4 3 10 1 14 -5 8 -13 91 -13 118 1 43 22 97 84 108 121 10 41 29 51 29 18 0 -26 -26 -78 -54 -108 -23 -26 -87 -62 -110 -62 -22 0 -30 -19 -12 -26 23 -9 96 28 133 68 40 43 75 111 71 139 -2 12 -11 27 -20 33 -23 14 -56 -16 -64 -61 -4 -22 -20 -45 -46 -67 -34 -29 -49 -35 -99 -38 -54 -3 -62 0 -98 30 -23 19 -45 48 -52 70 -21 68 -58 91 -79 51z" id="BkrBxFtMGjdM"/>
        <path d="M2936 1322 c-49 -97 -119 -156 -220 -186 -26 -8 -53 -20 -61 -26 -24 -20 -6 -30 28 -16 18 8 54 22 81 31 85 30 238 207 207 238 -6 6 -20 -11 -35 -41z" id="H1UBlFYMMouf"/>
        <path d="M1635 1240 c-3 -5 -3 -10 0 -10 4 0 -3 -13 -15 -30 -12 -16 -27 -30 -34 -30 -20 0 -48 -36 -44 -57 4 -24 22 -19 26 7 2 11 7 20 12 20 17 0 71 53 66 65 -2 7 0 17 6 23 6 6 6 12 0 16 -6 3 -13 2 -17 -4z" id="BkDBltYMMj_f"/>
        <path d="M1015 1210 c-6 -10 22 -30 68 -51 20 -9 30 -10 39 -1 8 8 4 14 -18 22 -16 6 -41 17 -56 25 -15 7 -30 9 -33 5z" id="B1OHxFYGfoOz"/>
        <path d="M1957 1174 c-12 -12 -8 -69 7 -89 8 -11 12 -24 9 -31 -7 -18 38 -97 49 -86 7 7 5 20 -5 39 -23 42 -29 63 -34 113 -5 46 -14 66 -26 54z" id="B1YBlYtfzjdz"/>
        <path d="M1165 1161 c-3 -5 0 -13 5 -16 6 -4 16 -18 21 -33 12 -31 35 -15 24 17 -7 24 -41 46 -50 32z" id="rk5SgFYzMjOM"/>
        <path d="M1835 1160 c-4 -6 -5 -27 -4 -48 2 -41 -34 -131 -76 -186 -34 -44 -94 -85 -154 -105 -52 -17 -67 -37 -25 -34 43 3 116 46 170 100 50 50 110 154 99 173 -3 5 -1 11 5 15 13 8 13 82 1 90 -5 3 -13 1 -16 -5z" id="BJjBgFFGMi_G"/>
        <path d="M2620 1155 c-11 -13 -27 -64 -34 -105 -4 -24 -51 -92 -87 -126 -31 -29 -71 -51 -123 -68 -14 -5 -16 -10 -8 -18 33 -33 212 110 227 182 1 3 9 22 18 44 9 21 17 46 17 56 0 10 9 20 21 23 12 3 18 10 14 16 -9 15 -30 14 -45 -4z" id="Hk3BxYKMfs_f"/>
        <path d="M2006 1143 c-12 -12 -6 -58 14 -101 24 -53 47 -48 25 5 -8 19 -15 48 -15 64 0 28 -12 44 -24 32z" id="BJTrettfGouG"/>
        <path d="M1789 1103 c-6 -15 -12 -37 -13 -48 -4 -30 -48 -96 -92 -135 -35 -32 -54 -42 -119 -65 -26 -9 -94 -9 -120 0 -51 18 -96 39 -106 51 -6 8 -16 11 -21 8 -25 -15 98 -91 129 -80 7 3 15 1 18 -4 4 -6 21 -10 40 -10 19 0 36 4 40 10 3 5 11 7 18 4 45 -17 210 120 222 186 1 3 9 22 18 44 20 45 21 53 7 61 -6 3 -15 -6 -21 -22z" id="BkCBgKFzMouG"/>
        <path d="M1205 1070 c-12 -20 68 -146 86 -134 5 3 0 17 -11 31 -11 15 -29 46 -40 70 -20 45 -25 50 -35 33z" id="Sk1IeFKMzsuf"/>
        <path d="M2619 1024 c-50 -112 -125 -183 -217 -206 -45 -11 -59 -22 -42 -33 16 -10 80 14 138 53 77 51 179 199 153 225 -6 6 -17 -8 -32 -39z" id="HklLgFKGMjOf"/>
        <path d="M2056 992 c-3 -6 4 -23 17 -38 31 -36 42 -18 12 20 -13 16 -25 24 -29 18z" id="By-IxKtzMoOz"/>
        <path d="M2056 912 c-11 -19 88 -94 155 -117 50 -18 81 -3 33 16 -77 30 -115 50 -147 79 -20 17 -38 27 -41 22z" id="SkMLgYKGModz"/>
        <path d="M2135 902 c-9 -10 18 -32 63 -52 70 -31 72 -8 2 27 -33 16 -62 27 -65 25z" id="HJ7IltFzMsOz"/>
        <path d="M2275 840 c-3 -5 0 -13 9 -16 21 -8 61 -1 61 11 0 14 -62 19 -70 5z" id="H148etFMGjuG"/>
        <path d="M1530 665 c-7 -8 -9 -15 -5 -15 4 0 2 -6 -4 -14 -8 -10 -9 -16 -1 -21 10 -6 11 -5 14 14 2 18 16 24 30 12 19 -16 32 4 16 24 -16 19 -34 19 -50 0z" id="H1SLeFYMfodM"/>
        <path d="M2270 665 c-7 -8 -9 -15 -5 -15 4 0 2 -7 -5 -15 -6 -8 -9 -19 -5 -25 9 -14 28 -1 21 15 -7 18 5 27 20 14 17 -14 29 8 14 26 -16 19 -24 19 -40 0z" id="SyULxYFfGs_G"/>
        <path d="M1566 603 c-3 -3 -6 -53 -6 -110 0 -56 -3 -103 -7 -103 -5 0 -255 -1 -558 -3 -358 -1 -550 -5 -550 -12 0 -7 193 -11 554 -12 501 -2 557 -1 573 14 15 13 18 33 18 119 0 94 -7 124 -24 107z" id="r1v8xFYGMsdf"/>
        <path d="M2265 390 c-8 -13 23 -33 41 -26 8 3 13 10 10 15 -8 12 -45 21 -51 11z" id="S1_IlKYMMidz"/>
        <path d="M2335 380 c-3 -6 0 -12 7 -15 26 -10 1023 0 1023 10 0 14 -1021 19 -1030 5z" id="ByFIgKtffoOf"/>
    </g>
    <g id="Sy5IgtKGfjuf">
        <path d="M1902 3697 c-6 -6 -12 -28 -14 -47 l-3 -35 -55 0 -55 0 -5 40 c-4 32 -9 40 -25 40 -16 0 -21 -8 -23 -42 l-3 -43 -49 0 c-62 0 -90 -30 -90 -96 l0 -44 -54 0 c-58 0 -76 -11 -55 -36 9 -11 26 -15 58 -12 l46 3 0 -60 0 -60 -55 -5 c-39 -4 -55 -9 -55 -19 0 -10 11 -15 30 -16 90 -3 85 1 85 -60 l0 -55 -54 0 c-60 0 -73 -9 -56 -40 9 -16 19 -19 58 -17 l47 2 6 -54 c4 -29 12 -58 19 -65 6 -6 34 -11 63 -11 l52 0 3 -35 c2 -19 7 -39 12 -44 13 -13 40 12 40 38 0 31 19 46 55 46 42 0 70 -21 63 -48 -8 -29 16 -49 37 -32 10 8 12 17 6 24 -6 7 -4 19 8 34 14 19 25 23 57 20 37 -3 39 -5 42 -38 2 -19 7 -39 12 -44 13 -14 40 13 40 39 0 35 24 49 74 42 55 -8 66 4 66 69 0 50 1 53 30 59 17 4 43 4 58 0 32 -7 58 15 48 40 -4 11 -22 15 -71 15 l-66 0 3 53 3 52 40 3 c22 2 45 8 52 14 9 7 17 7 27 -1 11 -9 16 -9 22 0 12 19 -24 38 -61 32 -19 -3 -46 -2 -60 1 -24 6 -26 10 -23 59 l3 52 62 3 c39 2 66 8 74 18 19 23 0 33 -71 36 l-65 3 -3 51 c-4 64 -21 82 -87 86 l-50 3 -5 40 c-4 32 -9 40 -25 40 -16 0 -21 -8 -23 -42 l-3 -43 -48 0 c-57 0 -75 16 -69 60 5 34 -4 47 -20 27z m241 -146 l37 -1 0 -270 0 -270 -270 0 -270 0 -1 58 c0 70 0 382 0 439 l1 42 43 3 c37 3 360 2 460 -1z" id="SkjLxtKGzjOG"/>
        <path d="M399 3302 c-18 -13 -19 -41 -19 -690 0 -409 -4 -691 -10 -712 -5 -19 -28 -53 -49 -75 -22 -22 -40 -48 -41 -57 0 -32 23 -32 51 0 32 36 77 46 60 13 -16 -29 -16 -1378 0 -1397 10 -12 102 -14 581 -14 373 0 576 4 589 10 17 10 19 22 19 141 0 108 -3 131 -16 136 -29 11 -38 -14 -35 -105 1 -49 -1 -101 -4 -115 l-7 -27 -532 0 c-400 0 -535 3 -544 12 -9 9 -12 177 -12 695 0 376 3 683 7 683 4 0 21 -14 39 -31 31 -30 32 -31 43 -11 8 15 8 23 1 27 -6 4 -29 29 -50 57 l-40 50 0 684 0 684 420 0 c373 0 421 2 427 16 3 8 1 20 -4 25 -6 6 -179 10 -433 12 -335 2 -427 -1 -441 -11z m11 -1452 c-18 -11 -24 -6 -16 16 5 14 9 15 19 5 9 -9 9 -14 -3 -21z" id="SJ3UlYtGfsuf"/>
        <path d="M2568 3303 c-6 -7 -8 -20 -4 -28 5 -13 59 -15 416 -15 l410 0 0 -682 -1 -683 -49 -60 c-55 -65 -58 -73 -34 -82 10 -4 25 4 40 21 14 14 29 26 34 26 6 0 10 -254 10 -685 0 -666 -1 -685 -19 -695 -27 -14 -1015 -14 -1042 0 -17 10 -19 22 -19 125 0 112 -8 141 -33 116 -13 -13 -10 -197 4 -223 7 -14 7 -23 -1 -33 -7 -8 -9 -19 -5 -25 4 -7 190 -10 574 -10 470 0 571 2 580 14 8 10 11 202 11 712 -1 446 3 700 9 702 5 2 17 -8 27 -22 18 -29 42 -34 50 -11 4 9 -12 36 -40 69 l-46 54 0 700 c0 577 -2 702 -14 711 -20 17 -844 20 -858 4z m861 -1437 c9 -11 6 -13 -14 -13 -20 0 -23 2 -14 13 6 8 13 14 14 14 1 0 8 -6 14 -14z" id="HyTUxFFfMidz"/>
        <path d="M1354 2751 c-86 -50 -184 -177 -184 -239 0 -24 -31 -52 -57 -52 -40 0 -118 -43 -168 -94 -46 -46 -71 -86 -104 -169 -14 -35 -15 -214 -1 -222 6 -3 10 -13 10 -21 0 -26 37 -98 64 -123 32 -30 33 -48 2 -80 -29 -32 -66 -100 -66 -123 0 -9 -4 -20 -10 -23 -17 -10 -12 -180 7 -238 37 -118 176 -247 265 -247 28 0 58 -28 58 -54 0 -56 93 -182 170 -231 80 -50 204 -56 299 -14 51 22 133 97 159 144 54 99 52 74 52 825 0 644 -1 699 -18 745 -28 78 -47 107 -100 157 -79 74 -115 88 -229 88 -90 0 -102 -3 -149 -29z m278 -43 c46 -25 73 -48 105 -92 24 -32 43 -64 43 -71 0 -7 7 -29 15 -49 13 -31 15 -130 15 -705 0 -368 -2 -677 -6 -687 -36 -111 -83 -176 -169 -233 -36 -23 -50 -26 -130 -26 -88 0 -91 1 -150 40 -66 44 -118 113 -136 178 -21 81 -30 91 -87 99 -60 9 -111 39 -163 94 -45 50 -65 81 -73 122 -4 17 -12 34 -17 37 -15 10 -10 136 8 185 22 58 57 116 95 156 l30 32 -30 33 c-39 46 -75 105 -95 159 -18 49 -23 175 -8 185 5 3 13 20 17 37 21 97 163 218 255 218 31 0 59 31 59 66 0 30 55 135 87 166 15 15 53 40 83 57 45 25 67 30 122 30 58 1 77 -4 130 -31z" id="SkA8eKtzzs_f"/>
        <path d="M1461 2474 c-31 -26 -40 -57 -20 -70 6 -3 23 6 38 20 34 33 61 33 91 1 18 -19 26 -22 37 -14 20 18 16 35 -18 63 -19 17 -43 26 -64 26 -21 0 -45 -9 -64 -26z" id="ByJDgFYzzi_z"/>
        <path d="M1129 2175 c-42 -27 -73 -71 -65 -91 9 -23 30 -16 63 21 45 50 90 49 131 -2 29 -36 32 -37 48 -21 17 17 17 19 -2 45 -29 39 -82 73 -113 72 -14 0 -42 -11 -62 -24z" id="BylvxFYGGs_z"/>
        <path d="M1579 2167 c-56 -38 -82 -84 -76 -140 5 -59 30 -95 85 -124 41 -21 42 -22 52 -3 14 26 14 26 -29 51 -65 36 -79 96 -35 148 14 17 32 31 39 31 7 0 18 7 25 15 10 12 10 18 0 30 -16 20 -21 19 -61 -8z" id="SkWPlKYGGj_M"/>
        <path d="M1305 1771 c-63 -38 -111 -119 -87 -143 13 -13 52 16 52 37 0 6 14 24 30 40 25 24 39 29 80 29 41 0 55 -5 80 -29 16 -16 30 -36 30 -46 0 -9 7 -22 16 -29 21 -19 49 9 39 40 -9 30 -62 88 -96 106 -39 20 -108 18 -144 -5z" id="H1GPlFFMGjdz"/>
        <path d="M1196 1420 c-36 -43 -35 -94 1 -132 28 -29 57 -36 69 -17 3 6 -6 23 -20 38 -33 34 -33 57 0 88 29 26 28 46 -3 51 -13 2 -30 -8 -47 -28z" id="SJ7wltKfzjuM"/>
        <path d="M1555 1360 c-8 -13 13 -40 30 -40 22 0 55 -50 55 -83 0 -23 -11 -40 -46 -73 -48 -43 -51 -64 -10 -64 30 0 101 76 111 118 12 57 -56 152 -111 152 -12 0 -26 -5 -29 -10z" id="HkNDgFYGGo_f"/>
        <path d="M2174 2756 c-115 -66 -178 -150 -203 -274 -15 -72 -15 -1311 0 -1384 30 -152 138 -268 279 -300 58 -13 72 -13 130 2 36 9 79 23 95 32 51 28 155 149 155 182 0 8 5 18 11 21 6 4 8 14 4 23 -8 20 33 62 60 62 86 0 246 144 260 235 1 6 6 19 11 30 12 26 12 194 0 220 -5 11 -10 25 -10 30 -3 23 -36 83 -65 119 l-31 39 31 35 c29 32 61 92 65 117 0 6 5 19 10 30 14 31 11 209 -3 227 -7 8 -10 17 -7 20 7 7 -52 105 -85 141 -33 36 -141 97 -172 97 -13 0 -29 4 -35 8 -13 9 -28 43 -25 59 1 6 -3 14 -9 18 -5 3 -10 12 -10 20 0 23 -58 101 -103 140 -74 64 -105 75 -214 75 -84 0 -104 -4 -139 -24z m255 -42 c60 -30 124 -92 146 -143 9 -20 20 -44 25 -53 6 -10 10 -26 10 -36 0 -31 29 -62 59 -62 78 0 199 -93 243 -187 19 -40 23 -64 23 -148 0 -115 -15 -160 -75 -235 -55 -68 -54 -66 -11 -109 67 -67 85 -118 85 -246 0 -103 -2 -113 -29 -164 -52 -93 -161 -171 -239 -171 -39 0 -56 -20 -56 -64 0 -14 -5 -28 -11 -31 -5 -4 -8 -12 -6 -18 9 -27 -77 -130 -144 -173 -40 -26 -52 -29 -134 -29 -86 0 -92 1 -146 36 -52 34 -119 105 -119 126 0 6 -8 25 -17 44 -17 31 -18 87 -18 734 0 791 -3 758 79 850 93 102 227 134 335 79z" id="S1SweYFMfj_f"/>
        <path d="M2255 2454 c-16 -8 -42 -27 -57 -41 -32 -31 -71 -110 -64 -129 8 -20 46 -17 52 4 19 58 32 77 67 103 78 57 191 30 231 -56 11 -22 22 -33 29 -28 8 5 8 2 -1 -9 -10 -12 -10 -18 2 -27 21 -18 40 12 32 51 -8 41 -66 111 -110 132 -44 21 -141 21 -181 0z" id="By8PgtKMMiuf"/>
        <path d="M2602 2143 c-30 -6 -102 -79 -102 -104 0 -32 22 -33 49 -3 15 16 39 37 55 47 27 18 29 18 62 1 19 -10 37 -27 40 -36 8 -26 43 -43 57 -29 8 8 7 20 -7 45 -31 59 -94 91 -154 79z" id="ByvPeKFzMo_G"/>
        <path d="M2217 2040 c-33 -26 -67 -81 -67 -110 0 -35 41 -98 78 -120 63 -38 71 1 12 60 -22 22 -40 49 -40 60 0 11 21 40 46 64 25 25 43 49 39 55 -10 17 -40 13 -68 -9z" id="BJdPeKtzMo_G"/>
        <path d="M2277 1644 c-40 -40 72 -157 135 -140 67 17 138 100 111 127 -16 16 -42 4 -53 -26 -10 -26 -45 -45 -82 -45 -11 0 -39 20 -62 45 -23 26 -45 43 -49 39z" id="ByFDxtFfzjdf"/>
        <path d="M2707 1643 c-15 -14 -6 -41 18 -57 54 -35 57 -104 5 -131 -32 -17 -46 -53 -23 -62 42 -16 113 66 113 130 0 35 -6 46 -45 84 -45 43 -56 49 -68 36z" id="Sy5PlKFzGs_G"/>
        <path d="M2129 1337 c-12 -27 2 -63 48 -124 29 -38 118 -83 163 -83 83 0 167 56 210 139 23 47 25 64 7 80 -18 14 -42 -11 -59 -64 -19 -59 -80 -98 -152 -98 -78 0 -129 37 -165 119 -24 53 -38 61 -52 31z" id="r1iPlttMGidM"/>
    </g>
    <g id="SknDxKYzfjOz">
        <path d="M1716 3718 c-9 -12 -16 -37 -16 -55 l0 -33 -54 0 c-67 0 -86 -20 -86 -92 l0 -48 -53 0 c-42 0 -58 -5 -73 -21 -17 -19 -17 -23 -3 -47 13 -24 22 -27 72 -30 53 -3 57 -5 57 -27 0 -23 -4 -25 -48 -25 -39 0 -53 -5 -72 -25 -19 -20 -22 -30 -14 -43 18 -28 56 -43 97 -38 36 4 37 4 37 -30 l0 -34 -53 0 c-40 0 -58 -5 -70 -18 -39 -43 -2 -82 75 -82 l48 0 0 -50 c0 -68 22 -90 90 -90 46 0 50 -2 50 -24 0 -13 9 -34 19 -47 19 -23 21 -23 48 -9 20 11 29 25 31 48 3 26 8 32 26 32 18 0 25 -7 29 -30 4 -16 17 -36 31 -45 34 -22 63 -6 72 40 5 30 10 35 35 35 24 0 29 -4 29 -24 0 -13 9 -34 19 -47 19 -23 21 -23 48 -9 20 11 29 25 31 48 3 31 5 32 51 32 64 0 91 28 91 93 l0 47 58 0 c63 0 92 18 92 56 0 34 -21 44 -88 44 l-63 0 3 33 c3 32 3 32 59 32 82 0 110 31 73 83 -13 19 -24 22 -75 22 -56 0 -59 1 -59 25 0 24 3 25 58 25 64 0 92 18 92 58 0 29 -29 42 -94 42 l-56 0 0 53 c0 69 -18 87 -88 87 l-51 0 -3 42 c-2 35 -8 45 -31 58 -27 14 -29 14 -48 -9 -10 -13 -19 -38 -19 -57 0 -31 -3 -34 -30 -34 -25 0 -30 4 -30 25 0 35 -27 85 -46 85 -26 0 -64 -47 -64 -80 0 -25 -4 -30 -25 -30 -22 0 -25 4 -25 39 0 30 -6 44 -22 55 -30 22 -44 20 -62 -6z m49 -58 c-9 -42 8 -60 59 -60 51 0 66 13 66 57 0 23 5 33 15 33 10 0 15 -10 15 -34 0 -45 18 -58 77 -54 l48 3 3 43 c3 34 7 42 23 42 17 0 20 -6 18 -33 -4 -48 6 -57 66 -57 60 0 65 -6 65 -74 0 -23 5 -47 12 -54 7 -7 39 -12 75 -12 49 0 63 -3 63 -15 0 -11 -13 -15 -53 -15 -71 0 -97 -19 -97 -70 0 -47 9 -54 84 -60 80 -7 89 -30 11 -30 -79 0 -95 -11 -95 -63 0 -24 5 -48 12 -55 7 -7 39 -12 76 -12 55 0 63 -2 60 -17 -3 -14 -15 -19 -63 -21 -33 -2 -65 -8 -72 -13 -6 -6 -13 -34 -15 -62 l-3 -52 -50 -3 c-58 -4 -73 -14 -77 -50 -4 -39 -38 -43 -38 -5 0 40 -17 53 -66 53 -46 0 -54 -7 -64 -54 -7 -38 -24 -37 -28 1 -5 41 -20 53 -62 53 -41 0 -65 -20 -65 -54 0 -11 -8 -22 -17 -24 -13 -2 -17 5 -20 35 l-3 38 -55 3 c-65 3 -80 18 -80 78 0 50 -8 57 -69 58 -34 1 -46 5 -49 18 -3 14 6 17 55 20 l58 3 0 60 0 60 -58 3 c-71 4 -75 26 -5 28 25 0 50 4 56 8 16 9 15 99 0 114 -7 7 -34 12 -60 12 -35 0 -48 4 -48 15 0 10 15 15 58 17 l57 3 5 57 c3 31 9 60 13 65 5 4 34 10 65 13 l57 5 3 43 c3 34 7 42 23 42 18 0 20 -4 14 -30z" id="rkaDeKtGGsOM"/>
        <path d="M1680 3560 l-45 -5 -3 -266 c-2 -217 0 -268 12 -278 9 -8 89 -11 277 -9 l264 3 3 269 c1 152 -2 274 -7 279 -9 9 -425 15 -501 7z m448 -278 l2 -222 -222 2 -223 3 -3 210 c-1 115 0 215 3 222 3 11 51 13 222 11 l218 -3 3 -223z" id="ByAPxKYfzjdf"/>
        <path d="M366 3318 c-14 -20 -16 -105 -16 -721 l0 -699 -44 -52 c-73 -84 -69 -133 9 -124 l35 4 0 -672 0 -672 31 -26 31 -26 574 2 573 3 23 23 c21 21 23 33 26 150 4 143 -4 178 -43 188 -48 12 -60 -13 -63 -136 l-4 -110 -521 2 -522 3 -3 643 c-1 353 0 642 3 642 3 0 16 -7 28 -15 18 -12 27 -12 47 -2 14 7 26 20 28 30 2 9 -22 49 -52 89 l-56 71 0 664 0 663 415 0 c400 0 416 1 435 20 19 19 18 40 -3 68 -7 9 -112 12 -463 12 l-453 0 -15 -22z m909 -19 c4 -6 4 -13 0 -17 -4 -4 -196 -9 -428 -12 l-422 -5 -3 -686 -2 -687 45 -50 c25 -27 45 -59 45 -71 0 -29 -11 -26 -41 10 -15 19 -31 29 -37 25 -19 -11 -17 -1370 1 -1385 10 -7 173 -11 548 -11 494 -1 535 1 546 17 9 11 13 54 13 125 0 90 3 108 15 108 13 0 15 -20 13 -137 l-3 -138 -583 -3 -582 -2 -10 26 c-7 17 -10 275 -10 702 1 585 -1 677 -14 690 -13 14 -16 12 -27 -11 -14 -31 -38 -42 -45 -22 -3 8 13 36 38 65 l43 50 5 705 c4 613 7 707 20 715 22 14 867 13 875 -1z" id="BJy_lKKffs_f"/>
        <path d="M2536 3318 c-22 -30 -20 -44 6 -62 19 -14 76 -16 420 -16 l398 0 0 -659 c0 -382 -4 -669 -9 -683 -5 -13 -26 -41 -46 -63 -41 -45 -53 -79 -35 -100 15 -18 61 -20 78 -3 9 9 12 -132 12 -635 l0 -647 -509 0 -509 0 -1 107 c-1 59 -6 112 -12 119 -21 26 -50 27 -75 3 -23 -22 -24 -28 -24 -155 0 -126 1 -134 24 -161 l24 -28 570 0 570 0 26 24 26 24 0 671 0 671 42 0 c42 0 43 1 46 35 2 20 -2 38 -10 45 -7 5 -28 27 -45 48 l-33 38 0 703 0 703 -23 21 c-23 22 -25 22 -460 22 l-436 0 -15 -22z m883 -22 c8 -10 11 -203 11 -705 l-1 -693 36 -47 c19 -27 42 -54 50 -61 17 -14 20 -40 4 -40 -6 0 -24 14 -40 32 -20 21 -33 28 -40 21 -7 -7 -11 -255 -12 -714 l-2 -704 -572 -3 -572 -2 -3 122 c-3 129 -1 148 13 148 5 0 9 -49 9 -108 0 -71 4 -112 12 -120 17 -17 1059 -17 1076 0 14 14 18 1383 3 1392 -10 7 -61 -38 -61 -54 0 -5 -7 -10 -15 -10 -28 0 -15 31 35 88 l50 56 -2 686 -3 685 -412 3 c-405 2 -413 3 -413 22 0 20 7 20 419 20 342 0 421 -3 430 -14z" id="r1lulYtMzouG"/>
        <path d="M1400 2801 c-25 -9 -66 -31 -92 -49 -47 -32 -118 -110 -118 -129 0 -6 -7 -16 -15 -23 -8 -7 -15 -21 -15 -30 0 -40 -32 -77 -78 -89 -79 -21 -186 -106 -215 -171 -4 -8 -17 -30 -28 -49 -21 -36 -42 -123 -42 -176 1 -51 19 -145 31 -157 7 -7 12 -18 12 -24 0 -7 14 -33 30 -57 37 -56 37 -70 0 -117 -16 -21 -30 -44 -30 -52 0 -8 -5 -19 -12 -26 -12 -12 -30 -106 -31 -157 0 -53 21 -140 42 -176 11 -19 25 -44 31 -56 5 -12 31 -44 58 -70 46 -46 67 -58 159 -101 46 -21 72 -49 73 -78 0 -12 7 -27 15 -34 8 -7 15 -19 15 -27 0 -7 30 -44 68 -81 50 -50 82 -73 125 -90 70 -26 177 -30 221 -7 15 8 32 15 38 15 17 0 115 80 149 122 44 55 63 97 83 179 14 56 16 154 16 700 0 413 -4 648 -11 674 -6 22 -13 53 -16 70 -7 34 -55 117 -92 159 -33 36 -113 87 -171 109 -56 21 -140 20 -200 -2z m248 -55 c64 -33 126 -98 160 -165 l27 -56 0 -735 0 -735 -28 -56 c-32 -67 -101 -137 -165 -170 -62 -31 -171 -38 -239 -15 -98 33 -188 125 -215 221 -11 39 -43 85 -59 85 -31 0 -130 50 -167 84 -94 86 -125 166 -120 309 3 88 7 109 31 157 16 30 39 66 53 81 13 14 24 28 24 31 0 3 -17 32 -39 64 -62 95 -73 135 -68 250 4 107 15 144 64 215 51 73 149 139 208 139 23 0 65 45 65 70 0 6 11 35 24 63 41 89 136 169 226 188 60 13 167 1 218 -25z" id="HJbOltFMfo_G"/>
        <path d="M1400 2731 c-83 -30 -200 -179 -200 -254 0 -28 -18 -47 -43 -47 -40 0 -121 -36 -162 -73 -62 -54 -100 -117 -120 -198 -15 -60 -16 -79 -5 -132 14 -73 45 -137 94 -196 l36 -43 -35 -39 c-46 -52 -81 -122 -95 -197 -22 -112 24 -239 118 -323 47 -42 125 -79 168 -79 26 0 44 -18 44 -47 0 -38 50 -131 95 -178 68 -69 116 -90 210 -90 92 0 133 17 202 84 49 47 70 83 95 161 16 50 18 111 18 710 0 599 -2 660 -18 710 -36 111 -86 174 -177 219 -70 36 -149 40 -225 12z m170 -246 c28 -15 50 -58 36 -72 -3 -4 -19 6 -34 20 -35 34 -62 34 -92 2 -30 -32 -40 -32 -40 0 0 18 10 31 33 45 39 24 59 25 97 5z m-317 -313 c15 -10 34 -27 42 -38 19 -25 19 -64 0 -64 -8 0 -15 4 -15 9 0 5 -12 23 -26 40 -20 24 -34 31 -60 31 -33 0 -49 -11 -92 -64 -7 -9 -17 -14 -23 -11 -18 12 -8 38 30 76 32 32 46 39 77 39 22 0 51 -8 67 -18z m387 -7 c0 -9 -10 -19 -22 -24 -43 -17 -73 -59 -73 -103 0 -33 7 -46 36 -73 20 -18 42 -34 49 -37 8 -2 11 -11 7 -22 -6 -16 -10 -16 -49 6 -74 41 -101 124 -64 196 27 53 116 96 116 57z m-175 -406 c36 -22 75 -78 75 -110 0 -32 -27 -22 -47 18 -25 50 -65 78 -113 78 -48 0 -88 -28 -113 -78 -20 -40 -47 -50 -47 -18 0 29 37 87 67 106 59 39 116 40 178 4z m-205 -334 c0 -8 -11 -22 -25 -31 -32 -21 -32 -44 1 -79 14 -15 23 -34 20 -42 -5 -12 -10 -12 -35 1 -33 18 -41 34 -41 84 0 23 8 44 22 59 24 26 58 31 58 8z m370 -81 c36 -31 60 -73 60 -108 0 -53 -63 -126 -110 -126 -28 0 -25 28 4 40 32 12 66 57 66 87 0 35 -15 58 -55 83 -19 12 -35 28 -35 36 0 22 36 16 70 -12z" id="HkzOxFYMzidM"/>
        <path d="M2210 2801 c-108 -39 -224 -157 -244 -249 -4 -17 -12 -34 -17 -37 -5 -4 -9 -297 -9 -725 0 -428 4 -721 9 -725 5 -3 13 -20 17 -37 18 -85 104 -178 224 -247 40 -22 181 -27 221 -7 17 9 36 16 41 16 11 0 63 36 102 70 49 43 116 156 116 195 0 19 5 25 21 25 18 0 49 13 99 41 8 5 24 13 35 19 45 21 117 105 147 170 9 19 22 48 29 64 18 38 19 220 1 238 -6 6 -12 21 -12 33 0 11 -18 48 -40 83 l-40 63 22 32 c34 48 58 95 58 115 0 10 6 24 12 30 18 18 17 200 -1 238 -7 16 -20 45 -29 64 -42 92 -148 185 -244 215 -50 15 -58 21 -58 42 0 37 -58 131 -115 189 -89 90 -233 126 -345 85z m243 -52 c23 -12 59 -38 80 -58 44 -41 107 -147 107 -179 0 -23 44 -62 70 -62 36 0 115 -44 160 -89 72 -72 110 -168 110 -277 0 -100 -44 -221 -94 -264 -21 -17 -20 -39 3 -64 28 -30 61 -94 77 -146 17 -55 18 -171 2 -219 -39 -121 -118 -215 -205 -246 -81 -28 -118 -49 -121 -70 -14 -91 -98 -199 -192 -247 -54 -27 -169 -36 -227 -18 -112 36 -199 133 -242 271 -15 50 -15 1368 0 1418 43 139 145 248 253 271 62 14 171 3 219 -21z" id="HJm_xKKzGsdf"/>
        <path d="M2195 2719 c-79 -40 -116 -77 -157 -158 l-33 -66 0 -700 c0 -669 1 -702 19 -750 30 -77 97 -150 172 -186 58 -29 70 -31 131 -26 76 6 130 29 184 80 59 55 84 102 114 215 5 17 14 22 38 23 86 1 204 88 253 185 27 53 29 66 29 163 0 101 -2 109 -33 166 -19 33 -47 74 -64 91 l-30 32 30 33 c16 19 45 61 63 94 33 58 34 64 34 165 -1 123 -17 170 -87 246 -46 51 -147 104 -196 104 -27 0 -30 5 -47 63 -18 61 -68 148 -103 180 -10 9 -45 30 -77 47 -83 42 -157 42 -240 -1z m209 -261 c68 -21 158 -132 142 -175 -9 -23 -33 -14 -39 15 -16 74 -89 132 -167 132 -68 0 -141 -59 -160 -129 -3 -14 -14 -27 -23 -29 -39 -8 -4 89 50 140 56 53 122 68 197 46z m306 -346 c33 -25 55 -65 47 -85 -9 -23 -34 -11 -41 19 -6 23 -51 54 -80 54 -30 0 -66 -24 -86 -57 -21 -35 -40 -36 -40 -3 0 26 55 88 83 93 37 8 90 -1 117 -21z m-426 -71 c3 -5 -12 -20 -34 -35 -65 -43 -66 -111 -3 -151 31 -19 45 -55 22 -55 -25 0 -78 42 -93 74 -20 42 -20 69 -1 110 23 47 93 84 109 57z m65 -468 c13 -13 34 -23 47 -23 26 0 80 42 89 70 8 27 35 26 35 -1 0 -46 -69 -109 -120 -109 -49 0 -119 56 -120 96 0 32 13 38 30 12 8 -13 26 -33 39 -45z m424 33 c56 -55 56 -114 2 -172 -31 -32 -75 -46 -75 -24 0 6 18 28 40 49 22 21 40 47 40 59 0 25 -46 82 -66 82 -8 0 -14 9 -14 20 0 31 35 25 73 -14z m-595 -304 c8 -26 30 -56 59 -82 42 -37 50 -40 105 -40 87 0 149 46 173 130 12 41 45 55 45 18 0 -27 -33 -93 -64 -126 -69 -76 -209 -82 -290 -13 -42 36 -85 128 -70 152 11 18 28 3 42 -39z" id="H1VOgtYMzodz"/>
    </g>
</svg>