<svg version="1.1" xmlns="http://www.w3.org/2000/svg" width="426px" height="424px" viewBox="0 0 4260 4240" preserveAspectRatio="xMidYMid meet" id="BkXgJ9rGiuG" xmlns:xlink="http://www.w3.org/1999/xlink" xmlns:svgjs="http://svgjs.com/svgjs">
    <style type="text/css">
        @-webkit-keyframes Bk3bycSfs_G_Animation{36.67%{opacity: 1;transform-box: fill-box;-webkit-transform-origin: 50% 50%;transform-origin: 50% 50%;}78.89%{opacity: 0;transform-box: fill-box;-webkit-transform-origin: 50% 50%;transform-origin: 50% 50%;}0%{opacity: 1;transform-box: fill-box;-webkit-transform-origin: 50% 50%;transform-origin: 50% 50%;}100%{opacity: 0;transform-box: fill-box;-webkit-transform-origin: 50% 50%;transform-origin: 50% 50%;}}@keyframes Bk3bycSfs_G_Animation{36.67%{opacity: 1;transform-box: fill-box;-webkit-transform-origin: 50% 50%;transform-origin: 50% 50%;}78.89%{opacity: 0;transform-box: fill-box;-webkit-transform-origin: 50% 50%;transform-origin: 50% 50%;}0%{opacity: 1;transform-box: fill-box;-webkit-transform-origin: 50% 50%;transform-origin: 50% 50%;}100%{opacity: 0;transform-box: fill-box;-webkit-transform-origin: 50% 50%;transform-origin: 50% 50%;}}@-webkit-keyframes rylzkcrGoOM_Animation{5.56%{opacity: 0.5;transform-box: fill-box;-webkit-transform-origin: 50% 50%;transform-origin: 50% 50%;}13.33%{opacity: 0;transform-box: fill-box;-webkit-transform-origin: 50% 50%;transform-origin: 50% 50%;}45.56%{opacity: 0;transform-box: fill-box;-webkit-transform-origin: 50% 50%;transform-origin: 50% 50%;}0%{opacity: 0.5;transform-box: fill-box;-webkit-transform-origin: 50% 50%;transform-origin: 50% 50%;}100%{opacity: 0;transform-box: fill-box;-webkit-transform-origin: 50% 50%;transform-origin: 50% 50%;}}@keyframes rylzkcrGoOM_Animation{5.56%{opacity: 0.5;transform-box: fill-box;-webkit-transform-origin: 50% 50%;transform-origin: 50% 50%;}13.33%{opacity: 0;transform-box: fill-box;-webkit-transform-origin: 50% 50%;transform-origin: 50% 50%;}45.56%{opacity: 0;transform-box: fill-box;-webkit-transform-origin: 50% 50%;transform-origin: 50% 50%;}0%{opacity: 0.5;transform-box: fill-box;-webkit-transform-origin: 50% 50%;transform-origin: 50% 50%;}100%{opacity: 0;transform-box: fill-box;-webkit-transform-origin: 50% 50%;transform-origin: 50% 50%;}}@-webkit-keyframes BJOZ19rzs_M_Animation{6.67%{opacity: 0;transform-box: fill-box;-webkit-transform-origin: 50% 50%;transform-origin: 50% 50%;}100%{opacity: 1;transform-box: fill-box;-webkit-transform-origin: 50% 50%;transform-origin: 50% 50%;}0%{opacity: 0;transform-box: fill-box;-webkit-transform-origin: 50% 50%;transform-origin: 50% 50%;}}@keyframes BJOZ19rzs_M_Animation{6.67%{opacity: 0;transform-box: fill-box;-webkit-transform-origin: 50% 50%;transform-origin: 50% 50%;}100%{opacity: 1;transform-box: fill-box;-webkit-transform-origin: 50% 50%;transform-origin: 50% 50%;}0%{opacity: 0;transform-box: fill-box;-webkit-transform-origin: 50% 50%;transform-origin: 50% 50%;}}#BkXgJ9rGiuG *{-webkit-animation-duration: 3s;animation-duration: 3s;-webkit-animation-iteration-count: infinite;animation-iteration-count: infinite;-webkit-animation-timing-function: cubic-bezier(0, 0, 1, 1);animation-timing-function: cubic-bezier(0, 0, 1, 1);}#r1EgJ5Szsuz{fill: #007bff;stroke: none;}#H1DlJ9Sfj_f{fill: #da926e;stroke: none;}#HJHWkqrMouz{fill: #f7d871;stroke: none;}#HJPGJ5HfjuG{fill: #007bff;stroke: none;}#H13fJ9HGjuG{fill: #cfcdcc;stroke: none;}#BJOZ19rzs_M{-webkit-animation-name: BJOZ19rzs_M_Animation;animation-name: BJOZ19rzs_M_Animation;}#rylzkcrGoOM{-webkit-animation-name: rylzkcrGoOM_Animation;animation-name: rylzkcrGoOM_Animation;}#Bk3bycSfs_G{-webkit-animation-name: Bk3bycSfs_G_Animation;animation-name: Bk3bycSfs_G_Animation;}
    </style>
    <g id="r1EgJ5Szsuz" class="">
        <path d="M680 1861 c-65 -23 -87 -40 -122 -94 -28 -44 -31 -55 -30 -132 0 -69 4 -91 22 -121 28 -44 95 -94 126 -94 13 0 26 -4 29 -10 17 -28 158 5 208 49 57 51 70 86 70 182 -1 82 -3 91 -30 128 -40 54 -68 74 -130 94 -62 20 -83 20 -143 -2z" id="B1rx1qBMj_G"/>
        <path d="M2585 1871 c-55 -14 -105 -43 -134 -77 -44 -54 -79 -192 -52 -208 5 -3 12 -21 15 -40 10 -51 71 -107 140 -129 62 -18 131 -23 141 -8 3 5 18 12 35 16 48 10 104 75 125 144 17 59 17 63 0 127 -11 42 -29 80 -49 102 -50 57 -152 91 -221 73z" id="SJLgk9HGjOG"/>
    </g>
    <g id="H1DlJ9Sfj_f">
        <path d="M992 3433 c-20 -4 -23 -10 -20 -40 6 -68 70 -71 76 -3 3 29 -11 53 -28 48 -3 0 -15 -3 -28 -5z" id="BJ_lJ9HGs_M"/>
        <path d="M2934 3427 c-3 -8 -4 -30 -2 -49 3 -31 6 -33 38 -33 34 0 35 1 38 43 3 36 0 42 -17 42 -10 0 -26 3 -35 6 -9 4 -18 0 -22 -9z" id="BJKe19BGi_G"/>
        <path d="M1947 3423 c-9 -8 -9 -46 -1 -67 4 -10 18 -16 39 -16 35 0 41 8 44 63 1 25 -2 27 -37 27 -21 0 -42 -3 -45 -7z" id="Sy9eJ5Hfidf"/>
        <path d="M966 3118 c-9 -14 -15 -44 -14 -75 1 -29 -4 -59 -12 -67 -7 -9 -8 -16 -2 -16 23 0 44 52 38 96 -6 46 5 64 29 44 12 -10 15 -9 15 8 0 11 -7 23 -16 26 -22 8 -22 8 -38 -16z" id="SJsxJqHGoOM"/>
        <path d="M1118 3129 c-26 -15 -24 -43 1 -29 30 15 31 14 31 -44 0 -50 4 -59 41 -102 49 -57 59 -81 59 -143 0 -37 -5 -52 -22 -67 -49 -41 -99 -57 -113 -34 -9 14 -98 13 -113 -2 -17 -17 -89 10 -113 43 -28 40 -25 107 6 153 30 44 31 50 6 37 -27 -15 -51 -72 -51 -121 0 -54 30 -103 74 -124 41 -19 52 -20 111 -4 36 10 50 10 65 0 54 -33 145 13 169 85 18 55 -5 124 -59 181 -37 38 -40 45 -40 100 0 32 -5 63 -12 70 -14 14 -18 14 -40 1z" id="HyneJ9rGodG"/>
        <path d="M1942 3128 c-7 -7 -12 -38 -12 -69 0 -53 -3 -60 -39 -97 -93 -93 -94 -193 -4 -255 42 -29 82 -34 112 -15 15 9 28 9 59 0 53 -16 66 -15 116 8 53 24 75 65 69 130 -5 58 -19 86 -66 135 -36 37 -38 42 -32 83 5 32 2 50 -10 68 -33 50 -65 19 -65 -65 0 -69 18 -75 22 -6 4 71 22 76 26 6 3 -47 8 -59 45 -98 48 -52 67 -91 67 -142 -1 -45 -23 -73 -79 -100 -40 -19 -46 -19 -61 -6 -19 17 -95 20 -105 5 -9 -14 -37 -12 -72 5 -49 25 -65 49 -66 102 -1 56 17 93 68 146 34 35 37 41 33 90 -2 41 0 52 12 52 12 0 15 -15 17 -65 l2 -65 -50 -48 c-27 -27 -49 -58 -49 -69 0 -17 3 -18 15 -8 8 7 15 18 15 24 0 20 47 59 55 46 4 -6 0 -19 -9 -29 -21 -23 -20 -49 3 -94 12 -24 15 -37 7 -38 -25 -3 -42 4 -63 24 -29 26 -30 9 -3 -21 14 -14 33 -22 54 -22 39 0 50 17 30 45 -8 10 -14 38 -14 62 0 50 26 83 65 83 14 0 34 -9 45 -20 11 -11 25 -20 32 -20 9 0 9 3 0 12 -17 17 -15 27 6 21 27 -7 52 -55 52 -101 0 -42 -12 -59 -45 -62 -34 -4 -39 -1 -22 18 20 22 34 92 18 92 -6 0 -11 -8 -11 -18 0 -11 -7 -33 -16 -51 -20 -40 -12 -61 21 -61 38 0 62 16 73 50 19 52 -3 101 -72 161 -36 31 -39 32 -34 11 5 -19 3 -22 -10 -16 -9 4 -28 7 -42 8 -24 1 -25 3 -28 81 -2 61 -7 83 -19 93 -21 15 -26 15 -41 0z" id="SkalJcSGj_f"/>
        <path d="M2926 3124 c-11 -10 -16 -34 -16 -70 0 -49 -4 -59 -38 -97 -24 -26 -45 -64 -56 -100 -17 -55 -17 -58 1 -95 13 -25 35 -45 67 -61 43 -23 50 -24 94 -12 36 9 55 9 80 0 47 -16 97 -3 136 36 65 64 56 140 -26 232 -26 29 -38 53 -39 75 -3 78 -6 90 -19 98 -10 6 -22 4 -35 -4 -16 -11 -20 -25 -20 -72 0 -33 4 -72 8 -88 7 -25 6 -28 -6 -18 -9 8 -24 9 -48 2 -18 -6 -35 -10 -36 -10 -1 0 2 12 7 26 15 39 12 127 -6 152 -18 26 -27 27 -48 6z m37 -84 c-2 -57 -5 -66 -36 -99 -72 -77 -85 -125 -46 -175 17 -22 28 -27 58 -24 39 3 39 4 22 73 -13 49 1 101 30 110 35 11 74 -4 94 -38 16 -27 20 -29 23 -13 2 10 -3 23 -12 28 -16 9 -13 28 4 28 21 0 61 -78 58 -111 -4 -39 -51 -80 -70 -61 -9 9 -8 16 5 30 18 20 24 57 7 47 -15 -9 -38 -68 -32 -82 2 -7 19 -13 37 -13 49 0 79 41 72 99 -4 35 -14 52 -51 90 l-47 48 3 64 c4 77 22 81 26 6 3 -48 8 -59 47 -101 25 -26 45 -56 45 -66 0 -10 5 -22 10 -25 6 -3 10 -18 9 -33 -2 -71 -84 -135 -145 -113 -40 14 -97 14 -112 -1 -9 -9 -21 -8 -52 2 -51 17 -70 39 -77 88 -7 54 11 103 58 154 35 38 39 49 39 94 0 52 6 67 24 61 6 -2 10 -30 9 -67z m-13 -124 c0 -8 -4 -18 -10 -21 -15 -9 -12 -79 5 -101 21 -27 19 -34 -11 -34 -50 0 -72 45 -47 98 27 61 63 93 63 58z" id="BJAxyqBzs_z"/>
        <path d="M2990 2875 c-19 -51 14 -112 50 -90 15 10 23 71 11 94 -16 29 -49 27 -61 -4z m50 -30 c0 -31 -35 -35 -43 -6 -6 24 0 31 25 31 13 0 18 -7 18 -25z" id="r11Zkcrfj_z"/>
        <path d="M1098 3018 c-3 -59 -4 -63 -28 -64 -14 -1 -32 -4 -41 -8 -14 -6 -16 -2 -11 20 5 26 1 24 -47 -23 -47 -46 -71 -91 -71 -134 0 -31 34 -61 74 -64 44 -4 56 14 32 50 -24 37 -20 84 10 111 70 66 149 -25 101 -116 -19 -36 -11 -50 27 -50 22 0 40 8 56 25 28 30 20 45 -9 16 -22 -22 -56 -32 -56 -16 1 6 4 30 9 55 4 27 3 56 -3 73 -8 20 -7 27 2 27 22 0 36 -15 53 -55 12 -26 19 -34 21 -24 5 22 -25 70 -65 103 -28 24 -32 34 -32 76 0 73 -19 71 -22 -2z m-106 -107 c-20 -12 -24 -78 -7 -111 20 -38 19 -40 -8 -40 -45 0 -61 22 -54 75 8 52 20 73 52 85 23 9 35 3 17 -9z" id="B1eZJ5rzodM"/>
        <path d="M1032 2876 c-13 -29 2 -96 22 -96 26 0 47 37 44 77 -3 32 -7 38 -29 41 -19 2 -28 -3 -37 -22z m48 -11 c10 -12 9 -20 -6 -42 l-17 -28 -10 28 c-15 47 6 74 33 42z" id="Sk-bk9Bfjdz"/>
        <path d="M2007 2893 c-4 -3 -7 -15 -7 -26 0 -20 0 -20 21 -1 17 16 22 16 30 4 5 -8 7 -21 4 -28 -3 -8 -5 -20 -5 -28 0 -12 -4 -12 -25 2 -23 15 -25 15 -25 1 0 -16 28 -37 48 -37 16 0 30 73 19 98 -10 21 -45 30 -60 15z" id="rJGbkqHfjdM"/>
        <path d="M675 823 c-103 -29 -172 -160 -145 -275 15 -61 55 -117 108 -150 31 -19 51 -23 118 -23 76 0 84 2 131 34 71 49 98 101 97 193 0 96 -30 151 -109 202 -30 20 -156 32 -200 19z" id="rymby5BfoOM"/>
        <path d="M2555 822 c-65 -23 -135 -89 -135 -126 0 -8 -4 -18 -10 -21 -5 -3 -10 -35 -10 -71 0 -163 135 -264 300 -224 37 9 64 24 90 50 54 54 70 92 70 171 0 84 -23 134 -86 185 -40 33 -49 36 -121 40 -43 2 -87 0 -98 -4z" id="B14bJ9rGodf"/>
    </g>
    <g id="HJHWkqrMouz">
        <path d="M1941 3436 c-7 -8 -11 -32 -8 -53 l4 -38 1 43 c2 34 7 44 25 52 15 6 17 9 6 9 -9 1 -22 -5 -28 -13z" id="BkLWkqHfouz"/>
        <path d="M1058 3399 c2 -22 -1 -46 -8 -54 -7 -9 -8 -15 -2 -15 5 0 13 7 16 16 9 22 7 82 -2 88 -4 2 -6 -13 -4 -35z" id="SyPWkqSfjOM"/>
        <path d="M885 3194 c-72 -37 -133 -125 -159 -228 -16 -66 -16 -73 0 -135 31 -116 96 -198 193 -244 37 -18 64 -22 142 -22 86 0 102 3 153 29 64 33 152 123 161 167 4 16 11 31 16 34 5 4 9 45 9 93 0 132 -34 205 -133 284 l-49 38 -151 0 c-118 0 -159 -4 -182 -16z m123 -62 c9 -6 11 -35 9 -100 -2 -80 0 -91 13 -86 8 4 26 7 40 8 24 1 25 3 28 83 2 71 6 84 23 94 34 18 49 -5 49 -73 0 -55 3 -61 40 -100 54 -57 77 -126 59 -181 -24 -72 -115 -118 -169 -85 -15 10 -29 10 -65 0 -59 -16 -70 -15 -111 4 -44 21 -74 71 -74 122 0 58 14 87 62 131 39 37 41 42 40 92 -1 33 5 63 14 77 16 24 22 26 42 14z" id="BJOZ19rzs_M"/>
        <path d="M975 2920 c-32 -12 -44 -33 -52 -85 -7 -53 9 -75 54 -75 27 0 28 2 8 40 -17 33 -13 99 7 111 18 12 6 18 -17 9z" id="B1t-1qrzodG"/>
        <path d="M1141 2893 c6 -17 7 -46 3 -73 -11 -64 -11 -65 9 -62 21 4 55 35 58 54 3 17 -29 90 -44 100 -26 17 -37 9 -26 -19z" id="Hk9bycHGo_M"/>
        <path d="M1044 2865 c-3 -8 -2 -27 3 -42 l10 -28 17 28 c15 22 16 30 6 42 -16 19 -29 19 -36 0z" id="r1iWk9BfjOf"/>
        <path d="M1872 3203 c-44 -18 -118 -99 -149 -163 -22 -47 -26 -68 -25 -140 0 -60 6 -97 19 -125 21 -47 73 -125 82 -125 3 0 17 -10 31 -23 50 -45 107 -62 210 -62 80 0 103 4 144 24 139 69 212 218 185 378 -6 37 -18 75 -25 84 -8 8 -14 21 -14 27 0 17 -96 111 -125 122 -26 10 -309 13 -333 3z m111 -75 c12 -10 17 -32 19 -93 3 -78 4 -80 28 -81 14 -1 32 -4 42 -8 14 -7 15 -3 7 31 -27 117 11 209 56 139 12 -18 15 -36 10 -68 -6 -41 -4 -46 32 -83 47 -49 61 -77 66 -135 6 -65 -16 -106 -69 -130 -50 -23 -63 -24 -116 -8 -31 9 -44 9 -59 0 -30 -19 -70 -14 -112 15 -90 62 -89 162 4 255 36 37 39 44 39 97 0 72 18 95 53 69z" id="Bk3bycSfs_G"/>
        <path d="M1932 2907 c-12 -13 -22 -28 -22 -34 0 -6 -7 -16 -15 -23 -39 -32 13 -97 71 -91 8 1 5 14 -7 38 -23 46 -24 71 -2 95 26 29 2 44 -25 15z" id="HyTZk5SModM"/>
        <path d="M2100 2926 c0 -2 7 -17 16 -34 17 -35 11 -94 -12 -113 -31 -26 21 -32 54 -6 32 25 2 140 -40 150 -10 3 -18 4 -18 3z" id="H1RbyqHMj_f"/>
        <path d="M2022 2868 c-18 -18 -15 -42 7 -55 16 -10 20 -9 24 14 9 45 -7 65 -31 41z" id="r1Jf1qSMi_M"/>
        <path d="M2855 3201 c-43 -18 -115 -93 -141 -149 -24 -49 -27 -70 -28 -152 0 -116 20 -167 93 -240 76 -76 126 -95 246 -95 85 0 107 4 143 23 66 35 127 96 158 159 26 51 29 66 29 157 0 96 -2 104 -33 160 -35 61 -71 98 -125 129 -26 14 -56 17 -177 16 -80 0 -154 -4 -165 -8z m119 -83 c18 -25 21 -113 6 -152 -5 -14 -8 -26 -7 -26 1 0 18 4 36 10 24 7 39 6 48 -2 12 -10 13 -7 6 18 -4 16 -8 55 -8 88 0 47 4 61 20 72 13 8 25 10 35 4 13 -8 16 -20 19 -98 1 -22 13 -46 39 -75 82 -92 91 -168 26 -232 -39 -39 -89 -52 -136 -36 -25 9 -44 9 -80 0 -44 -12 -51 -11 -94 12 -32 16 -54 36 -67 61 -18 37 -18 40 -1 95 11 36 32 74 56 100 34 38 38 48 38 97 0 36 5 60 16 70 21 21 30 20 48 -6z" id="rylzkcrGoOM"/>
        <path d="M2918 2913 c-60 -71 -51 -153 16 -153 30 0 32 7 11 34 -17 22 -20 92 -5 101 12 8 13 35 2 35 -5 0 -16 -8 -24 -17z" id="Hybfy9rzsuG"/>
        <path d="M3085 2920 c-3 -6 1 -13 9 -16 22 -9 22 -91 -1 -116 -13 -14 -14 -21 -5 -30 9 -9 18 -7 39 9 39 28 42 74 9 124 -27 40 -40 47 -51 29z" id="Hkzzy9HGodz"/>
        <path d="M2998 2864 c-12 -11 5 -44 23 -44 14 0 19 7 19 25 0 18 -5 25 -18 25 -10 0 -21 -3 -24 -6z" id="BJXfJqrfouz"/>
        <path d="M1675 855 c-82 -24 -105 -33 -134 -54 -94 -70 -125 -231 -63 -331 83 -134 271 -159 385 -51 55 52 77 105 77 185 0 121 -77 218 -190 241 -19 3 -42 8 -50 10 -8 2 -19 2 -25 0z" id="ByNfyqHzsdz"/>
        <path d="M3510 844 c-69 -18 -116 -55 -157 -124 -29 -47 -33 -63 -33 -121 0 -38 4 -70 9 -74 5 -3 12 -18 16 -35 8 -35 71 -95 129 -121 126 -57 296 22 334 157 28 97 8 177 -62 248 -49 50 -72 61 -166 81 -8 2 -40 -3 -70 -11z" id="BkSGkcSMjuz"/>
        <path d="M698 358 c9 -4 35 -7 57 -7 22 0 48 3 57 7 10 4 -16 7 -57 7 -41 0 -67 -3 -57 -7z" id="By8zk9BGi_M"/>
    </g>
    <g id="HJPGJ5HfjuG">
        <path d="M1052 3698 c-7 -7 -12 -43 -12 -90 0 -67 -2 -78 -17 -79 -10 0 -44 -2 -75 -3 -32 -1 -61 -6 -65 -10 -5 -4 -10 -60 -13 -123 -4 -103 -7 -117 -25 -127 -45 -25 -142 -134 -170 -191 -26 -56 -29 -69 -29 -175 0 -105 3 -120 28 -172 51 -105 148 -194 251 -230 65 -24 203 -24 271 -1 247 83 360 369 238 604 -29 57 -126 159 -150 159 -25 0 -34 38 -34 137 0 54 -5 105 -10 113 -7 11 -28 15 -73 16 -34 0 -68 4 -75 8 -16 9 -16 108 0 124 9 9 125 12 460 12 432 0 448 -1 458 -19 15 -29 12 -97 -5 -115 -12 -11 -28 -14 -58 -10 -23 3 -54 1 -69 -5 l-28 -11 0 -109 0 -110 -59 -45 c-88 -68 -136 -136 -165 -235 -53 -179 31 -376 204 -483 96 -58 278 -65 383 -14 82 39 166 125 207 211 32 66 34 76 34 175 0 97 -3 110 -33 172 -31 64 -85 128 -164 194 l-37 31 0 107 0 106 -27 11 c-15 5 -41 9 -58 8 -77 -5 -76 -6 -73 69 l3 67 459 3 c361 2 461 0 468 -10 4 -7 8 -37 8 -66 0 -46 -3 -54 -24 -62 -14 -5 -35 -8 -48 -8 -13 1 -38 1 -55 0 l-33 -2 0 -110 c0 -123 10 -103 -94 -192 -98 -86 -146 -190 -146 -319 0 -166 93 -310 249 -386 75 -37 223 -45 304 -17 109 38 199 119 250 223 30 63 32 72 32 181 0 109 -2 119 -32 180 -31 66 -133 180 -159 180 -25 0 -34 38 -34 137 0 54 -5 105 -10 113 -6 10 -28 15 -72 15 -86 1 -91 5 -86 76 2 32 6 61 9 63 3 3 109 6 237 7 171 1 236 -2 247 -11 13 -11 15 -106 15 -705 0 -569 -2 -695 -13 -704 -10 -8 -397 -12 -1403 -13 l-1389 -3 -5 -120 c-3 -66 -9 -126 -13 -132 -5 -7 -19 -13 -32 -13 -64 0 -193 -91 -232 -163 -59 -110 -58 -246 4 -345 44 -71 154 -151 208 -152 11 0 31 -7 43 -16 21 -15 22 -21 22 -174 0 -181 3 -175 -90 -199 -90 -24 -180 -113 -214 -212 -19 -53 -21 -159 -4 -208 60 -176 257 -280 424 -224 138 46 237 181 237 323 0 65 -24 142 -59 188 -14 18 -24 39 -22 46 4 17 213 236 225 236 10 0 205 -205 211 -222 2 -5 -7 -23 -21 -41 -60 -80 -81 -170 -62 -269 16 -80 37 -121 92 -176 147 -146 380 -128 506 39 49 64 67 119 67 199 0 78 -18 133 -63 197 -17 24 -27 46 -23 50 5 5 53 56 109 115 55 60 104 108 108 108 13 0 213 -209 217 -226 2 -7 -7 -28 -20 -46 -46 -65 -58 -106 -58 -197 0 -69 5 -96 24 -137 45 -96 116 -158 216 -188 127 -38 255 2 344 106 63 73 80 120 80 223 -1 95 -15 138 -70 211 l-24 31 110 114 110 114 110 -114 c60 -63 110 -120 110 -128 0 -8 -9 -28 -21 -44 -31 -44 -59 -132 -59 -187 0 -109 65 -226 160 -286 151 -97 331 -63 445 82 113 143 96 327 -41 452 -50 45 -76 60 -144 80 l-55 16 -3 155 c-1 85 0 164 3 176 4 16 15 24 43 29 51 9 128 49 163 85 66 67 109 164 109 245 0 86 -56 203 -124 261 -38 32 -123 73 -152 73 -12 0 -27 6 -33 13 -8 10 -12 257 -13 868 l-3 854 -1260 3 c-973 1 -1264 -1 -1273 -10z m141 -220 c15 -8 17 -21 15 -96 l-3 -87 -138 -3 -137 -3 -10 26 c-16 43 -12 136 7 157 14 16 31 18 132 17 64 -1 124 -6 134 -11z m965 1 c22 -8 23 -13 20 -96 l-3 -88 -135 -3 c-160 -3 -160 -3 -160 99 0 93 11 100 150 98 58 -1 115 -6 128 -10z m990 0 c22 -8 23 -13 20 -96 l-3 -88 -145 0 -145 0 -3 81 c-4 113 -1 115 141 113 62 -1 122 -6 135 -10z m-1867 -265 c124 -91 187 -240 159 -376 -32 -153 -116 -250 -265 -304 -77 -28 -126 -30 -202 -8 -116 34 -207 109 -260 214 -25 50 -28 65 -28 160 0 95 3 110 28 161 35 68 82 123 139 161 43 28 43 28 212 28 l168 0 49 -36z m947 19 c35 -22 132 -115 132 -127 0 -5 6 -17 13 -25 44 -53 60 -211 29 -296 -46 -129 -135 -213 -272 -257 -69 -22 -108 -22 -184 -1 -199 54 -323 244 -287 438 18 103 61 171 150 241 l56 44 168 0 c139 0 172 -3 195 -17z m975 5 c114 -60 207 -213 207 -340 0 -87 -47 -193 -117 -265 -70 -72 -184 -123 -272 -123 -92 1 -196 48 -269 122 -61 62 -85 106 -108 197 -17 64 -17 71 0 137 9 38 26 88 37 111 21 44 106 134 149 157 33 18 341 22 373 4z m-1538 -1153 l0 -110 -35 -6 c-88 -15 -195 -92 -234 -170 -30 -58 -44 -165 -31 -231 12 -57 51 -134 79 -158 9 -7 16 -17 16 -22 0 -15 -192 -225 -213 -233 -26 -10 -244 218 -238 249 1 12 6 23 10 26 15 11 42 62 57 107 41 120 7 251 -92 349 -35 36 -129 84 -163 84 -40 0 -51 26 -51 119 0 55 4 91 12 99 9 9 117 12 448 10 l435 -3 0 -110z m939 99 c3 -9 6 -55 6 -103 0 -91 -8 -111 -44 -111 -36 0 -144 -61 -181 -102 -62 -68 -85 -129 -85 -230 0 -95 12 -134 63 -200 16 -21 27 -44 25 -51 -2 -8 -51 -65 -110 -126 -83 -87 -111 -111 -125 -106 -28 10 -218 226 -215 243 2 8 16 31 31 51 43 55 61 113 61 193 0 59 -5 82 -30 132 -17 34 -38 70 -48 81 -47 55 -153 115 -202 115 -29 0 -40 31 -40 115 0 127 -47 115 454 115 386 0 435 -2 440 -16z m934 4 c15 -15 16 -171 2 -199 -6 -10 -21 -19 -33 -19 -60 0 -190 -89 -225 -154 -31 -59 -52 -130 -52 -178 0 -58 30 -148 65 -193 14 -19 25 -41 25 -49 0 -8 -21 -37 -47 -63 -27 -27 -76 -79 -110 -116 -34 -37 -66 -67 -71 -67 -8 0 -73 64 -194 192 -33 34 -35 58 -7 84 12 10 33 42 47 69 22 43 26 63 26 140 0 113 -23 166 -103 245 -54 52 -127 90 -174 90 -10 0 -22 11 -27 26 -11 28 -13 146 -4 182 l6 22 432 0 c323 0 435 -3 444 -12z m-2702 -265 c84 -28 129 -64 182 -147 24 -37 27 -50 27 -136 0 -81 -4 -101 -23 -137 -75 -136 -244 -201 -373 -144 -60 27 -131 91 -160 143 -20 36 -23 58 -23 138 -1 86 2 99 26 136 50 78 102 120 178 147 59 20 106 21 166 0z m939 -1 c107 -37 180 -116 211 -228 16 -60 16 -63 -6 -135 -41 -131 -155 -219 -286 -219 -111 0 -217 68 -270 172 -31 61 -34 184 -6 239 45 88 104 141 192 172 60 21 106 21 165 -1z m950 -4 c31 -12 78 -41 105 -64 160 -144 125 -383 -71 -483 -159 -81 -346 0 -412 179 -37 100 -11 204 73 290 91 93 196 120 305 78z m932 1 c76 -25 145 -84 180 -153 34 -67 36 -178 5 -247 -47 -102 -163 -179 -271 -179 -264 0 -399 337 -205 511 48 42 60 49 115 69 69 25 101 25 176 -1z m-2599 -651 c136 -143 142 -150 142 -160 0 -8 -36 -47 -187 -204 -38 -39 -45 -41 -81 -15 -15 10 -52 26 -82 36 -30 10 -61 22 -67 28 -10 7 -13 53 -13 168 0 152 1 158 22 173 12 9 32 16 44 16 11 0 41 11 65 24 24 14 50 25 57 25 7 1 52 -40 100 -91z m1062 -159 c0 -10 -15 -33 -32 -51 -18 -19 -64 -67 -101 -107 -76 -81 -71 -80 -167 -41 -117 47 -105 24 -108 203 -2 146 -1 158 18 177 11 11 29 20 39 20 10 0 43 11 73 25 l53 26 113 -118 c61 -64 112 -125 112 -134z m442 197 c28 -5 39 -13 43 -29 3 -12 4 -92 3 -177 l-3 -154 -58 -18 c-32 -10 -68 -24 -80 -33 -32 -22 -57 -18 -86 14 -15 16 -61 66 -104 110 -42 44 -77 85 -77 90 0 9 70 86 207 228 l23 24 47 -24 c27 -14 65 -27 85 -31z m859 29 c24 -14 55 -25 68 -25 14 0 33 -7 43 -17 16 -14 18 -34 18 -174 0 -153 -1 -159 -22 -173 -13 -8 -36 -18 -53 -22 -16 -4 -49 -17 -72 -30 -24 -13 -49 -21 -57 -18 -24 9 -211 216 -211 234 0 19 213 250 231 250 7 0 32 -11 55 -25z m-1866 -5 c22 -11 49 -19 61 -20 11 0 28 -6 37 -13 16 -11 17 -31 15 -182 l-3 -169 -58 -18 c-32 -10 -68 -24 -80 -33 -12 -8 -27 -15 -34 -15 -8 0 -44 32 -81 72 -37 39 -81 87 -99 105 -17 18 -33 39 -36 46 -2 6 16 35 41 62 102 113 175 185 186 185 6 -1 29 -9 51 -20z m1384 -92 c58 -61 106 -119 106 -128 0 -22 -195 -230 -215 -230 -8 0 -24 7 -34 15 -11 8 -43 21 -72 30 -31 9 -58 24 -64 35 -5 10 -10 83 -10 162 0 160 9 188 58 188 15 1 43 9 62 20 19 11 41 19 49 20 7 0 61 -50 120 -112z m-2044 -375 c45 -24 100 -80 130 -133 16 -28 20 -54 20 -131 0 -96 0 -97 -39 -153 -56 -82 -111 -118 -202 -135 -113 -21 -228 30 -299 134 -40 57 -40 58 -40 154 0 88 3 100 29 144 66 112 201 177 311 152 28 -6 68 -21 90 -32z m917 11 c89 -46 141 -107 171 -203 21 -66 21 -73 -1 -141 -39 -121 -125 -201 -237 -218 -139 -22 -258 42 -326 175 -28 55 -27 178 3 234 42 81 124 149 203 170 44 12 150 2 187 -17z m948 -5 c146 -76 210 -244 145 -381 -78 -165 -257 -229 -414 -148 -82 42 -161 169 -161 260 0 68 47 169 100 218 27 25 89 60 130 73 44 15 153 2 200 -22z m930 1 c61 -30 127 -95 152 -150 30 -65 29 -180 -1 -238 -67 -131 -191 -196 -327 -171 -91 17 -168 78 -215 168 -33 64 -33 178 1 245 41 81 115 145 195 167 50 14 147 4 195 -21z" id="S1OzJ9BGjuz"/>
        <path d="M977 3104 c-3 -4 -4 -26 0 -49 6 -45 -17 -95 -43 -95 -8 0 -14 -4 -14 -10 0 -5 -11 -26 -25 -46 -31 -46 -34 -113 -6 -153 24 -33 96 -60 113 -43 15 15 104 16 113 2 14 -23 64 -7 113 34 17 15 22 30 22 67 0 62 -10 86 -59 143 -37 43 -41 52 -41 102 0 57 -5 62 -35 41 -12 -10 -14 -16 -7 -21 7 -4 12 -29 12 -56 0 -42 4 -52 32 -76 48 -40 68 -78 65 -123 -3 -51 -30 -81 -73 -81 -38 0 -46 14 -27 50 48 91 -31 182 -101 116 -30 -27 -34 -74 -10 -111 24 -36 12 -54 -32 -50 -89 7 -98 110 -16 185 53 47 65 72 52 106 -7 17 -7 30 0 38 15 19 -16 46 -33 30z m121 -247 c2 -26 -2 -45 -14 -58 -26 -28 -42 -23 -53 17 -14 50 3 86 38 82 22 -3 26 -9 29 -41z" id="rJKf1crGidG"/>
        <path d="M1948 3105 c-3 -3 -3 -27 0 -54 4 -46 2 -52 -33 -88 -51 -53 -69 -90 -68 -146 1 -53 17 -77 66 -102 35 -17 63 -19 72 -5 10 15 86 12 105 -5 15 -13 21 -13 61 6 56 27 78 55 79 100 0 51 -19 90 -67 142 -37 39 -42 51 -45 98 -4 74 -22 68 -28 -9 l-5 -63 47 -44 c54 -51 72 -99 56 -146 -11 -33 -35 -49 -73 -49 -33 0 -40 20 -22 62 21 47 29 88 17 88 -5 0 -19 9 -30 20 -47 47 -110 10 -110 -63 0 -24 6 -52 14 -62 20 -28 9 -45 -30 -45 -48 0 -74 32 -74 91 0 43 4 51 49 96 l50 48 -2 64 c-2 57 -13 82 -29 66z m119 -227 c11 -25 -3 -98 -19 -98 -30 0 -45 21 -45 62 -1 53 2 58 31 58 14 0 27 -9 33 -22z" id="Hyqfk5HMj_G"/>
        <path d="M2937 3104 c-4 -4 -7 -30 -7 -58 0 -45 -4 -56 -39 -94 -47 -51 -65 -100 -58 -154 7 -49 26 -71 77 -88 31 -10 43 -11 52 -2 15 15 72 15 112 1 61 -22 143 42 145 113 1 15 -3 30 -9 33 -5 3 -10 15 -10 25 0 10 -20 40 -45 66 -39 42 -44 53 -47 101 -4 75 -22 71 -26 -6 l-3 -64 47 -48 c37 -38 47 -55 51 -90 7 -59 -23 -99 -72 -99 -18 0 -35 6 -38 13 -5 14 11 55 31 79 12 14 10 21 -10 52 -59 91 -155 39 -127 -69 17 -69 17 -70 -22 -73 -30 -3 -41 2 -58 24 -39 50 -26 98 46 175 31 33 34 42 36 99 2 59 -8 82 -26 64z m114 -225 c12 -23 4 -84 -11 -94 -20 -12 -48 6 -54 35 -12 64 37 110 65 59z" id="HJofJ9Bzo_z"/>
    </g>
    <g id="H13fJ9HGjuG">
        <path d="M1043 3723 c-9 -3 -13 -29 -13 -82 0 -47 -5 -82 -12 -89 -7 -7 -40 -12 -78 -12 -38 0 -71 -5 -78 -12 -8 -8 -12 -50 -12 -125 0 -63 -4 -113 -9 -113 -13 0 -141 -124 -141 -137 0 -6 -7 -13 -15 -17 -8 -3 -15 -14 -15 -24 0 -11 -7 -25 -15 -32 -8 -7 -15 -26 -15 -42 0 -16 -7 -40 -16 -53 -20 -30 -17 -176 4 -183 7 -2 12 -18 12 -37 0 -18 7 -38 15 -45 8 -7 15 -20 15 -29 0 -9 14 -31 30 -49 17 -18 30 -37 30 -43 0 -5 5 -9 11 -9 5 0 22 -13 37 -29 36 -40 115 -82 177 -94 91 -19 262 -7 272 19 3 8 16 14 29 14 14 0 27 7 30 15 4 8 12 15 19 15 18 0 135 120 135 139 0 5 7 14 15 21 8 7 15 22 15 34 0 11 7 30 15 40 21 28 21 244 0 272 -8 10 -15 29 -15 40 0 12 -7 27 -15 34 -8 7 -15 16 -15 21 0 16 -117 139 -132 139 -4 0 -17 9 -27 19 -17 17 -19 30 -14 98 3 43 1 94 -4 113 l-9 35 -72 3 -72 3 0 49 0 50 440 0 440 0 0 -50 0 -50 -73 0 c-69 0 -74 -2 -85 -25 -14 -30 -16 -174 -3 -194 9 -14 -20 -51 -40 -51 -14 0 -129 -117 -129 -131 0 -6 -7 -17 -15 -25 -8 -9 -15 -24 -15 -33 0 -10 -7 -24 -15 -31 -21 -17 -22 -266 -1 -295 7 -11 16 -32 20 -47 3 -16 11 -28 16 -28 6 0 10 -7 10 -15 0 -19 114 -135 133 -135 8 0 17 -7 21 -15 3 -8 14 -15 24 -15 11 0 25 -6 31 -14 31 -37 301 -37 332 0 6 8 19 14 29 14 10 0 23 7 30 15 7 8 17 15 22 15 13 0 118 105 118 118 0 6 4 12 8 14 15 6 52 89 52 117 0 16 6 31 12 34 18 5 18 169 1 175 -7 2 -13 19 -13 37 0 19 -6 40 -13 47 -8 7 -17 26 -21 41 -3 15 -11 27 -16 27 -6 0 -10 5 -10 11 0 12 -103 119 -115 119 -3 0 -13 6 -21 14 -10 11 -14 42 -14 123 0 72 -4 113 -12 121 -7 7 -43 12 -90 12 l-78 0 0 50 0 50 456 0 455 0 -3 -47 -3 -48 -70 -3 c-38 -2 -75 -8 -82 -14 -9 -7 -13 -42 -13 -115 0 -105 -9 -143 -34 -143 -18 0 -113 -93 -127 -123 -5 -12 -20 -41 -33 -63 -28 -49 -39 -107 -38 -189 0 -83 11 -142 28 -156 8 -6 14 -19 14 -29 0 -10 7 -23 15 -30 8 -7 15 -18 15 -25 0 -17 94 -113 123 -126 12 -5 41 -20 64 -33 23 -13 61 -27 85 -31 98 -16 224 -5 263 21 11 8 26 14 33 14 30 0 172 128 172 155 0 7 7 15 15 19 8 3 15 13 15 23 0 10 7 27 15 37 8 11 15 34 15 51 0 17 5 36 12 43 6 6 11 39 11 72 0 33 -5 66 -11 72 -7 7 -12 26 -12 43 0 17 -7 40 -15 51 -8 10 -15 25 -15 33 0 27 -79 118 -142 165 l-38 28 0 108 c0 136 -3 140 -106 140 l-74 0 0 50 0 50 230 0 230 0 0 -685 0 -685 -1382 0 c-1338 -1 -1384 -1 -1405 -19 -21 -18 -23 -27 -23 -130 l0 -111 -37 -16 c-92 -40 -123 -56 -123 -65 0 -5 -4 -9 -10 -9 -12 0 -50 -37 -50 -49 0 -5 -7 -11 -15 -15 -8 -3 -15 -12 -15 -20 0 -7 -7 -16 -15 -20 -8 -3 -15 -15 -15 -26 0 -12 -7 -28 -15 -36 -20 -21 -21 -200 -1 -229 7 -11 16 -32 20 -47 3 -16 11 -28 16 -28 6 0 10 -5 10 -10 0 -13 96 -110 108 -110 5 0 15 -7 22 -15 7 -8 21 -15 31 -15 10 0 34 -8 54 -17 l35 -17 0 -153 c0 -148 -1 -153 -21 -153 -60 0 -229 -120 -229 -163 0 -8 -7 -17 -15 -21 -8 -3 -15 -15 -15 -26 0 -12 -7 -28 -15 -36 -21 -22 -21 -206 0 -228 8 -8 15 -24 15 -36 0 -11 7 -23 15 -26 8 -4 15 -13 15 -20 0 -20 93 -111 122 -119 13 -4 31 -15 41 -23 28 -25 237 -24 264 1 11 9 26 17 35 17 29 0 132 107 153 160 4 8 13 27 21 42 20 38 20 221 -1 238 -8 7 -15 19 -15 27 0 8 -9 26 -20 40 -35 44 -38 38 113 195 37 39 67 65 67 59 0 -6 7 -11 15 -11 8 0 15 -7 15 -15 0 -8 7 -15 15 -15 8 0 15 -4 15 -9 0 -5 27 -37 60 -72 60 -63 73 -92 45 -103 -8 -3 -15 -13 -15 -21 0 -9 -7 -23 -15 -31 -8 -9 -15 -25 -15 -37 0 -12 -7 -31 -15 -41 -20 -27 -20 -145 0 -172 8 -10 15 -29 15 -41 0 -12 7 -28 15 -37 8 -8 15 -19 15 -25 0 -19 104 -116 150 -141 39 -20 60 -23 150 -24 91 -1 112 2 153 22 26 13 47 28 47 33 0 5 4 9 10 9 10 0 80 67 80 76 0 3 7 12 15 20 8 9 15 24 15 34 0 10 7 20 15 24 10 3 15 19 15 46 0 22 5 49 12 60 10 15 10 26 0 53 -7 18 -12 49 -12 69 0 20 -7 41 -15 48 -8 7 -15 21 -15 31 0 10 -6 22 -14 26 -7 4 -16 17 -20 28 -5 16 9 36 59 89 36 37 65 72 65 77 0 5 7 9 15 9 8 0 15 7 15 15 0 8 7 15 15 15 8 0 15 5 15 11 0 11 39 -28 148 -144 43 -47 53 -81 27 -91 -8 -3 -15 -14 -15 -24 0 -11 -7 -25 -15 -32 -8 -7 -15 -24 -15 -39 0 -15 -5 -32 -11 -38 -14 -14 -15 -114 0 -141 6 -11 11 -32 11 -45 0 -14 7 -30 15 -37 8 -7 15 -19 15 -27 0 -7 7 -16 15 -19 8 -4 15 -12 15 -19 0 -19 84 -90 138 -117 40 -20 62 -23 154 -23 80 1 111 5 125 16 10 8 30 21 46 29 52 26 157 155 157 193 0 8 7 28 15 43 19 37 19 111 0 148 -8 15 -15 38 -15 51 0 12 -7 28 -15 35 -8 7 -15 18 -15 26 0 7 -6 17 -13 21 -30 18 -27 43 8 79 19 19 35 39 35 44 0 6 7 10 15 10 8 0 15 4 15 10 0 12 68 80 80 80 6 0 10 5 10 10 0 6 21 -13 48 -41 26 -29 68 -75 94 -103 42 -45 63 -96 40 -96 -10 0 -47 -85 -62 -142 -12 -46 -11 -60 8 -143 22 -95 98 -186 202 -244 69 -39 210 -40 290 -3 65 30 159 112 160 138 0 6 7 17 15 24 8 7 15 21 15 32 0 11 7 26 15 34 11 11 15 38 15 101 0 81 -4 98 -41 163 -5 8 -13 24 -18 35 -20 42 -124 135 -153 135 -7 0 -22 7 -32 15 -11 8 -30 15 -43 15 -13 0 -23 3 -24 8 0 4 -1 73 -2 153 l-2 146 45 17 c25 10 52 22 60 27 8 5 25 13 38 19 12 5 22 14 22 20 0 5 5 10 10 10 10 0 50 36 50 44 0 3 11 17 25 32 14 15 28 39 32 53 3 14 11 29 17 33 18 12 21 194 4 221 -8 12 -18 34 -22 50 -3 15 -11 27 -16 27 -6 0 -10 5 -10 11 0 15 -87 100 -126 123 -17 10 -52 26 -78 35 l-47 16 1 847 0 847 -22 15 c-20 14 -152 16 -1283 15 -693 0 -1266 -3 -1272 -6z m2545 -872 c1 -611 5 -858 13 -868 6 -7 21 -13 33 -13 29 0 114 -41 152 -73 68 -58 124 -175 124 -261 0 -81 -43 -178 -109 -245 -35 -36 -112 -76 -163 -85 -28 -5 -39 -13 -43 -29 -3 -12 -4 -91 -3 -176 l3 -155 55 -16 c68 -20 94 -35 144 -80 137 -125 154 -309 41 -452 -50 -64 -95 -96 -169 -121 -205 -69 -436 103 -436 325 0 55 28 143 59 187 12 16 21 36 21 44 0 8 -50 65 -110 128 l-110 114 -110 -114 -110 -114 24 -31 c55 -73 69 -116 70 -211 0 -103 -17 -150 -80 -223 -89 -104 -217 -144 -344 -106 -100 30 -171 92 -216 188 -19 41 -24 68 -24 137 0 91 12 132 58 197 13 18 22 39 20 46 -4 17 -204 226 -217 226 -4 0 -53 -48 -108 -108 -56 -59 -104 -110 -109 -115 -4 -4 6 -26 23 -50 45 -64 63 -119 63 -197 0 -80 -18 -135 -67 -199 -126 -167 -359 -185 -506 -39 -55 55 -76 96 -92 176 -19 99 2 189 62 269 14 18 23 36 21 41 -6 17 -201 222 -211 222 -12 0 -221 -219 -225 -236 -2 -7 8 -28 22 -46 35 -46 59 -123 59 -188 0 -142 -99 -277 -237 -323 -167 -56 -364 48 -424 224 -17 49 -15 155 4 208 34 99 124 188 214 212 93 24 90 18 90 199 0 153 -1 159 -22 174 -12 9 -32 16 -43 16 -54 1 -164 81 -208 152 -62 99 -63 235 -4 345 39 72 168 163 232 163 13 0 27 6 32 13 4 6 10 66 13 132 l5 120 1389 3 c1006 1 1393 5 1403 13 11 9 13 135 13 704 0 599 -2 694 -15 705 -11 9 -76 12 -247 11 -128 -1 -234 -4 -237 -7 -3 -2 -7 -31 -9 -63 -5 -71 0 -75 86 -76 44 0 66 -5 72 -15 5 -8 10 -59 10 -113 0 -99 9 -137 34 -137 26 0 128 -114 159 -180 30 -61 32 -71 32 -180 0 -109 -2 -118 -32 -181 -51 -104 -141 -185 -250 -223 -81 -28 -229 -20 -304 17 -156 76 -249 220 -249 386 0 129 48 233 146 319 104 89 94 69 94 192 l0 110 33 2 c17 1 42 1 55 0 13 0 34 3 48 8 21 8 24 16 24 62 0 29 -4 59 -8 66 -7 10 -107 12 -468 10 l-459 -3 -3 -67 c-3 -75 -4 -74 73 -69 17 1 43 -3 58 -8 l27 -11 0 -106 0 -107 37 -31 c79 -66 133 -130 164 -194 30 -62 33 -75 33 -172 0 -99 -2 -109 -34 -175 -41 -86 -125 -172 -207 -211 -105 -51 -287 -44 -383 14 -173 107 -257 304 -204 483 29 99 77 167 165 235 l59 45 0 110 0 109 28 11 c15 6 46 8 69 5 30 -4 46 -1 58 10 17 18 20 86 5 115 -10 18 -26 19 -458 19 -335 0 -451 -3 -460 -12 -16 -16 -16 -115 0 -124 7 -4 41 -8 75 -8 45 -1 66 -5 73 -16 5 -8 10 -59 10 -113 0 -99 9 -137 34 -137 13 0 75 -56 113 -102 110 -135 117 -345 16 -491 -61 -87 -128 -140 -217 -170 -68 -23 -206 -23 -271 1 -103 36 -200 125 -251 230 -25 52 -28 67 -28 172 0 106 3 119 29 175 28 57 125 166 170 191 18 10 21 24 25 127 3 63 8 119 13 123 4 4 33 9 65 10 31 1 65 3 75 3 15 1 17 12 17 79 0 47 5 83 12 90 9 9 300 11 1273 10 l1260 -3 3 -854z" id="S1aM19HfsOz"/>
        <path d="M927 3472 c-19 -21 -23 -114 -7 -157 l10 -26 137 3 138 3 3 87 c2 75 0 88 -15 96 -10 5 -70 10 -134 11 -101 1 -118 -1 -132 -17z m253 -88 l0 -75 -52 3 -53 3 3 62 c3 51 1 64 -13 69 -9 4 -21 2 -28 -5 -8 -8 -8 -11 2 -11 19 0 10 -71 -11 -84 -28 -17 -52 5 -57 50 l-5 39 -7 -40 -7 -40 2 40 c1 38 3 40 29 37 17 -2 26 1 23 7 -8 12 22 18 107 20 l67 1 0 -76z m-110 11 c0 -40 -8 -65 -22 -65 -6 0 -5 6 2 15 7 8 10 32 8 54 -2 22 0 37 4 35 5 -3 8 -20 8 -39z" id="HJAzJcBMjOG"/>
        <path d="M1903 3475 c-20 -14 -23 -25 -23 -84 0 -102 0 -102 160 -99 l135 3 3 88 c3 105 7 103 -148 106 -82 1 -110 -2 -127 -14z m267 -80 c0 -75 -10 -85 -84 -85 -33 0 -46 4 -46 14 0 8 4 17 9 21 15 9 10 83 -5 96 -15 12 -81 6 -96 -9 -5 -5 10 -6 36 -2 25 4 48 5 51 2 9 -10 5 -61 -6 -67 -6 -4 -8 -12 -6 -19 3 -7 -10 -11 -38 -11 -32 0 -41 3 -37 14 4 9 1 12 -7 7 -9 -6 -11 3 -9 35 4 58 26 69 146 69 l92 0 0 -65z" id="B1k71cSzjdf"/>
        <path d="M2886 3474 c-13 -13 -16 -33 -14 -98 l3 -81 145 0 145 0 3 88 c3 106 7 104 -155 106 -91 1 -114 -1 -127 -15z m254 -81 c0 -38 -4 -73 -8 -79 -4 -7 -23 -9 -52 -5 -44 6 -45 7 -43 41 2 29 0 31 -7 15 -9 -18 -10 -18 -9 5 2 51 -4 64 -10 20 -6 -42 -8 -45 -43 -51 -20 -3 -35 -2 -32 3 3 4 1 8 -4 8 -9 0 -7 22 4 77 5 27 19 30 122 32 l82 1 0 -67z" id="HJeQJ5Bzjdz"/>
        <path d="M2964 3439 c-4 -7 4 -10 25 -7 20 2 36 -3 42 -12 9 -12 10 -12 5 3 -3 10 -6 21 -6 23 0 9 -59 3 -66 -7z" id="S1-XJ5HzsOf"/>
        <path d="M852 3222 c-57 -38 -104 -93 -139 -161 -25 -51 -28 -66 -28 -161 0 -95 3 -110 28 -160 53 -105 144 -180 260 -214 76 -22 125 -20 202 8 149 54 233 151 265 304 28 136 -35 285 -159 376 l-49 36 -168 0 c-169 0 -169 0 -212 -28z m415 -50 c99 -79 133 -152 133 -284 0 -48 -4 -89 -9 -93 -5 -3 -12 -18 -16 -34 -9 -44 -97 -134 -161 -167 -51 -26 -67 -29 -153 -29 -78 0 -105 4 -142 22 -97 46 -162 128 -193 244 -16 62 -16 69 0 135 18 70 62 152 105 191 52 48 75 53 236 53 l151 0 49 -38z" id="S1GX1qrGodf"/>
        <path d="M1809 3206 c-89 -70 -132 -138 -150 -241 -28 -151 41 -305 175 -390 56 -34 152 -65 207 -65 39 0 128 27 177 53 118 63 202 202 202 333 0 64 -24 157 -47 185 -7 8 -13 20 -13 25 0 12 -97 105 -132 127 -23 14 -56 17 -195 17 l-168 0 -56 -44z m396 -6 c29 -11 125 -105 125 -122 0 -6 6 -19 14 -27 7 -9 19 -47 25 -84 27 -160 -46 -309 -185 -378 -41 -20 -64 -24 -144 -24 -103 0 -160 17 -210 62 -14 13 -28 23 -31 23 -9 0 -61 78 -82 125 -13 28 -19 65 -19 125 -1 72 3 93 25 140 31 64 105 145 149 163 24 10 307 7 333 -3z" id="rk7X19BfoOf"/>
        <path d="M2830 3234 c-43 -23 -128 -113 -149 -157 -11 -23 -28 -73 -37 -111 -17 -66 -17 -73 0 -137 23 -91 47 -135 108 -197 73 -74 177 -121 269 -122 88 0 202 51 272 123 70 72 117 178 117 265 0 127 -93 280 -207 340 -32 18 -340 14 -373 -4z m367 -41 c54 -31 90 -68 125 -129 31 -56 33 -64 33 -160 0 -91 -3 -106 -29 -157 -31 -63 -92 -124 -158 -159 -36 -19 -58 -23 -143 -23 -120 0 -170 19 -246 95 -73 73 -93 124 -93 240 1 82 4 103 28 152 26 56 98 131 141 149 11 4 85 8 165 8 121 1 151 -2 177 -16z" id="BJV7k5BGoOG"/>
        <path d="M782 2188 c-8 -8 -12 -44 -12 -99 0 -93 11 -119 51 -119 34 0 128 -48 163 -84 99 -98 133 -229 92 -349 -15 -45 -42 -96 -57 -107 -4 -3 -9 -14 -10 -26 -6 -31 212 -259 238 -249 21 8 213 218 213 233 0 5 -7 15 -16 22 -28 24 -67 101 -79 158 -13 66 1 173 31 231 39 78 146 155 234 170 l35 6 0 110 0 110 -435 3 c-331 2 -439 -1 -448 -10z m876 -99 l-3 -82 -50 -16 c-27 -9 -65 -24 -83 -34 -40 -22 -132 -114 -132 -132 0 -7 -7 -18 -15 -25 -8 -7 -15 -21 -15 -32 0 -10 -7 -30 -16 -43 -20 -30 -17 -176 4 -183 7 -2 12 -16 12 -32 0 -15 7 -33 15 -40 8 -7 15 -18 15 -24 0 -7 12 -22 28 -35 l27 -24 -104 -107 -104 -108 -78 80 c-44 44 -79 84 -79 89 0 5 -7 9 -15 9 -8 0 -15 7 -15 15 0 8 -7 15 -15 15 -8 0 -15 7 -15 15 0 9 7 18 15 21 8 4 15 10 15 16 0 5 7 16 15 24 8 9 15 24 15 33 0 10 7 24 15 31 21 18 21 208 0 236 -8 10 -15 25 -15 33 0 16 -53 85 -95 124 -28 26 -55 41 -147 81 l-38 16 0 80 0 80 430 0 431 0 -3 -81z" id="BkrXJ5BGsOG"/>
        <path d="M1720 2181 c-5 -11 -10 -54 -10 -96 0 -84 11 -115 40 -115 49 0 155 -60 202 -115 10 -11 31 -47 48 -81 51 -104 39 -235 -31 -325 -15 -20 -29 -43 -31 -51 -3 -17 187 -233 215 -243 14 -5 42 19 125 106 59 61 108 118 110 126 2 7 -9 30 -25 51 -51 66 -63 105 -63 200 0 101 23 162 85 230 37 41 145 102 181 102 36 0 44 20 44 111 0 48 -3 94 -6 103 -5 14 -54 16 -440 16 -418 0 -434 -1 -444 -19z m870 -96 c0 -77 -2 -85 -19 -85 -11 0 -23 -4 -26 -10 -3 -5 -17 -10 -30 -10 -13 0 -30 -7 -39 -15 -8 -8 -20 -15 -26 -15 -21 0 -116 -104 -137 -150 -35 -75 -52 -144 -46 -189 3 -23 10 -44 14 -47 5 -3 9 -18 9 -34 0 -16 7 -35 15 -44 8 -8 15 -19 15 -25 0 -5 6 -16 13 -23 22 -24 38 -58 27 -58 -5 0 -10 -7 -10 -15 0 -8 -7 -15 -15 -15 -8 0 -15 -4 -15 -9 0 -6 -36 -45 -79 -89 l-79 -79 -105 110 c-112 115 -110 112 -64 155 9 9 17 24 17 33 0 9 7 22 15 29 9 7 15 29 15 51 0 22 5 48 12 59 10 15 10 26 0 53 -7 18 -12 45 -12 60 0 29 -37 107 -51 107 -5 0 -9 7 -9 15 0 22 -79 93 -130 117 -25 11 -53 24 -62 29 -10 5 -25 9 -33 9 -12 0 -15 16 -15 85 l0 85 425 0 425 0 0 -85z" id="S1LXJ9rGouf"/>
        <path d="M2656 2178 c-9 -36 -7 -154 4 -182 5 -15 17 -26 27 -26 47 0 120 -38 174 -90 80 -79 103 -132 103 -245 0 -77 -4 -97 -26 -140 -14 -27 -35 -59 -47 -69 -28 -26 -26 -50 7 -84 121 -128 186 -192 194 -192 5 0 37 30 71 67 34 37 83 89 110 116 26 26 47 55 47 63 0 8 -11 30 -25 49 -35 45 -65 135 -65 193 0 48 21 119 52 178 35 65 165 154 225 154 12 0 27 9 33 19 14 28 13 184 -2 199 -9 9 -121 12 -444 12 l-432 0 -6 -22z m864 -91 l0 -84 -51 -16 c-167 -54 -293 -248 -260 -400 13 -56 35 -108 63 -146 26 -35 22 -57 -17 -97 -19 -19 -35 -39 -35 -44 0 -6 -7 -10 -15 -10 -8 0 -15 -4 -15 -10 0 -5 -22 -32 -50 -59 l-50 -50 -57 61 c-32 33 -78 81 -103 107 l-45 46 28 30 c15 16 27 37 27 46 0 9 7 19 15 23 8 3 15 16 15 30 0 13 7 37 15 52 19 37 19 111 0 148 -8 15 -15 36 -15 46 0 10 -7 23 -15 30 -8 7 -15 19 -15 26 0 19 -96 115 -140 141 -19 11 -56 26 -82 34 l-48 13 0 83 0 83 425 0 425 0 0 -83z" id="B1PX1cSzoOf"/>
        <path d="M670 1923 c-76 -27 -128 -69 -178 -147 -24 -37 -27 -50 -26 -136 0 -80 3 -102 23 -138 29 -52 100 -116 160 -143 129 -57 298 8 373 144 19 36 23 56 23 137 0 86 -3 99 -27 136 -53 83 -98 119 -182 147 -60 21 -107 20 -166 0z m153 -60 c62 -20 90 -40 130 -94 27 -37 29 -46 30 -128 0 -96 -13 -131 -70 -182 -50 -44 -191 -77 -208 -49 -3 6 -16 10 -29 10 -31 0 -98 50 -126 94 -18 30 -22 52 -22 121 -1 77 2 88 30 132 35 54 57 71 122 94 60 22 81 22 143 2z" id="HJOQk9SGodz"/>
        <path d="M1610 1923 c-88 -31 -147 -84 -192 -172 -28 -55 -25 -178 6 -239 53 -104 159 -172 270 -172 83 0 145 28 212 94 42 43 55 65 74 125 22 72 22 75 6 135 -31 112 -104 191 -211 228 -59 22 -105 22 -165 1z" id="rJKmJ5HMsOf"/>
        <path d="M2530 1917 c-111 -42 -200 -168 -200 -283 0 -109 83 -224 198 -275 178 -78 402 75 402 275 0 123 -82 237 -205 284 -69 27 -123 26 -195 -1z m202 -66 c62 -26 102 -76 123 -155 17 -64 17 -68 0 -127 -21 -69 -77 -134 -125 -144 -17 -4 -32 -11 -35 -16 -10 -15 -79 -10 -141 8 -69 22 -130 78 -140 129 -3 19 -10 37 -15 40 -27 16 8 154 52 208 29 34 79 63 134 77 40 10 94 3 147 -20z" id="ryqm1qrMjdz"/>
        <path d="M3481 1920 c-55 -20 -67 -27 -115 -69 -72 -65 -105 -167 -87 -268 35 -184 240 -296 404 -218 65 30 131 95 159 154 31 69 29 180 -5 247 -35 69 -104 128 -180 153 -75 26 -107 26 -176 1z" id="HkoQkcrGidM"/>
        <path d="M901 1334 c-24 -13 -54 -24 -65 -24 -12 0 -32 -7 -44 -16 -21 -15 -22 -21 -22 -173 0 -115 3 -161 13 -168 6 -6 37 -18 67 -28 30 -10 67 -26 82 -36 36 -26 43 -24 81 15 151 157 187 196 187 204 0 5 -12 22 -27 39 -139 148 -204 213 -215 212 -7 0 -33 -11 -57 -25z m172 -115 l106 -110 -54 -57 c-29 -31 -73 -78 -97 -104 -25 -27 -49 -48 -54 -48 -5 0 -36 14 -69 30 -33 16 -70 30 -82 30 -23 0 -23 1 -23 153 l0 153 35 17 c20 9 44 17 54 17 10 0 24 7 31 15 7 8 20 15 30 15 9 0 65 -50 123 -111z" id="SJ3Qy9rGodz"/>
        <path d="M1842 1335 c-30 -14 -63 -25 -73 -25 -10 0 -28 -9 -39 -20 -19 -19 -20 -31 -18 -177 3 -179 -9 -156 108 -203 96 -39 91 -40 167 41 37 40 83 88 101 107 17 18 32 41 32 51 0 9 -51 70 -112 134 l-113 118 -53 -26z m158 -115 l107 -109 -100 -106 c-88 -93 -127 -123 -127 -97 0 11 -95 52 -120 52 -19 0 -20 7 -20 153 l0 153 35 17 c20 9 42 17 49 17 8 0 19 7 26 15 7 8 19 15 28 15 8 0 63 -49 122 -110z" id="rkTm19rzouz"/>
        <path d="M2407 1337 c-137 -142 -207 -219 -207 -228 0 -5 35 -46 77 -90 43 -44 89 -94 104 -110 29 -32 54 -36 86 -14 12 9 48 23 80 33 l58 18 3 154 c1 85 0 165 -3 177 -4 16 -15 24 -43 29 -20 4 -58 17 -85 31 l-47 24 -23 -24z m63 -22 c7 -8 19 -15 28 -15 8 0 33 -8 53 -17 l38 -18 1 -152 c0 -152 0 -153 -22 -153 -13 0 -50 -14 -83 -30 -63 -31 -85 -37 -85 -20 0 5 -15 24 -32 43 -18 18 -59 61 -91 94 l-57 61 42 45 c24 24 72 74 107 110 66 70 80 77 101 52z" id="SJCQk5SGsOz"/>
        <path d="M3244 1243 c-60 -64 -109 -124 -109 -133 0 -18 187 -225 211 -234 8 -3 33 5 57 18 23 13 56 26 72 30 17 4 40 14 53 22 21 14 22 20 22 173 0 140 -2 160 -18 174 -10 10 -29 17 -43 17 -13 0 -44 11 -68 25 -23 14 -48 25 -55 25 -7 0 -61 -53 -122 -117z m156 76 c3 -4 30 -16 60 -26 l55 -19 3 -157 c2 -145 1 -157 -15 -157 -10 0 -30 -6 -44 -14 -14 -7 -37 -16 -52 -20 -15 -3 -27 -11 -27 -16 0 -6 -9 -10 -20 -10 -21 0 -60 33 -60 50 0 6 -7 10 -15 10 -8 0 -15 5 -15 10 0 6 -12 23 -27 39 -16 15 -43 44 -61 63 l-34 36 29 29 c15 16 63 68 107 115 75 82 97 95 116 67z" id="SkyN15HGs_z"/>
        <path d="M1428 1283 c-121 -127 -155 -168 -151 -180 3 -7 19 -28 36 -46 18 -18 62 -66 99 -105 37 -40 73 -72 81 -72 7 0 22 7 34 15 12 9 48 23 80 33 l58 18 3 169 c2 151 1 171 -15 182 -9 7 -26 13 -37 13 -12 1 -39 9 -61 20 -22 11 -45 19 -51 20 -7 0 -41 -30 -76 -67z m106 32 c8 -8 23 -15 33 -15 11 0 28 -7 39 -15 10 -8 27 -15 37 -15 15 0 17 -14 17 -155 l0 -155 -25 0 c-29 0 -125 -40 -125 -52 0 -18 -21 -5 -62 38 -24 26 -68 73 -100 105 l-56 58 106 110 c59 61 110 111 114 111 3 0 13 -7 22 -15z" id="rJe4JcHzjuz"/>
        <path d="M2770 1330 c-19 -11 -47 -19 -62 -20 -49 0 -58 -28 -58 -188 0 -79 5 -152 10 -162 6 -11 33 -26 64 -35 29 -9 61 -22 72 -30 10 -8 26 -15 34 -15 20 0 215 208 215 230 0 21 -207 240 -226 240 -8 -1 -30 -9 -49 -20z m129 -81 c45 -44 81 -82 81 -85 0 -3 11 -15 25 -28 l25 -23 -42 -48 c-23 -26 -68 -74 -100 -107 -55 -57 -60 -59 -77 -44 -10 9 -24 16 -32 16 -8 0 -23 7 -33 15 -11 8 -32 15 -48 15 l-28 0 0 155 c0 145 1 155 19 155 10 0 24 7 31 15 7 8 22 15 34 15 11 0 30 7 40 15 11 8 21 15 22 15 2 0 39 -36 83 -81z" id="B1-4kqSMsuM"/>
        <path d="M705 895 c-90 -21 -165 -75 -211 -152 -26 -44 -29 -56 -29 -144 0 -96 0 -97 40 -154 71 -104 186 -155 299 -134 91 17 146 53 202 135 39 56 39 57 39 153 0 77 -4 103 -20 131 -69 122 -204 191 -320 165z m122 -68 c-7 -5 0 -6 15 -3 16 4 30 1 34 -6 5 -7 3 -8 -6 -3 -9 6 -11 4 -6 -4 5 -7 15 -10 23 -7 8 3 12 2 10 -2 -7 -10 49 -62 58 -54 4 4 6 3 5 -3 -5 -21 0 -36 10 -30 6 3 7 -1 4 -9 -3 -9 -2 -16 2 -16 5 0 9 -40 10 -90 0 -49 -4 -90 -9 -90 -5 0 -7 -7 -4 -15 4 -8 1 -17 -5 -21 -7 -5 -8 -2 -3 6 6 9 4 11 -4 6 -7 -5 -10 -15 -6 -24 3 -9 3 -14 0 -10 -9 9 -56 -33 -49 -43 3 -5 -1 -6 -9 -3 -8 3 -18 0 -23 -7 -5 -8 -3 -10 6 -4 8 5 11 4 6 -3 -4 -6 -14 -8 -23 -5 -9 4 -14 2 -10 -3 4 -7 -33 -10 -98 -10 -65 0 -102 3 -98 10 4 5 -1 7 -10 3 -9 -3 -19 -1 -23 5 -5 7 -2 8 6 3 9 -6 11 -4 6 4 -5 7 -15 10 -23 7 -8 -3 -12 -2 -9 3 3 4 -4 17 -17 27 -21 19 -21 19 -7 -1 14 -18 14 -19 -2 -7 -9 8 -15 19 -12 26 3 7 -3 19 -13 27 -17 13 -17 13 -3 -6 14 -18 14 -19 -1 -7 -11 8 -14 21 -11 39 3 15 1 23 -4 20 -15 -9 -4 187 11 201 5 4 5 0 1 -8 -4 -8 -1 -7 6 4 17 24 60 67 84 84 11 7 13 10 5 6 -9 -5 -12 -3 -7 4 4 7 18 10 34 6 15 -3 22 -2 15 3 -6 4 25 8 72 8 47 0 78 -4 72 -8z m-15 -469 c-9 -4 -35 -7 -57 -7 -22 0 -48 3 -57 7 -10 4 16 7 57 7 41 0 67 -3 57 -7z" id="ByM4JcrfsdG"/>
        <path d="M1625 891 c-79 -21 -161 -89 -203 -170 -30 -56 -31 -179 -3 -234 68 -133 187 -197 326 -175 112 17 198 97 237 218 22 68 22 75 1 141 -30 96 -82 157 -171 203 -37 19 -143 29 -187 17z m125 -46 c113 -23 190 -120 190 -241 0 -80 -22 -133 -77 -185 -114 -108 -302 -83 -385 51 -62 100 -31 261 63 331 29 21 52 30 134 54 6 2 17 2 25 0 8 -2 31 -7 50 -10z" id="ry7N19BfiOz"/>
        <path d="M2560 891 c-41 -13 -103 -48 -130 -73 -53 -49 -100 -150 -100 -218 0 -91 79 -218 161 -260 157 -81 336 -17 414 148 65 137 1 305 -145 381 -47 24 -156 37 -200 22z m137 -64 c-7 -5 2 -6 20 -3 22 4 35 0 45 -12 12 -16 11 -16 -7 -2 -19 14 -19 14 -6 -3 8 -10 20 -16 27 -13 15 6 47 -28 51 -55 3 -23 33 -70 33 -53 0 5 -3 14 -7 20 -5 5 -4 6 1 2 11 -9 14 -197 2 -195 -5 1 -11 -4 -14 -12 -3 -9 0 -11 8 -6 9 6 9 3 1 -14 -7 -11 -14 -21 -17 -21 -3 0 -2 6 2 13 5 8 2 7 -10 -2 -9 -8 -15 -20 -12 -27 5 -14 -9 -27 -33 -31 -7 -1 -19 -7 -25 -14 -8 -9 -8 -10 3 -4 9 5 12 4 8 -3 -4 -5 -17 -8 -30 -5 -15 3 -18 2 -9 -4 8 -6 -26 -9 -92 -9 -57 0 -102 4 -100 8 3 4 3 8 0 8 -2 0 -12 3 -22 7 -13 5 -15 3 -9 -8 5 -8 5 -11 -1 -6 -5 5 -9 12 -9 16 0 13 -59 70 -67 65 -4 -3 -5 3 -1 12 5 13 3 15 -7 9 -8 -5 -11 -4 -7 3 8 12 -2 44 -12 38 -3 -2 -6 31 -6 74 0 47 4 78 10 77 6 -1 9 11 8 27 -1 16 1 26 4 22 7 -7 33 13 33 26 0 5 -6 6 -12 2 -7 -4 -2 5 11 19 13 15 28 24 32 21 12 -7 51 15 45 25 -3 4 7 6 22 4 16 -3 22 -1 15 4 -6 4 23 8 67 8 44 0 73 -4 67 -8z" id="H1ENy5HGodM"/>
        <path d="M3495 891 c-80 -22 -154 -86 -195 -167 -34 -67 -34 -181 -1 -245 47 -90 124 -151 215 -168 136 -25 260 40 327 171 30 58 31 173 1 238 -25 55 -91 120 -152 150 -48 25 -145 35 -195 21z m150 -52 c38 -10 62 -25 101 -65 70 -71 90 -151 62 -248 -38 -135 -208 -214 -334 -157 -58 26 -121 86 -129 121 -4 17 -11 32 -16 35 -5 4 -9 36 -9 74 0 58 4 74 33 121 17 29 48 66 67 81 35 28 131 60 160 54 8 -1 38 -9 65 -16z" id="HkBEy9HzouM"/>
    </g>
</svg>