<?xml version="1.0" encoding="iso-8859-1"?>
<!-- Generator: Adobe Illustrator 19.0.0, SVG Export Plug-In . SVG Version: 6.00 Build 0)  -->
<svg version="1.1" id="Layer_1" xmlns="http://www.w3.org/2000/svg" xmlns:xlink="http://www.w3.org/1999/xlink" x="0px" y="0px"
	 viewBox="0 0 512 512" style="enable-background:new 0 0 512 512;" xml:space="preserve">
<circle style="fill:#BEEBFF;" cx="256" cy="256" r="256"/>
<rect x="256" y="141.241" style="fill:#647596;" width="35.31" height="35.31"/>
<g>
	<rect x="256" y="176.552" style="fill:#FFFFFF;" width="35.31" height="35.31"/>
	<rect x="220.69" y="282.483" style="fill:#FFFFFF;" width="35.31" height="35.31"/>
	<rect x="220.69" y="211.862" style="fill:#FFFFFF;" width="35.31" height="35.31"/>
	<rect x="220.69" y="141.241" style="fill:#FFFFFF;" width="35.31" height="35.31"/>
</g>
<g>
	<rect x="256" y="211.862" style="fill:#647596;" width="35.31" height="35.31"/>
	<rect x="220.69" y="176.552" style="fill:#647596;" width="35.31" height="35.31"/>
	<rect x="256" y="282.483" style="fill:#647596;" width="35.31" height="35.31"/>
	<rect x="220.69" y="247.172" style="fill:#647596;" width="35.31" height="35.31"/>
</g>
<rect x="256" y="247.172" style="fill:#FFFFFF;" width="35.31" height="35.31"/>
<rect x="185.379" y="141.241" style="fill:#647596;" width="35.31" height="35.31"/>
<g>
	<rect x="185.379" y="176.552" style="fill:#FFFFFF;" width="35.31" height="35.31"/>
	<rect x="150.069" y="282.483" style="fill:#FFFFFF;" width="35.31" height="35.31"/>
	<rect x="150.069" y="211.862" style="fill:#FFFFFF;" width="35.31" height="35.31"/>
	<rect x="150.069" y="141.241" style="fill:#FFFFFF;" width="35.31" height="35.31"/>
</g>
<g>
	<rect x="150.069" y="141.241" style="fill:#B1BACA;" width="17.655" height="35.31"/>
	<rect x="150.069" y="282.483" style="fill:#B1BACA;" width="17.655" height="35.31"/>
	<rect x="150.069" y="211.862" style="fill:#B1BACA;" width="17.655" height="35.31"/>
</g>
<g>
	<rect x="185.379" y="211.862" style="fill:#647596;" width="35.31" height="35.31"/>
	<rect x="150.069" y="176.552" style="fill:#647596;" width="35.31" height="35.31"/>
	<rect x="185.379" y="282.483" style="fill:#647596;" width="35.31" height="35.31"/>
	<rect x="150.069" y="247.172" style="fill:#647596;" width="35.31" height="35.31"/>
</g>
<rect x="185.379" y="247.172" style="fill:#FFFFFF;" width="35.31" height="35.31"/>
<path style="fill:#647596;" d="M361.931,141.241h35.31v-26.483c0-4.875-3.953-8.828-8.828-8.828h-26.483V141.241z"/>
<g>
	<rect x="361.931" y="141.241" style="fill:#FFFFFF;" width="35.31" height="35.31"/>
	<rect x="326.621" y="247.172" style="fill:#FFFFFF;" width="35.31" height="35.31"/>
	<rect x="326.621" y="176.552" style="fill:#FFFFFF;" width="35.31" height="35.31"/>
	<rect x="326.621" y="105.931" style="fill:#FFFFFF;" width="35.31" height="35.31"/>
</g>
<g>
	<rect x="361.931" y="176.552" style="fill:#647596;" width="35.31" height="35.31"/>
	<rect x="326.621" y="141.241" style="fill:#647596;" width="35.31" height="35.31"/>
	<rect x="361.931" y="247.172" style="fill:#647596;" width="35.31" height="35.31"/>
	<rect x="326.621" y="211.862" style="fill:#647596;" width="35.31" height="35.31"/>
</g>
<rect x="361.931" y="211.862" style="fill:#FFFFFF;" width="35.31" height="35.31"/>
<rect x="291.31" y="105.931" style="fill:#647596;" width="35.31" height="35.31"/>
<rect x="291.31" y="141.241" style="fill:#FFFFFF;" width="35.31" height="35.31"/>
<g>
	<rect x="291.31" y="176.552" style="fill:#647596;" width="35.31" height="35.31"/>
	<rect x="291.31" y="247.172" style="fill:#647596;" width="35.31" height="35.31"/>
</g>
<rect x="291.31" y="211.862" style="fill:#FFFFFF;" width="35.31" height="35.31"/>
<rect x="326.621" y="282.483" style="fill:#647596;" width="35.31" height="35.31"/>
<g>
	<path style="fill:#FFFFFF;" d="M361.931,317.793h26.483c4.875,0,8.828-3.953,8.828-8.828v-26.483h-35.31V317.793z"/>
	<rect x="291.31" y="282.483" style="fill:#FFFFFF;" width="35.31" height="35.31"/>
</g>
<rect x="150.069" y="247.172" style="fill:#556482;" width="17.655" height="35.31"/>
<g>
	<rect x="220.69" y="317.793" style="fill:#647596;" width="35.31" height="35.31"/>
	<rect x="150.069" y="317.793" style="fill:#647596;" width="35.31" height="35.31"/>
</g>
<g>
	<rect x="185.379" y="317.793" style="fill:#FFFFFF;" width="35.31" height="35.31"/>
	<rect x="256" y="317.793" style="fill:#FFFFFF;" width="35.31" height="35.31"/>
</g>
<g>
	<rect x="150.069" y="317.793" style="fill:#556482;" width="17.655" height="35.31"/>
	<rect x="150.069" y="176.552" style="fill:#556482;" width="17.655" height="35.31"/>
</g>
<path style="fill:#647596;" d="M141.241,128.898c-4.876,0-8.828,3.953-8.828,8.828v342.478c5.749,3.176,11.648,6.101,17.655,8.836
	V137.726C150.069,132.851,146.118,128.898,141.241,128.898z"/>
<g>
	<path style="fill:#D9F3FF;" d="M97.103,167.724H70.621c-4.875,0-8.828,3.953-8.828,8.828l0,0c0,4.875,3.953,8.828,8.828,8.828
		h26.483c4.875,0,8.828-3.953,8.828-8.828l0,0C105.931,171.677,101.978,167.724,97.103,167.724z"/>
	<path style="fill:#D9F3FF;" d="M264.828,388.414H220.69c-4.875,0-8.828,3.953-8.828,8.828l0,0c0,4.875,3.953,8.828,8.828,8.828
		h44.138c4.875,0,8.828-3.953,8.828-8.828l0,0C273.655,392.366,269.703,388.414,264.828,388.414z"/>
	<path style="fill:#D9F3FF;" d="M353.103,423.724h-52.966c-4.875,0-8.828,3.953-8.828,8.828l0,0c0,4.875,3.953,8.828,8.828,8.828
		h52.966c4.875,0,8.828-3.953,8.828-8.828l0,0C361.931,427.677,357.978,423.724,353.103,423.724z"/>
	<path style="fill:#D9F3FF;" d="M335.448,61.793h-17.655c-4.875,0-8.828,3.953-8.828,8.828l0,0c0,4.875,3.953,8.828,8.828,8.828
		h17.655c4.875,0,8.828-3.953,8.828-8.828l0,0C344.276,65.746,340.323,61.793,335.448,61.793z"/>
	<path style="fill:#D9F3FF;" d="M300.138,388.414h-8.828c-4.875,0-8.828,3.953-8.828,8.828l0,0c0,4.875,3.953,8.828,8.828,8.828
		h8.828c4.875,0,8.828-3.953,8.828-8.828l0,0C308.966,392.366,305.013,388.414,300.138,388.414z"/>
	<path style="fill:#D9F3FF;" d="M79.448,185.379H52.966c-4.875,0-8.828,3.953-8.828,8.828l0,0c0,4.875,3.953,8.828,8.828,8.828
		h26.483c4.875,0,8.828-3.953,8.828-8.828l0,0C88.276,189.332,84.323,185.379,79.448,185.379z"/>
</g>
<g>
	<path style="fill:#EBF9FF;" d="M211.862,79.448h-52.966c-4.875,0-8.828,3.953-8.828,8.828l0,0c0,4.875,3.953,8.828,8.828,8.828
		h52.966c4.875,0,8.828-3.953,8.828-8.828l0,0C220.69,83.401,216.737,79.448,211.862,79.448z"/>
	<path style="fill:#EBF9FF;" d="M238.345,61.793h-44.138c-4.875,0-8.828,3.953-8.828,8.828l0,0c0,4.875,3.953,8.828,8.828,8.828
		h44.138c4.875,0,8.828-3.953,8.828-8.828l0,0C247.172,65.746,243.22,61.793,238.345,61.793z"/>
	<path style="fill:#EBF9FF;" d="M370.759,335.448h-44.138c-4.875,0-8.828,3.953-8.828,8.828l0,0c0,4.875,3.953,8.828,8.828,8.828
		h44.138c4.875,0,8.828-3.953,8.828-8.828l0,0C379.586,339.401,375.634,335.448,370.759,335.448z"/>
	<path style="fill:#EBF9FF;" d="M388.414,353.103h-26.483c-4.875,0-8.828,3.953-8.828,8.828l0,0c0,4.875,3.953,8.828,8.828,8.828
		h26.483c4.875,0,8.828-3.953,8.828-8.828l0,0C397.241,357.056,393.289,353.103,388.414,353.103z"/>
	<path style="fill:#EBF9FF;" d="M423.724,353.103h-8.828c-4.875,0-8.828,3.953-8.828,8.828l0,0c0,4.875,3.953,8.828,8.828,8.828
		h8.828c4.875,0,8.828-3.953,8.828-8.828l0,0C432.552,357.056,428.599,353.103,423.724,353.103z"/>
	<path style="fill:#EBF9FF;" d="M282.483,61.793h-8.828c-4.875,0-8.828,3.953-8.828,8.828l0,0c0,4.875,3.953,8.828,8.828,8.828
		h8.828c4.875,0,8.828-3.953,8.828-8.828l0,0C291.31,65.746,287.358,61.793,282.483,61.793z"/>
</g>
<rect x="256" y="105.931" style="fill:#FFFFFF;" width="35.31" height="35.31"/>
<polygon style="fill:#B1BACA;" points="256,105.931 291.31,141.241 256,141.241 "/>
<g>
</g>
<g>
</g>
<g>
</g>
<g>
</g>
<g>
</g>
<g>
</g>
<g>
</g>
<g>
</g>
<g>
</g>
<g>
</g>
<g>
</g>
<g>
</g>
<g>
</g>
<g>
</g>
<g>
</g>
</svg>
