<svg xmlns="http://www.w3.org/2000/svg" width="1280" height="629" viewBox="-0.5 -2.031 1280 629" enable-background="new -0.5 -2.031 1280 629"><path fill="#2476E0" stroke="#2476E0" d="M1215.5-2.03h64l-64 37zM63.5-2.03h-64l64 37z"/><path fill="#267CDF" stroke="#267CDF" d="M63.5-2.03h64l-64 37z"/><path fill="#2881DF" stroke="#2881DF" d="M191.5-2.03h-64l64 37z"/><path fill="#2A87DE" stroke="#2A87DE" d="M1279.5-2.03l-64 37 64 37z"/><path fill="#267CDF" stroke="#267CDF" d="M-.5-2.03l64 37-64 37z"/><path fill="#2881DF" stroke="#2881DF" d="M127.5-2.03l-64 37 64 37z"/><path fill="#2A87DE" stroke="#2A87DE" d="M127.5-2.03l64 37-64 37z"/><path fill="#2881DF" stroke="#2881DF" d="M255.5-2.03l-64 37 64 37z"/><path fill="#267CDF" stroke="#267CDF" d="M191.5-2.03h64l-64 37z"/><path fill="#2476E0" stroke="#2476E0" d="M319.5-2.03h-64l64 37z"/><path fill="#2881DF" stroke="#2881DF" d="M319.5-2.03h64l-64 37z"/><path fill="#267CDF" stroke="#267CDF" d="M447.5-2.03h-64l64 37z"/><path fill="#2476E0" stroke="#2476E0" d="M447.5-2.03h64l-64 37z"/><path fill="#2881DF" stroke="#2881DF" d="M575.5-2.03h-64l64 37z"/><path fill="#267CDF" stroke="#267CDF" d="M575.5-2.03h64l-64 37z"/><path fill="#2476E0" stroke="#2476E0" d="M703.5-2.03h-64l64 37z"/><path fill="#2881DF" stroke="#2881DF" d="M703.5-2.03h64l-64 37z"/><path fill="#267CDF" stroke="#267CDF" d="M831.5-2.03h-64l64 37z"/><path fill="#2881DF" stroke="#2881DF" d="M831.5-2.03h64l-64 37z"/><path fill="#2476E0" stroke="#2476E0" d="M959.5-2.03h-64l64 37z"/><path fill="#267CDF" stroke="#267CDF" d="M959.5-2.03h64l-64 37z"/><path fill="#2881DF" stroke="#2881DF" d="M1087.5-2.03h-64l64 37z"/><path fill="#2476E0" stroke="#2476E0" d="M1087.5-2.03h64l-64 37z"/><path fill="#267CDF" stroke="#267CDF" d="M1215.5-2.03h-64l64 37zM255.5-2.03l64 37-64 37z"/><path fill="#2A87DE" stroke="#2A87DE" d="M383.5-2.03l-64 37 64 37z"/><path fill="#267CDF" stroke="#267CDF" d="M383.5-2.03l64 37-64 37z"/><path fill="#2881DF" stroke="#2881DF" d="M511.5-2.03l-64 37 64 37z"/><path fill="#267CDF" stroke="#267CDF" d="M511.5-2.03l64 37-64 37z"/><path fill="#2A87DE" stroke="#2A87DE" d="M639.5-2.03l-64 37 64 37z"/><path fill="#2881DF" stroke="#2881DF" d="M639.5-2.03l64 37-64 37z"/><path fill="#267CDF" stroke="#267CDF" d="M767.5-2.03l-64 37 64 37z"/><path fill="#2A87DE" stroke="#2A87DE" d="M767.5-2.03l64 37-64 37z"/><path opacity=".9" fill="#2881DF" stroke="#2881DF" enable-background="new" d="M895.5-2.03l-64 37 64 37z"/><path fill="#2A87DE" stroke="#2A87DE" d="M895.5-2.03l64 37-64 37z"/><path fill="#267CDF" stroke="#267CDF" d="M1023.5-2.03l-64 37 64 37z"/><path fill="#2881DF" stroke="#2881DF" d="M1023.5-2.03l64 37-64 37zM1151.5-2.03l-64 37 64 37z"/><path fill="#267CDF" stroke="#267CDF" d="M1151.5-2.03l64 37-64 37z"/><path fill="#2C8CDD" stroke="#2C8CDD" d="M1215.5 34.97l64 37-64 37z"/><path fill="#2881DF" stroke="#2881DF" d="M63.5 34.97l-64 37 64 37z"/><path fill="#2A87DE" stroke="#2A87DE" d="M63.5 34.97l64 37-64 37z"/><path fill="#2C8CDD" stroke="#2C8CDD" d="M191.5 34.97l-64 37 64 37zM1279.5 71.97l-64 37 64 37z"/><path fill="#2A87DE" stroke="#2A87DE" d="M-.5 71.97l64 37-64 37z"/><path fill="#2C8CDD" stroke="#2C8CDD" d="M127.5 71.97l-64 37 64 37z"/><path fill="#2A87DE" stroke="#2A87DE" d="M127.5 71.97l64 37-64 37z"/><path fill="#2D92DD" stroke="#2D92DD" d="M255.5 71.97l-64 37 64 37z"/><path fill="#2881DF" stroke="#2881DF" d="M191.5 34.97l64 37-64 37z"/><path fill="#2A87DE" stroke="#2A87DE" d="M319.5 34.97l-64 37 64 37z"/><path fill="#2C8CDD" stroke="#2C8CDD" d="M319.5 34.97l64 37-64 37z"/><path fill="#2881DF" stroke="#2881DF" d="M447.5 34.97l-64 37 64 37z"/><path fill="#2C8CDD" stroke="#2C8CDD" d="M447.5 34.97l64 37-64 37z"/><path fill="#2A87DE" stroke="#2A87DE" d="M575.5 34.97l-64 37 64 37z"/><path fill="#2C8CDD" stroke="#2C8CDD" d="M575.5 34.97l64 37-64 37z"/><path fill="#2A87DE" stroke="#2A87DE" d="M703.5 34.97l-64 37 64 37z"/><path fill="#2881DF" stroke="#2881DF" d="M703.5 34.97l64 37-64 37z"/><path fill="#2A87DE" stroke="#2A87DE" d="M831.5 34.97l-64 37 64 37z"/><path fill="#2C8CDD" stroke="#2C8CDD" d="M831.5 34.97l64 37-64 37z"/><path fill="#2881DF" stroke="#2881DF" d="M959.5 34.97l-64 37 64 37z"/><path fill="#2A87DE" stroke="#2A87DE" d="M959.5 34.97l64 37-64 37z"/><path fill="#2881DF" stroke="#2881DF" d="M1087.5 34.97l-64 37 64 37z"/><path fill="#2A87DE" stroke="#2A87DE" d="M1087.5 34.97l64 37-64 37z"/><path fill="#2881DF" stroke="#2881DF" d="M1215.5 34.97l-64 37 64 37z"/><path fill="#2C8CDD" stroke="#2C8CDD" d="M255.5 71.97l64 37-64 37z"/><path opacity=".8" fill="#2A87DE" stroke="#2A87DE" enable-background="new" d="M383.5 71.97l-64 37 64 37z"/><path fill="#2D92DD" stroke="#2D92DD" d="M383.5 71.97l64 37-64 37zM511.5 71.97l-64 37 64 37z"/><path fill="#2C8CDD" stroke="#2C8CDD" d="M511.5 71.97l64 37-64 37z"/><path fill="#2A87DE" stroke="#2A87DE" d="M639.5 71.97l-64 37 64 37z"/><path fill="#2D92DD" stroke="#2D92DD" d="M639.5 71.97l64 37-64 37z"/><path fill="#2C8CDD" stroke="#2C8CDD" d="M767.5 71.97l-64 37 64 37z"/><path fill="#2A87DE" stroke="#2A87DE" d="M767.5 71.97l64 37-64 37z"/><path fill="#2D92DD" stroke="#2D92DD" d="M895.5 71.97l-64 37 64 37z"/><path opacity=".85" fill="#2C8CDD" stroke="#2C8CDD" enable-background="new" d="M895.5 71.97l64 37-64 37z"/><path fill="#2A87DE" stroke="#2A87DE" d="M1023.5 71.97l-64 37 64 37z"/><path fill="#2D92DD" stroke="#2D92DD" d="M1023.5 71.97l64 37-64 37z"/><path fill="#2C8CDD" stroke="#2C8CDD" d="M1151.5 71.97l-64 37 64 37z"/><path fill="#2A87DE" stroke="#2A87DE" d="M1151.5 71.97l64 37-64 37z"/><path fill="#2F97DC" stroke="#2F97DC" d="M1215.5 108.97l64 37-64 37z"/><path fill="#2C8CDD" stroke="#2C8CDD" d="M63.5 108.97l-64 37 64 37z"/><path fill="#2F97DC" stroke="#2F97DC" d="M63.5 108.97l64 37-64 37z"/><path fill="#2D92DD" stroke="#2D92DD" d="M191.5 108.97l-64 37 64 37z"/><path fill="#2F97DC" stroke="#2F97DC" d="M1279.5 145.97l-64 37 64 37z"/><path fill="#2D92DD" stroke="#2D92DD" d="M-.5 145.97l64 37-64 37z"/><path fill="#2F97DC" stroke="#2F97DC" d="M127.5 145.97l-64 37 64 37z"/><path fill="#319DDC" stroke="#319DDC" d="M127.5 145.97l64 37-64 37z"/><path fill="#2D92DD" stroke="#2D92DD" d="M255.5 145.97l-64 37 64 37z"/><path fill="#2C8CDD" stroke="#2C8CDD" d="M191.5 108.97l64 37-64 37z"/><path fill="#2D92DD" stroke="#2D92DD" d="M319.5 108.97l-64 37 64 37z"/><path fill="#2C8CDD" stroke="#2C8CDD" d="M319.5 108.97l64 37-64 37z"/><path fill="#2D92DD" stroke="#2D92DD" d="M447.5 108.97l-64 37 64 37z"/><path fill="#2F97DC" stroke="#2F97DC" d="M447.5 108.97l64 37-64 37z"/><path fill="#2D92DD" stroke="#2D92DD" d="M575.5 108.97l-64 37 64 37z"/><path fill="#2C8CDD" stroke="#2C8CDD" d="M575.5 108.97l64 37-64 37z"/><path fill="#2D92DD" stroke="#2D92DD" d="M703.5 108.97l-64 37 64 37z"/><path fill="#2F97DC" stroke="#2F97DC" d="M703.5 108.97l64 37-64 37z"/><path fill="#2C8CDD" stroke="#2C8CDD" d="M831.5 108.97l-64 37 64 37z"/><path fill="#2F97DC" stroke="#2F97DC" d="M831.5 108.97l64 37-64 37z"/><path fill="#2D92DD" stroke="#2D92DD" d="M959.5 108.97l-64 37 64 37z"/><path fill="#2C8CDD" stroke="#2C8CDD" d="M959.5 108.97l64 37-64 37z"/><path fill="#2F97DC" stroke="#2F97DC" d="M1087.5 108.97l-64 37 64 37z"/><path fill="#2C8CDD" stroke="#2C8CDD" d="M1087.5 108.97l64 37-64 37z"/><path fill="#2D92DD" stroke="#2D92DD" d="M1215.5 108.97l-64 37 64 37z"/><path fill="#2F97DC" stroke="#2F97DC" d="M255.5 145.97l64 37-64 37z"/><path fill="#319DDC" stroke="#319DDC" d="M383.5 145.97l-64 37 64 37z"/><path fill="#2F97DC" stroke="#2F97DC" d="M383.5 145.97l64 37-64 37z"/><path fill="#319DDC" stroke="#319DDC" d="M511.5 145.97l-64 37 64 37z"/><path fill="#2D92DD" stroke="#2D92DD" d="M511.5 145.97l64 37-64 37z"/><path fill="#2F97DC" stroke="#2F97DC" d="M639.5 145.97l-64 37 64 37z"/><path fill="#319DDC" stroke="#319DDC" d="M639.5 145.97l64 37-64 37z"/><path fill="#2D92DD" stroke="#2D92DD" d="M767.5 145.97l-64 37 64 37z"/><path fill="#2F97DC" stroke="#2F97DC" d="M767.5 145.97l64 37-64 37z"/><path fill="#319DDC" stroke="#319DDC" d="M895.5 145.97l-64 37 64 37z"/><path fill="#2D92DD" stroke="#2D92DD" d="M895.5 145.97l64 37-64 37z"/><path fill="#2F97DC" stroke="#2F97DC" d="M1023.5 145.97l-64 37 64 37z"/><path fill="#2D92DD" stroke="#2D92DD" d="M1023.5 145.97l64 37-64 37z"/><path fill="#319DDC" stroke="#319DDC" d="M1151.5 145.97l-64 37 64 37z"/><path fill="#2D92DD" stroke="#2D92DD" d="M1151.5 145.97l64 37-64 37z"/><path fill="#319DDC" stroke="#319DDC" d="M1215.5 182.97l64 37-64 37z"/><path fill="#2F97DC" stroke="#2F97DC" d="M63.5 182.97l-64 37 64 37z"/><path fill="#33A3DB" stroke="#33A3DB" d="M63.5 182.97l64 37-64 37z"/><path fill="#319DDC" stroke="#319DDC" d="M191.5 182.97l-64 37 64 37zM1279.5 219.97l-64 37 64 37zM-.5 219.97l64 37-64 37z"/><path fill="#33A3DB" stroke="#33A3DB" d="M127.5 219.97l-64 37 64 37z"/><path fill="#35A8DA" stroke="#35A8DA" d="M127.5 219.97l64 37-64 37z"/><path fill="#319DDC" stroke="#319DDC" d="M255.5 219.97l-64 37 64 37z"/><path fill="#33A3DB" stroke="#33A3DB" d="M191.5 182.97l64 37-64 37z"/><path fill="#2F97DC" stroke="#2F97DC" d="M319.5 182.97l-64 37 64 37z"/><path fill="#33A3DB" stroke="#33A3DB" d="M319.5 182.97l64 37-64 37z"/><path fill="#319DDC" stroke="#319DDC" d="M447.5 182.97l-64 37 64 37z"/><path fill="#2F97DC" stroke="#2F97DC" d="M447.5 182.97l64 37-64 37z"/><path fill="#33A3DB" stroke="#33A3DB" d="M575.5 182.97l-64 37 64 37z"/><path fill="#319DDC" stroke="#319DDC" d="M575.5 182.97l64 37-64 37z"/><path fill="#2F97DC" stroke="#2F97DC" d="M703.5 182.97l-64 37 64 37z"/><path fill="#319DDC" stroke="#319DDC" d="M703.5 182.97l64 37-64 37zM831.5 182.97l-64 37 64 37z"/><path fill="#2F97DC" stroke="#2F97DC" d="M831.5 182.97l64 37-64 37z"/><path fill="#33A3DB" stroke="#33A3DB" d="M959.5 182.97l-64 37 64 37z"/><path fill="#2F97DC" stroke="#2F97DC" d="M959.5 182.97l64 37-64 37z"/><path fill="#319DDC" stroke="#319DDC" d="M1087.5 182.97l-64 37 64 37z"/><path fill="#33A3DB" stroke="#33A3DB" d="M1087.5 182.97l64 37-64 37z"/><path fill="#2F97DC" stroke="#2F97DC" d="M1215.5 182.97l-64 37 64 37z"/><path fill="#33A3DB" stroke="#33A3DB" d="M255.5 219.97l64 37-64 37zM383.5 219.97l-64 37 64 37z"/><path fill="#35A8DA" stroke="#35A8DA" d="M383.5 219.97l64 37-64 37z"/><path fill="#319DDC" stroke="#319DDC" d="M511.5 219.97l-64 37 64 37z"/><path fill="#33A3DB" stroke="#33A3DB" d="M511.5 219.97l64 37-64 37zM639.5 219.97l-64 37 64 37z"/><path fill="#35A8DA" stroke="#35A8DA" d="M639.5 219.97l64 37-64 37z"/><path opacity=".75" fill="#319DDC" stroke="#319DDC" enable-background="new" d="M767.5 219.97l-64 37 64 37z"/><path fill="#35A8DA" stroke="#35A8DA" d="M767.5 219.97l64 37-64 37z"/><path fill="#33A3DB" stroke="#33A3DB" d="M895.5 219.97l-64 37 64 37z"/><path fill="#35A8DA" stroke="#35A8DA" d="M895.5 219.97l64 37-64 37z"/><path fill="#319DDC" stroke="#319DDC" d="M1023.5 219.97l-64 37 64 37z"/><path fill="#35A8DA" stroke="#35A8DA" d="M1023.5 219.97l64 37-64 37z"/><path fill="#33A3DB" stroke="#33A3DB" d="M1151.5 219.97l-64 37 64 37z"/><path fill="#319DDC" stroke="#319DDC" d="M1151.5 219.97l64 37-64 37z"/><path fill="#37AEDA" stroke="#37AEDA" d="M1215.5 256.97l64 37-64 37z"/><path fill="#33A3DB" stroke="#33A3DB" d="M63.5 256.97l-64 37 64 37z"/><path fill="#37AEDA" stroke="#37AEDA" d="M63.5 256.97l64 37-64 37z"/><path fill="#33A3DB" stroke="#33A3DB" d="M191.5 256.97l-64 37 64 37z"/><path fill="#39B3D9" stroke="#39B3D9" d="M1279.5 293.97l-64 37 64 37z"/><path fill="#35A8DA" stroke="#35A8DA" d="M-.5 293.97l64 37-64 37z"/><path fill="#37AEDA" stroke="#37AEDA" d="M127.5 293.97l-64 37 64 37z"/><path fill="#35A8DA" stroke="#35A8DA" d="M127.5 293.97l64 37-64 37z"/><path fill="#39B3D9" stroke="#39B3D9" d="M255.5 293.97l-64 37 64 37z"/><path fill="#35A8DA" stroke="#35A8DA" d="M191.5 256.97l64 37-64 37z"/><path fill="#37AEDA" stroke="#37AEDA" d="M319.5 256.97l-64 37 64 37z"/><path fill="#35A8DA" stroke="#35A8DA" d="M319.5 256.97l64 37-64 37z"/><path fill="#33A3DB" stroke="#33A3DB" d="M447.5 256.97l-64 37 64 37z"/><path fill="#37AEDA" stroke="#37AEDA" d="M447.5 256.97l64 37-64 37z"/><path fill="#35A8DA" stroke="#35A8DA" d="M575.5 256.97l-64 37 64 37z"/><path fill="#33A3DB" stroke="#33A3DB" d="M575.5 256.97l64 37-64 37z"/><path fill="#37AEDA" stroke="#37AEDA" d="M703.5 256.97l-64 37 64 37z"/><path fill="#35A8DA" stroke="#35A8DA" d="M703.5 256.97l64 37-64 37zM831.5 256.97l-64 37 64 37z"/><path fill="#33A3DB" stroke="#33A3DB" d="M831.5 256.97l64 37-64 37z"/><path fill="#37AEDA" stroke="#37AEDA" d="M959.5 256.97l-64 37 64 37z"/><path fill="#35A8DA" stroke="#35A8DA" d="M959.5 256.97l64 37-64 37z"/><path fill="#33A3DB" stroke="#33A3DB" d="M1087.5 256.97l-64 37 64 37z"/><path fill="#35A8DA" stroke="#35A8DA" d="M1087.5 256.97l64 37-64 37z"/><path fill="#33A3DB" stroke="#33A3DB" d="M1215.5 256.97l-64 37 64 37z"/><path fill="#37AEDA" stroke="#37AEDA" d="M255.5 293.97l64 37-64 37z"/><path fill="#35A8DA" stroke="#35A8DA" d="M383.5 293.97l-64 37 64 37z"/><path fill="#39B3D9" stroke="#39B3D9" d="M383.5 293.97l64 37-64 37z"/><path fill="#37AEDA" stroke="#37AEDA" d="M511.5 293.97l-64 37 64 37z"/><path fill="#39B3D9" stroke="#39B3D9" d="M511.5 293.97l64 37-64 37z"/><path fill="#35A8DA" stroke="#35A8DA" d="M639.5 293.97l-64 37 64 37z"/><path fill="#37AEDA" stroke="#37AEDA" d="M639.5 293.97l64 37-64 37z"/><path fill="#39B3D9" stroke="#39B3D9" d="M767.5 293.97l-64 37 64 37z"/><path opacity=".85" fill="#37AEDA" stroke="#37AEDA" enable-background="new" d="M767.5 293.97l64 37-64 37z"/><path fill="#39B3D9" stroke="#39B3D9" d="M895.5 293.97l-64 37 64 37z"/><path fill="#35A8DA" stroke="#35A8DA" d="M895.5 293.97l64 37-64 37zM1023.5 293.97l-64 37 64 37z"/><path fill="#37AEDA" stroke="#37AEDA" d="M1023.5 293.97l64 37-64 37zM1151.5 293.97l-64 37 64 37z"/><path fill="#35A8DA" stroke="#35A8DA" d="M1151.5 293.97l64 37-64 37z"/><path fill="#37AEDA" stroke="#37AEDA" d="M1215.5 330.97l64 37-64 37zM63.5 330.97l-64 37 64 37z"/><path fill="#3BB9D8" stroke="#3BB9D8" d="M63.5 330.97l64 37-64 37z"/><path fill="#39B3D9" stroke="#39B3D9" d="M191.5 330.97l-64 37 64 37z"/><path fill="#3DBFD8" stroke="#3DBFD8" d="M1279.5 367.97l-64 37 64 37z"/><path fill="#3BB9D8" stroke="#3BB9D8" d="M-.5 367.97l64 37-64 37zM127.5 367.97l-64 37 64 37z"/><path fill="#39B3D9" stroke="#39B3D9" d="M127.5 367.97l64 37-64 37z"/><path fill="#3DBFD8" stroke="#3DBFD8" d="M255.5 367.97l-64 37 64 37z"/><path fill="#3BB9D8" stroke="#3BB9D8" d="M191.5 330.97l64 37-64 37z"/><path fill="#37AEDA" stroke="#37AEDA" d="M319.5 330.97l-64 37 64 37z"/><path fill="#3BB9D8" stroke="#3BB9D8" d="M319.5 330.97l64 37-64 37z"/><path fill="#39B3D9" stroke="#39B3D9" d="M447.5 330.97l-64 37 64 37z"/><path fill="#3BB9D8" stroke="#3BB9D8" d="M447.5 330.97l64 37-64 37z"/><path fill="#37AEDA" stroke="#37AEDA" d="M575.5 330.97l-64 37 64 37z"/><path fill="#39B3D9" stroke="#39B3D9" d="M575.5 330.97l64 37-64 37zM703.5 330.97l-64 37 64 37z"/><path fill="#3BB9D8" stroke="#3BB9D8" d="M703.5 330.97l64 37-64 37z"/><path fill="#37AEDA" stroke="#37AEDA" d="M831.5 330.97l-64 37 64 37z"/><path fill="#39B3D9" stroke="#39B3D9" d="M831.5 330.97l64 37-64 37z"/><path fill="#3BB9D8" stroke="#3BB9D8" d="M959.5 330.97l-64 37 64 37z"/><path fill="#37AEDA" stroke="#37AEDA" d="M959.5 330.97l64 37-64 37z"/><path fill="#39B3D9" stroke="#39B3D9" d="M1087.5 330.97l-64 37 64 37z"/><path fill="#37AEDA" stroke="#37AEDA" d="M1087.5 330.97l64 37-64 37z"/><path fill="#3BB9D8" stroke="#3BB9D8" d="M1215.5 330.97l-64 37 64 37zM255.5 367.97l64 37-64 37z"/><path fill="#39B3D9" stroke="#39B3D9" d="M383.5 367.97l-64 37 64 37z"/><path fill="#3DBFD8" stroke="#3DBFD8" d="M383.5 367.97l64 37-64 37z"/><path fill="#39B3D9" stroke="#39B3D9" d="M511.5 367.97l-64 37 64 37z"/><path fill="#3BB9D8" stroke="#3BB9D8" d="M511.5 367.97l64 37-64 37z"/><path fill="#39B3D9" stroke="#39B3D9" d="M639.5 367.97l-64 37 64 37z"/><path fill="#3DBFD8" stroke="#3DBFD8" d="M639.5 367.97l64 37-64 37z"/><path fill="#3BB9D8" stroke="#3BB9D8" d="M767.5 367.97l-64 37 64 37z"/><path fill="#3DBFD8" stroke="#3DBFD8" d="M767.5 367.97l64 37-64 37z"/><path fill="#39B3D9" stroke="#39B3D9" d="M895.5 367.97l-64 37 64 37z"/><path fill="#3BB9D8" stroke="#3BB9D8" d="M895.5 367.97l64 37-64 37z"/><path fill="#3DBFD8" stroke="#3DBFD8" d="M1023.5 367.97l-64 37 64 37z"/><path fill="#39B3D9" stroke="#39B3D9" d="M1023.5 367.97l64 37-64 37zM1151.5 367.97l-64 37 64 37z"/><path fill="#3BB9D8" stroke="#3BB9D8" d="M1151.5 367.97l64 37-64 37z"/><path fill="#3DBFD8" stroke="#3DBFD8" d="M1215.5 404.97l64 37-64 37zM63.5 404.97l-64 37 64 37z"/><path fill="#3BB9D8" stroke="#3BB9D8" d="M63.5 404.97l64 37-64 37z"/><path fill="#3FC4D7" stroke="#3FC4D7" d="M191.5 404.97l-64 37 64 37z"/><path fill="#3DBFD8" stroke="#3DBFD8" d="M1279.5 441.97l-64 37 64 37zM-.5 441.97l64 37-64 37z"/><path fill="#3FC4D7" stroke="#3FC4D7" d="M127.5 441.97l-64 37 64 37z"/><path fill="#40CAD7" stroke="#40CAD7" d="M127.5 441.97l64 37-64 37z"/><path fill="#3FC4D7" stroke="#3FC4D7" d="M255.5 441.97l-64 37 64 37z"/><path fill="#3DBFD8" stroke="#3DBFD8" d="M191.5 404.97l64 37-64 37z"/><path fill="#3BB9D8" stroke="#3BB9D8" d="M319.5 404.97l-64 37 64 37z"/><path fill="#3FC4D7" stroke="#3FC4D7" d="M319.5 404.97l64 37-64 37zM447.5 404.97l-64 37 64 37z"/><path fill="#3DBFD8" stroke="#3DBFD8" d="M447.5 404.97l64 37-64 37z"/><path fill="#3BB9D8" stroke="#3BB9D8" d="M575.5 404.97l-64 37 64 37z"/><path fill="#3FC4D7" stroke="#3FC4D7" d="M575.5 404.97l64 37-64 37z"/><path fill="#3DBFD8" stroke="#3DBFD8" d="M703.5 404.97l-64 37 64 37z"/><path fill="#3FC4D7" stroke="#3FC4D7" d="M703.5 404.97l64 37-64 37z"/><path fill="#3DBFD8" stroke="#3DBFD8" d="M831.5 404.97l-64 37 64 37z"/><path fill="#3BB9D8" stroke="#3BB9D8" d="M831.5 404.97l64 37-64 37z"/><path fill="#3FC4D7" stroke="#3FC4D7" d="M959.5 404.97l-64 37 64 37z"/><path fill="#3BB9D8" stroke="#3BB9D8" d="M959.5 404.97l64 37-64 37z"/><path fill="#3DBFD8" stroke="#3DBFD8" d="M1087.5 404.97l-64 37 64 37z"/><path fill="#3BB9D8" stroke="#3BB9D8" d="M1087.5 404.97l64 37-64 37zM1215.5 404.97l-64 37 64 37z"/><path fill="#3DBFD8" stroke="#3DBFD8" d="M255.5 441.97l64 37-64 37z"/><path fill="#3FC4D7" stroke="#3FC4D7" d="M383.5 441.97l-64 37 64 37z"/><path fill="#40CAD7" stroke="#40CAD7" d="M383.5 441.97l64 37-64 37zM511.5 441.97l-64 37 64 37z"/><path fill="#3DBFD8" stroke="#3DBFD8" d="M511.5 441.97l64 37-64 37z"/><path fill="#3FC4D7" stroke="#3FC4D7" d="M639.5 441.97l-64 37 64 37z"/><path fill="#40CAD7" stroke="#40CAD7" d="M639.5 441.97l64 37-64 37zM767.5 441.97l-64 37 64 37z"/><path fill="#3DBFD8" stroke="#3DBFD8" d="M767.5 441.97l64 37-64 37z"/><path fill="#3FC4D7" stroke="#3FC4D7" d="M895.5 441.97l-64 37 64 37z"/><path fill="#40CAD7" stroke="#40CAD7" d="M895.5 441.97l64 37-64 37z"/><path fill="#3DBFD8" stroke="#3DBFD8" d="M1023.5 441.97l-64 37 64 37z"/><path fill="#3FC4D7" stroke="#3FC4D7" d="M1023.5 441.97l64 37-64 37z"/><path fill="#3DBFD8" stroke="#3DBFD8" d="M1151.5 441.97l-64 37 64 37z"/><path fill="#3FC4D7" stroke="#3FC4D7" d="M1151.5 441.97l64 37-64 37z"/><path fill="#40CAD7" stroke="#40CAD7" d="M1215.5 478.97l64 37-64 37z"/><path fill="#3FC4D7" stroke="#3FC4D7" d="M63.5 478.97l-64 37 64 37z"/><path fill="#42CFD6" stroke="#42CFD6" d="M63.5 478.97l64 37-64 37z"/><path fill="#40CAD7" stroke="#40CAD7" d="M191.5 478.97l-64 37 64 37z"/><path fill="#44D5D5" stroke="#44D5D5" d="M1279.5 515.97l-64 37 64 37z"/><path fill="#40CAD7" stroke="#40CAD7" d="M-.5 515.97l64 37-64 37z"/><path fill="#42CFD6" stroke="#42CFD6" d="M127.5 515.97l-64 37 64 37z"/><path fill="#44D5D5" stroke="#44D5D5" d="M127.5 515.97l64 37-64 37z"/><path fill="#40CAD7" stroke="#40CAD7" d="M255.5 515.97l-64 37 64 37z"/><path fill="#42CFD6" stroke="#42CFD6" d="M191.5 478.97l64 37-64 37z"/><path fill="#3FC4D7" stroke="#3FC4D7" d="M319.5 478.97l-64 37 64 37z"/><path fill="#40CAD7" stroke="#40CAD7" d="M319.5 478.97l64 37-64 37z"/><path fill="#3FC4D7" stroke="#3FC4D7" d="M447.5 478.97l-64 37 64 37z"/><path fill="#42CFD6" stroke="#42CFD6" d="M447.5 478.97l64 37-64 37z"/><path fill="#3FC4D7" stroke="#3FC4D7" d="M575.5 478.97l-64 37 64 37z"/><path fill="#40CAD7" stroke="#40CAD7" d="M575.5 478.97l64 37-64 37z"/><path fill="#42CFD6" stroke="#42CFD6" d="M703.5 478.97l-64 37 64 37z"/><path fill="#3FC4D7" stroke="#3FC4D7" d="M703.5 478.97l64 37-64 37zM831.5 478.97l-64 37 64 37z"/><path fill="#40CAD7" stroke="#40CAD7" d="M831.5 478.97l64 37-64 37z"/><path fill="#42CFD6" stroke="#42CFD6" d="M959.5 478.97l-64 37 64 37z"/><path fill="#40CAD7" stroke="#40CAD7" d="M959.5 478.97l64 37-64 37z"/><path fill="#3FC4D7" stroke="#3FC4D7" d="M1087.5 478.97l-64 37 64 37z"/><path fill="#40CAD7" stroke="#40CAD7" d="M1087.5 478.97l64 37-64 37z"/><path fill="#42CFD6" stroke="#42CFD6" d="M1215.5 478.97l-64 37 64 37zM255.5 515.97l64 37-64 37z"/><path fill="#44D5D5" stroke="#44D5D5" d="M383.5 515.97l-64 37 64 37z"/><path fill="#42CFD6" stroke="#42CFD6" d="M383.5 515.97l64 37-64 37z"/><path fill="#40CAD7" stroke="#40CAD7" d="M511.5 515.97l-64 37 64 37z"/><path fill="#44D5D5" stroke="#44D5D5" d="M511.5 515.97l64 37-64 37z"/><path fill="#42CFD6" stroke="#42CFD6" d="M639.5 515.97l-64 37 64 37z"/><path fill="#44D5D5" stroke="#44D5D5" d="M639.5 515.97l64 37-64 37z"/><path fill="#40CAD7" stroke="#40CAD7" d="M767.5 515.97l-64 37 64 37z"/><path fill="#42CFD6" stroke="#42CFD6" d="M767.5 515.97l64 37-64 37z"/><path fill="#40CAD7" stroke="#40CAD7" d="M895.5 515.97l-64 37 64 37z"/><path fill="#44D5D5" stroke="#44D5D5" d="M895.5 515.97l64 37-64 37z"/><path fill="#42CFD6" stroke="#42CFD6" d="M1023.5 515.97l-64 37 64 37z"/><path fill="#40CAD7" stroke="#40CAD7" d="M1023.5 515.97l64 37-64 37z"/><path fill="#42CFD6" stroke="#42CFD6" d="M1151.5 515.97l-64 37 64 37z"/><path fill="#40CAD7" stroke="#40CAD7" d="M1151.5 515.97l64 37-64 37z"/><path fill="#44D5D5" stroke="#44D5D5" d="M1215.5 552.97l64 37-64 37z"/><path fill="#42CFD6" stroke="#42CFD6" d="M63.5 552.97l-64 37 64 37z"/><path fill="#46DAD5" stroke="#46DAD5" d="M63.5 552.97l64 37-64 37z"/><path fill="#44D5D5" stroke="#44D5D5" d="M191.5 552.97l-64 37 64 37z"/><path fill="#48E0D4" stroke="#48E0D4" d="M1279.5 589.97l-64 37h64z"/><path fill="#44D5D5" stroke="#44D5D5" d="M-.5 589.97l64 37h-64z"/><path fill="#46DAD5" stroke="#46DAD5" d="M127.5 589.97l-64 37h64z"/><path fill="#44D5D5" stroke="#44D5D5" d="M127.5 589.97l64 37h-64z"/><path fill="#48E0D4" stroke="#48E0D4" d="M255.5 589.97l-64 37h64z"/><path fill="#42CFD6" stroke="#42CFD6" d="M191.5 552.97l64 37-64 37z"/><path fill="#46DAD5" stroke="#46DAD5" d="M319.5 552.97l-64 37 64 37z"/><path fill="#44D5D5" stroke="#44D5D5" d="M319.5 552.97l64 37-64 37z"/><path fill="#42CFD6" stroke="#42CFD6" d="M447.5 552.97l-64 37 64 37z"/><path fill="#46DAD5" stroke="#46DAD5" d="M447.5 552.97l64 37-64 37z"/><path fill="#44D5D5" stroke="#44D5D5" d="M575.5 552.97l-64 37 64 37zM575.5 552.97l64 37-64 37z"/><path fill="#42CFD6" stroke="#42CFD6" d="M703.5 552.97l-64 37 64 37z"/><path fill="#46DAD5" stroke="#46DAD5" d="M703.5 552.97l64 37-64 37z"/><path fill="#44D5D5" stroke="#44D5D5" d="M831.5 552.97l-64 37 64 37z"/><path fill="#46DAD5" stroke="#46DAD5" d="M831.5 552.97l64 37-64 37z"/><path fill="#42CFD6" stroke="#42CFD6" d="M959.5 552.97l-64 37 64 37z"/><path fill="#46DAD5" stroke="#46DAD5" d="M959.5 552.97l64 37-64 37z"/><path fill="#42CFD6" stroke="#42CFD6" d="M1087.5 552.97l-64 37 64 37z"/><path fill="#44D5D5" stroke="#44D5D5" d="M1087.5 552.97l64 37-64 37z"/><path fill="#42CFD6" stroke="#42CFD6" d="M1215.5 552.97l-64 37 64 37z"/><path fill="#46DAD5" stroke="#46DAD5" d="M255.5 589.97l64 37h-64z"/><path fill="#44D5D5" stroke="#44D5D5" d="M383.5 589.97l-64 37h64z"/><path fill="#48E0D4" stroke="#48E0D4" d="M383.5 589.97l64 37h-64z"/><path fill="#46DAD5" stroke="#46DAD5" d="M511.5 589.97l-64 37h64z"/><path fill="#44D5D5" stroke="#44D5D5" d="M511.5 589.97l64 37h-64z"/><path fill="#46DAD5" stroke="#46DAD5" d="M639.5 589.97l-64 37h64z"/><path fill="#44D5D5" stroke="#44D5D5" d="M639.5 589.97l64 37h-64z"/><path fill="#48E0D4" stroke="#48E0D4" d="M767.5 589.97l-64 37h64z"/><path fill="#46DAD5" stroke="#46DAD5" d="M767.5 589.97l64 37h-64z"/><path fill="#44D5D5" stroke="#44D5D5" d="M895.5 589.97l-64 37h64z"/><path fill="#46DAD5" stroke="#46DAD5" d="M895.5 589.97l64 37h-64z"/><path fill="#48E0D4" stroke="#48E0D4" d="M1023.5 589.97l-64 37h64z"/><path fill="#44D5D5" stroke="#44D5D5" d="M1023.5 589.97l64 37h-64z"/><path fill="#46DAD5" stroke="#46DAD5" d="M1151.5 589.97l-64 37h64z"/><path fill="#48E0D4" stroke="#48E0D4" d="M1151.5 589.97l64 37h-64z"/></svg>