<?xml version="1.0" encoding="UTF-8" standalone="no"?>
<!DOCTYPE svg PUBLIC "-//W3C//DTD SVG 1.1//EN" "http://www.w3.org/Graphics/SVG/1.1/DTD/svg11.dtd">
<svg version="1.1" xmlns="http://www.w3.org/2000/svg" xmlns:xlink="http://www.w3.org/1999/xlink" preserveAspectRatio="xMidYMid meet" viewBox="212.15284628262918 164.17421508421285 206.2977072560759 207.4794990893418" width="202.3" height="203.48"><defs><path d="M386 191.08C378.8 188.4 371.4 194.81 373.17 202.33C380.17 233.03 380.89 263.78 362.76 291.53C361.65 293.23 363.62 295.32 365.38 294.34C420.88 263.65 433.83 212.35 386 191.08Z" id="dJXXgwYSy"></path><path d="M265.39 182.64C260.68 188.53 264.47 197.3 272 197.95C302.63 200.7 331.42 209.27 351.77 234.53C353.01 236.1 355.5 234.92 355.17 232.96C343.39 172.1 299.62 144.55 265.39 182.64Z" id="asJfUOfWr"></path><path d="M220.83 291.2C225.01 297.81 234.9 297.09 238.17 289.96C251.32 260.77 269.64 235.45 301.38 224.06C303.28 223.41 303.02 220.53 300.92 220.2C237.12 210.97 195.11 244.54 220.83 291.2Z" id="krOGwhByb"></path><path d="M313.29 368.03C322 366.39 325.46 355.73 319.31 349.38C294.31 323.33 275.4 293.43 276.84 255.34C276.97 252.99 273.83 252.07 272.65 254.1C236.07 317.12 253.61 375.36 313.29 368.03Z" id="ah29kdHQx"></path></defs><g><g><use xlink:href="#dJXXgwYSy" opacity="1" fill="#585b5b" fill-opacity="1"></use><g><use xlink:href="#dJXXgwYSy" opacity="1" fill-opacity="0" stroke="#000000" stroke-width="1" stroke-opacity="0"></use></g></g><g><use xlink:href="#asJfUOfWr" opacity="1" fill="#2ec09a" fill-opacity="1"></use><g><use xlink:href="#asJfUOfWr" opacity="1" fill-opacity="0" stroke="#000000" stroke-width="1" stroke-opacity="0"></use></g></g><g><use xlink:href="#krOGwhByb" opacity="1" fill="#007bff" fill-opacity="1"></use><g><use xlink:href="#krOGwhByb" opacity="1" fill-opacity="0" stroke="#000000" stroke-width="1" stroke-opacity="0"></use></g></g><g><use xlink:href="#ah29kdHQx" opacity="1" fill="#007bff" fill-opacity="1"></use><g><use xlink:href="#ah29kdHQx" opacity="1" fill-opacity="0" stroke="#000000" stroke-width="1" stroke-opacity="0"></use></g></g></g></svg>