<svg width="198" height="238" xmlns="http://www.w3.org/2000/svg" xmlns:xlink="http://www.w3.org/1999/xlink" preserveAspectRatio="xMidYMid meet">
 <defs>
  <path id="a1426zYMG0" d="m248.26,388.97l6.52,25.29l6.48,-25.29l16.89,0l0,41.58l-10.51,0l0,-31.68l-8.12,31.68l-9.53,0l-8.07,-31.68l0,31.68l-10.51,0l0,-41.58l16.85,0z"/>
  <path id="b3pc1bzAPz" d="m313.43,430.55l-2.11,-6.85l-14.59,0l-2.02,6.85l-13.09,0l15.62,-41.58l14.03,0l15.63,41.58l-13.47,0zm-4.78,-15.86l-4.6,-14.92l-4.55,14.92l9.15,0z"/>
  <path id="a6e4EPlWMj" d="m365.84,388.97l0,8.87l-21.54,0l0,6.62l19.99,0l0,8.49l-19.99,0l0,8.21l22.15,0l0,9.43l-35.05,0l0,-41.62l34.44,0z"/>
  <path id="d4q81tXR6Y" d="m395.68,388.99l0.47,0.02l0.47,0.03l0.45,0.04l0.45,0.05l0.44,0.05l0.43,0.07l0.43,0.07l0.41,0.08l0.4,0.09l0.4,0.1l0.38,0.11l0.38,0.11l0.37,0.13l0.36,0.13l0.35,0.14l0.34,0.15l0.34,0.15l0.32,0.17l0.32,0.17l0.31,0.19l0.3,0.19l0.29,0.2l0.28,0.2l0.27,0.22l0.27,0.22l0.25,0.23l0.25,0.24l0.24,0.25l0.22,0.26l0.22,0.26l0.21,0.27l0.2,0.27l0.19,0.28l0.19,0.3l0.17,0.29l0.16,0.31l0.16,0.31l0.14,0.32l0.14,0.32l0.13,0.34l0.12,0.34l0.11,0.34l0.1,0.36l0.09,0.36l0.08,0.37l0.08,0.38l0.06,0.38l0.06,0.39l0.05,0.4l0.03,0.4l0.03,0.42l0.03,0.42l0.01,0.42l0,0.44l0,0.44l-0.02,0.44l-0.02,0.43l-0.03,0.42l-0.05,0.42l-0.05,0.41l-0.06,0.4l-0.08,0.4l-0.08,0.39l-0.09,0.38l-0.1,0.37l-0.11,0.37l-0.13,0.37l-0.13,0.35l-0.14,0.35l-0.15,0.34l-0.16,0.34l-0.17,0.32l-0.18,0.33l-0.19,0.31l-0.19,0.31l-0.21,0.3l-0.22,0.29l-0.23,0.29l-0.24,0.28l-0.24,0.27l-0.26,0.27l-0.27,0.26l-0.27,0.25l-0.29,0.23l-0.3,0.23l-0.3,0.23l-0.32,0.21l-0.33,0.2l-0.33,0.2l-0.35,0.18l-0.36,0.18l-0.36,0.17l-0.38,0.16l-0.39,0.15l-0.4,0.14l-0.4,0.13l-0.42,0.13l-0.43,0.11l-0.44,0.11l-0.44,0.09l-0.46,0.09l-0.47,0.08l-0.48,0.07l-0.48,0.06l-0.5,0.05l-0.51,0.04l-0.52,0.03l-0.52,0.03l-0.54,0.01l-0.55,0.01l-7.04,0l0,15.43l-12.9,0l0,-41.62l21.35,0l0.49,0.01l0.49,0.01zm-9.43,17.72l3.15,0l1.18,-0.04l1.05,-0.1l0.93,-0.18l0.81,-0.24l0.68,-0.32l0.55,-0.39l0.46,-0.44l0.37,-0.49l0.29,-0.53l0.22,-0.57l0.12,-0.61l0.05,-0.64l-0.04,-0.64l-0.11,-0.6l-0.18,-0.57l-0.25,-0.53l-0.33,-0.51l-0.41,-0.48l-0.5,-0.41l-0.63,-0.34l-0.75,-0.27l-0.87,-0.19l-1,-0.11l-1.13,-0.04l-3.66,0l0,9.24z"/>
  <path id="c5mm6YEGEW" d="m350.12,271.48l-27.59,0l-0.04,0l11.49,-73.29l-52.36,89.34l0,0.05l0,0l8.21,14.54l27.59,0l0,0l-11.45,73.29l52.36,-89.33l0,0l0,-0.05l-8.21,-14.55z"/>
  <path id="e314BTefm" d="m307.1,310.99l-22.43,0l-13.19,-23.37l0.14,-0.28l-0.04,-0.14l2.39,-4.13l18.25,-30.12l-9.19,-16.14l-51.66,0l0,138.6l42.65,0l0,-62.35l25.71,43.91l7.37,-45.98z"/>
  <path id="e6JZkAfUp8" d="m356.97,236.81l-14.73,25.85l13,0l10.84,19.15l2.53,4.17l-0.09,0.14l0.18,0.33l-2.81,4.22l-49.6,84.79l13.19,0l36.41,-62.4l0.09,62.35l42.65,-0.04l-0.09,-138.61l-51.57,0.05z"/>
 </defs>
 <g>
  <title>background</title>
  <rect fill="none" id="canvas_background" height="240" width="200" y="-1" x="-1"/>
 </g>
 <g>
  <title>Layer 1</title>
  <g id="svg_1">
   <g id="svg_2">
    <g id="svg_3">
     <use x="-221" y="-196" id="svg_4" fill="#5c5852" xlink:href="#a1426zYMG0"/>
     <g id="svg_5">
      <use x="-221" y="-196" id="svg_6" stroke-opacity="0" stroke="#000000" fill-opacity="0" xlink:href="#a1426zYMG0"/>
     </g>
    </g>
    <g id="svg_7">
     <use x="-221" y="-196" id="svg_8" fill="#5c5852" xlink:href="#b3pc1bzAPz"/>
     <g id="svg_9">
      <use x="-221" y="-196" id="svg_10" stroke-opacity="0" stroke="#000000" fill-opacity="0" xlink:href="#b3pc1bzAPz"/>
     </g>
    </g>
    <g id="svg_11">
     <use x="-221" y="-196" id="svg_12" fill="#5c5852" xlink:href="#a6e4EPlWMj"/>
     <g id="svg_13">
      <use x="-221" y="-196" id="svg_14" stroke-opacity="0" stroke="#000000" fill-opacity="0" xlink:href="#a6e4EPlWMj"/>
     </g>
    </g>
    <g id="svg_15">
     <use x="-221" y="-196" id="svg_16" fill="#5c5852" xlink:href="#d4q81tXR6Y"/>
     <g id="svg_17">
      <use x="-221" y="-196" id="svg_18" stroke-opacity="0" stroke="#000000" fill-opacity="0" xlink:href="#d4q81tXR6Y"/>
     </g>
    </g>
    <g id="svg_19">
     <use x="-221" y="-196" id="svg_20" fill="#ffdd15" xlink:href="#c5mm6YEGEW"/>
     <g id="svg_21">
      <use x="-221" y="-196" id="svg_22" stroke-opacity="0" stroke="#000000" fill-opacity="0" xlink:href="#c5mm6YEGEW"/>
     </g>
    </g>
    <g id="svg_23">
     <use x="-221" y="-196" id="svg_24" fill="#f37721" xlink:href="#e314BTefm"/>
     <g id="svg_25">
      <use x="-221" y="-196" id="svg_26" stroke-opacity="0" stroke="#000000" fill-opacity="0" xlink:href="#e314BTefm"/>
     </g>
    </g>
    <g id="svg_27">
     <use x="-221" y="-196" id="svg_28" fill="#f37721" xlink:href="#e6JZkAfUp8"/>
     <g id="svg_29">
      <use x="-221" y="-196" id="svg_30" stroke-opacity="0" stroke="#000000" fill-opacity="0" xlink:href="#e6JZkAfUp8"/>
     </g>
    </g>
   </g>
  </g>
 </g>
</svg>