<?xml version="1.0" encoding="iso-8859-1"?>
<!-- Generator: Adobe Illustrator 16.0.0, SVG Export Plug-In . SVG Version: 6.00 Build 0)  -->
<!DOCTYPE svg PUBLIC "-//W3C//DTD SVG 1.1//EN" "http://www.w3.org/Graphics/SVG/1.1/DTD/svg11.dtd">
<svg version="1.1" id="Capa_1" xmlns="http://www.w3.org/2000/svg" xmlns:xlink="http://www.w3.org/1999/xlink" x="0px" y="0px"
	 width="106.668px" height="106.667px" viewBox="0 0 106.668 106.667" style="enable-background:new 0 0 106.668 106.667;"
	 xml:space="preserve">
<g>
	<g>
		<path d="M79.887,42.391c-0.991,0-2.058,0.299-2.676,0.748l0.449,1.179c0.468-0.356,1.215-0.58,1.889-0.58
			c1.178,0.019,1.776,0.654,1.776,1.608c0,0.841-0.469,1.57-1.309,2.562c-0.937,1.122-1.272,2.226-1.16,3.235l0.038,0.486h1.458
			l-0.02-0.486c-0.058-0.954,0.244-1.776,1.065-2.749c0.897-1.066,1.609-1.981,1.609-3.254
			C83.01,43.718,82.036,42.391,79.887,42.391z"/>
		<path d="M79.604,53.068c-0.652,0-1.122,0.486-1.122,1.178c0,0.654,0.449,1.159,1.104,1.159c0.69,0,1.123-0.505,1.123-1.159
			C80.709,53.554,80.26,53.068,79.604,53.068z"/>
		<path d="M106.656,23.75c0.022-0.549-0.173-1.105-0.598-1.518c-0.604-0.587-1.484-0.712-2.21-0.388H91.562c-1.104,0-2,0.896-2,2
			c0,1.104,0.896,2,2,2h8.2L87.84,38.12c-2.264-1.637-5.035-2.614-8.036-2.614c-7.587,0-13.759,6.172-13.759,13.759
			c0,3.145,1.072,6.037,2.854,8.357l-3.869,3.983l-9.961-6.297c-0.469-0.297-1.038-0.384-1.576-0.244
			c-0.536,0.142-0.99,0.498-1.253,0.986L40.12,78.558l-8.977-19.077c-0.442-0.937-1.522-1.383-2.497-1.026l-27.333,10
			c-1.037,0.38-1.57,1.527-1.19,2.564c0.379,1.038,1.526,1.57,2.565,1.191l25.615-9.372L38.19,83.85
			c0.321,0.685,1.001,1.127,1.756,1.147c0.018,0,0.036,0.001,0.054,0.001c0.734,0,1.411-0.403,1.761-1.053l12.983-24.111
			l9.521,6.019c0.799,0.505,1.843,0.381,2.503-0.297l5-5.147c2.265,1.637,5.035,2.613,8.036,2.613
			c7.587,0,13.759-6.172,13.759-13.759c0-3.145-1.071-6.037-2.854-8.357l11.958-12.312v8.352c0,1.104,0.896,2,2,2
			c1.104,0,2-0.896,2-2V23.844C106.666,23.812,106.658,23.781,106.656,23.75z M79.667,59.084c-5.386,0-9.751-4.366-9.751-9.751
			c0-5.385,4.365-9.751,9.751-9.751s9.751,4.366,9.751,9.751C89.418,54.718,85.053,59.084,79.667,59.084z"/>
	</g>
</g>
<g>
</g>
<g>
</g>
<g>
</g>
<g>
</g>
<g>
</g>
<g>
</g>
<g>
</g>
<g>
</g>
<g>
</g>
<g>
</g>
<g>
</g>
<g>
</g>
<g>
</g>
<g>
</g>
<g>
</g>
</svg>
