<?xml version="1.0" encoding="UTF-8" standalone="no"?>
<!DOCTYPE svg PUBLIC "-//W3C//DTD SVG 1.1//EN" "http://www.w3.org/Graphics/SVG/1.1/DTD/svg11.dtd">
<svg version="1.1" xmlns="http://www.w3.org/2000/svg" xmlns:xlink="http://www.w3.org/1999/xlink" preserveAspectRatio="xMidYMid meet" viewBox="230.4134897360704 197.19354838709677 181.21994134897358 181.26686217008802" width="177.22" height="177.27"><defs><path d="M350.12 271.48L322.53 271.48L322.49 271.48L333.98 198.19L281.62 287.53L281.62 287.58L281.62 287.58L289.83 302.12L317.42 302.12L317.42 302.12L305.97 375.41L358.33 286.08L358.33 286.08L358.33 286.03L350.12 271.48Z" id="a3ldBbtJ1u"></path><path d="M307.14 310.99L284.72 310.99L271.53 287.62L271.67 287.34L271.62 287.2L274.02 283.07L292.27 252.95L283.07 236.81L231.41 236.81L231.41 375.41L274.06 375.41L274.06 313.06L299.78 356.97L307.14 310.99Z" id="i8TdIl9Ecl"></path><path d="M356.97 236.81L342.24 262.66L355.24 262.66L366.08 281.81L368.61 285.98L368.52 286.12L368.7 286.45L365.89 290.67L316.29 375.46L329.48 375.46L365.89 313.06L365.98 375.41L408.63 375.37L408.54 236.76L356.97 236.81Z" id="b2d070HyGU"></path></defs><g><g><use xlink:href="#a3ldBbtJ1u" opacity="1" fill="#ffdd15" fill-opacity="1"></use><g><use xlink:href="#a3ldBbtJ1u" opacity="1" fill-opacity="0" stroke="#000000" stroke-width="1" stroke-opacity="0"></use></g></g><g><use xlink:href="#i8TdIl9Ecl" opacity="1" fill="#5c5856" fill-opacity="1"></use><g><use xlink:href="#i8TdIl9Ecl" opacity="1" fill-opacity="0" stroke="#000000" stroke-width="1" stroke-opacity="0"></use></g></g><g><use xlink:href="#b2d070HyGU" opacity="1" fill="#5c5856" fill-opacity="1"></use><g><use xlink:href="#b2d070HyGU" opacity="1" fill-opacity="0" stroke="#000000" stroke-width="1" stroke-opacity="0"></use></g></g></g></svg>