<svg xmlns="http://www.w3.org/2000/svg" xmlns:xlink="http://www.w3.org/1999/xlink" viewBox="0 0 22.68 22.68"><defs><style>.cls-1,.cls-3{fill:none;}.cls-2{clip-path:url(#clip-path);}.cls-3{stroke:#1d1d1b;stroke-miterlimit:3.86;stroke-width:0.4px;}.cls-4{clip-path:url(#clip-path-2);}.cls-5{fill:#1d1d1b;}.cls-6{fill:#fff;}.cls-7{clip-path:url(#clip-path-3);}.cls-8{clip-path:url(#clip-path-4);}</style><clipPath id="clip-path"><path class="cls-1" d="M2.83,31.23A2.78,2.78,0,0,0,0,34.07v17a2.78,2.78,0,0,0,2.83,2.83h17a2.78,2.78,0,0,0,2.83-2.83v-17a2.78,2.78,0,0,0-2.83-2.83Z"/></clipPath><clipPath id="clip-path-2"><rect class="cls-1" width="22.68" height="22.68"/></clipPath><clipPath id="clip-path-3"><polygon class="cls-1" points="2.84 3.47 19.84 3.47 19.84 9.71 19.84 12.83 19.84 19.21 12.62 19.21 12.62 12.83 2.84 12.83 2.84 3.47 2.84 3.47"/></clipPath><clipPath id="clip-path-4"><path class="cls-1" d="M31.53,0a2.78,2.78,0,0,0-2.83,2.83v17a2.78,2.78,0,0,0,2.83,2.83h17a2.78,2.78,0,0,0,2.83-2.83v-17A2.78,2.78,0,0,0,48.54,0Z"/></clipPath></defs><title>Icon_Versionen_VC_FB_FInal</title><g id="Rahmen"><g class="cls-2"><path class="cls-3" d="M24.86,29.05l-27,27m28-26-27,27m28-26-27,27m28-26-27,27m28-26-27,27m28-26-27,27m28-26-27,27m28-26-27,27m28-26-27,27m28-26-27,27m28-26-27,27M14.81,19l-27,27m28-26-27,27m28-26-27,27m28-26-27,27m28-26-27,27m28-26-27,27m28-26-27,27m28-26-27,27m28-26-27,27m28-26-27,27"/></g><g class="cls-4"><path class="cls-5" d="M19.84,22.68h-17A2.76,2.76,0,0,1,0,19.84v-17A2.77,2.77,0,0,1,2.83,0h17a2.75,2.75,0,0,1,2.83,2.83v17A2.75,2.75,0,0,1,19.84,22.68ZM2.84.25A2.49,2.49,0,0,0,.25,2.83v17a2.52,2.52,0,0,0,2.58,2.58h17a2.51,2.51,0,0,0,2.58-2.58v-17A2.51,2.51,0,0,0,19.84.25Z"/></g><polygon class="cls-6" points="2.84 3.47 19.84 3.47 19.84 9.71 19.84 12.83 19.84 19.21 12.62 19.21 12.62 12.83 2.84 12.83 2.84 3.47 2.84 3.47"/><g class="cls-7"><path class="cls-5" d="M8,35l-.28-.28,27-27L35,8ZM7,34l-.28-.28,27-27L34,7ZM6,33l-.28-.28,27-27L33,6ZM5,32l-.28-.28,27-27L32,5ZM4,31l-.28-.28,27-27L31,4ZM3,30l-.28-.28,27-27L30,3ZM2,29l-.28-.28,27-27L29,2ZM1,28l-.28-.28,27-27L28,1ZM0,27l-.28-.28,27-27L27,0Zm-1-1-.28-.28,27-27L26-1Zm-1-1-.28-.28,27-27L25-2Zm-1-1-.28-.28,27-27L24-3Zm-1-1-.28-.28,27-27L23-4Zm-1-1-.28-.28,27-27,.28.28Zm-1-1-.28-.28,27-27,.28.28Zm-1-1-.28-.28,27-27,.28.28Zm-1-1-.28-.28,27-27,.28.28Zm-1-1-.28-.28,27-27,.28.28Zm-1-1-.28-.28,27-27,.28.28Zm-1-1-.28-.28,27-27,.28.28Zm-1-1-.28-.28,27-27,.28.28Z"/></g><path class="cls-5" d="M20.29,19.66H12.17V13.28H2.39V3H20.29Zm-7.22-.9h6.32V3.92H3.29v8.46h9.78Z"/><g class="cls-8"><path class="cls-5" d="M36.7,35l-.28-.28,27-27,.28.28Zm-1-1-.28-.28,27-27,.28.28Zm-1-1-.28-.28,27-27,.28.28Zm-1-1-.28-.28,27-27,.28.28Zm-1-1-.28-.28,27-27,.28.28Zm-1-1-.28-.28,27-27,.28.28Zm-1-1-.28-.28,27-27,.28.28Zm-1-1-.28-.28,27-27,.28.28Zm-1-1-.28-.28,27-27L55.7,0Zm-1-1-.28-.28,27-27L54.7-1Zm-1-1-.28-.28,27-27,.28.28Zm-1-1-.28-.28,27-27,.28.28Zm-1-1-.28-.28,27-27,.28.28Zm-1-1-.28-.28,27-27,.28.28Zm-1-1-.28-.28,27-27,.28.28Zm-1-1-.28-.28,27-27,.28.28Zm-1-1-.28-.28,27-27,.28.28Zm-1-1-.28-.28,27-27,.28.28Zm-1-1-.28-.28,27-27,.28.28Zm-1-1-.28-.28,27-27,.28.28Zm-1-1-.28-.28,27-27,.28.28Z"/></g></g></svg>