<?xml version="1.0" encoding="utf-8"?>
<!-- Generator: Adobe Illustrator 15.0.2, SVG Export Plug-In . SVG Version: 6.00 Build 0)  -->
<!DOCTYPE svg PUBLIC "-//W3C//DTD SVG 1.1//EN" "http://www.w3.org/Graphics/SVG/1.1/DTD/svg11.dtd">
<svg version="1.1" id="Layer_1" xmlns="http://www.w3.org/2000/svg" xmlns:xlink="http://www.w3.org/1999/xlink" x="0px" y="0px"
	 width="1755px" height="900px" viewBox="0 0 1755 900" enable-background="new 0 0 1755 900" xml:space="preserve">
<g>
	<defs>
		<rect id="SVGID_1_" width="1755" height="900"/>
	</defs>
	<clipPath id="SVGID_2_">
		<use xlink:href="#SVGID_1_"  overflow="visible"/>
	</clipPath>
	<g clip-path="url(#SVGID_2_)">
		<defs>
			<rect id="SVGID_3_" width="1755" height="900"/>
		</defs>
		<clipPath id="SVGID_4_">
			<use xlink:href="#SVGID_3_"  overflow="visible"/>
		</clipPath>
		<g opacity="0.2" clip-path="url(#SVGID_4_)">
			<g>
				<defs>
					<rect id="SVGID_5_" x="-3.916" y="-143.52" width="1758.916" height="1048.424"/>
				</defs>
				<clipPath id="SVGID_6_">
					<use xlink:href="#SVGID_5_"  overflow="visible"/>
				</clipPath>
				<g clip-path="url(#SVGID_6_)">
					<defs>
						<rect id="SVGID_7_" width="1754.814" height="900"/>
					</defs>
					<clipPath id="SVGID_8_">
						<use xlink:href="#SVGID_7_"  overflow="visible"/>
					</clipPath>
					
						<linearGradient id="SVGID_9_" gradientUnits="userSpaceOnUse" x1="0" y1="899.9971" x2="1" y2="899.9971" gradientTransform="matrix(0 -1048.4226 -1048.4226 0 944455.375 905)">
						<stop  offset="0" style="stop-color:#FFFFFF"/>
						<stop  offset="1" style="stop-color:#BDDEF3"/>
					</linearGradient>
					<rect clip-path="url(#SVGID_8_)" fill="url(#SVGID_9_)" width="1754.813" height="900"/>
				</g>
				<g clip-path="url(#SVGID_6_)">
					<defs>
						<rect id="SVGID_10_" width="1755" height="900"/>
					</defs>
					<clipPath id="SVGID_11_">
						<use xlink:href="#SVGID_10_"  overflow="visible"/>
					</clipPath>
					<g opacity="0.1" clip-path="url(#SVGID_11_)">
						<g>
							<defs>
								<rect id="SVGID_12_" x="31.476" y="180.893" width="302.866" height="195.868"/>
							</defs>
							<clipPath id="SVGID_13_">
								<use xlink:href="#SVGID_12_"  overflow="visible"/>
							</clipPath>
							<path clip-path="url(#SVGID_13_)" fill="#D9EEF5" d="M76.056,264.516c-0.271-2.598-0.411-5.235-0.411-7.906
								c0-41.817,33.898-75.717,75.716-75.717c24.805,0,46.822,11.93,60.633,30.361c7.023-3.113,14.794-4.856,22.969-4.856
								c31.363,0,56.791,25.425,56.791,56.789c0,0.596-0.027,1.186-0.046,1.775c24.516,6.293,42.634,28.534,42.634,55.012
								c0,31.363-25.424,56.787-56.786,56.787H88.654v-0.009c-0.129,0-0.259,0.009-0.392,0.009
								c-31.362,0-56.786-25.424-56.786-56.787C31.476,292.802,50.562,270.104,76.056,264.516"/>
						</g>
					</g>
					<g opacity="0.6" clip-path="url(#SVGID_11_)">
						<g>
							<defs>
								<rect id="SVGID_14_" x="55.065" y="223.27" width="237.339" height="153.491"/>
							</defs>
							<clipPath id="SVGID_15_">
								<use xlink:href="#SVGID_14_"  overflow="visible"/>
							</clipPath>
							<path clip-path="url(#SVGID_15_)" fill="#FFFFFF" d="M257.471,288.8c0.212-2.035,0.321-4.102,0.321-6.196
								c0-32.769-26.563-59.334-59.334-59.334c-19.438,0-36.691,9.348-47.515,23.792c-5.503-2.439-11.593-3.806-17.999-3.806
								c-24.578,0-44.504,19.925-44.504,44.503c0,0.467,0.021,0.929,0.036,1.391c-19.212,4.931-33.41,22.36-33.41,43.109
								c0,24.578,19.923,44.502,44.5,44.502h148.032v-0.008c0.101,0,0.204,0.008,0.307,0.008c24.577,0,44.501-19.924,44.501-44.502
								C292.406,310.967,277.449,293.18,257.471,288.8"/>
						</g>
					</g>
					<g opacity="0.1" clip-path="url(#SVGID_11_)">
						<g>
							<defs>
								<rect id="SVGID_16_" x="1153.05" y="144.69" width="265.94" height="171.993"/>
							</defs>
							<clipPath id="SVGID_17_">
								<use xlink:href="#SVGID_16_"  overflow="visible"/>
							</clipPath>
							<path clip-path="url(#SVGID_17_)" fill="#D9EEF5" d="M1379.847,218.118c0.237-2.279,0.361-4.597,0.361-6.942
								c0-36.72-29.764-66.486-66.486-66.486c-21.779,0-41.111,10.474-53.241,26.66c-6.17-2.733-12.99-4.264-20.171-4.264
								c-27.54,0-49.867,22.326-49.867,49.867c0,0.522,0.022,1.041,0.041,1.56c-21.527,5.522-37.438,25.054-37.438,48.303
								c0,27.542,22.325,49.867,49.865,49.867h165.874v-0.01c0.114,0,0.229,0.01,0.344,0.01c27.54,0,49.865-22.325,49.865-49.867
								C1418.993,242.958,1402.233,223.025,1379.847,218.118"/>
						</g>
					</g>
					<g opacity="0.6" clip-path="url(#SVGID_11_)">
						<g>
							<defs>
								<rect id="SVGID_18_" x="1281.14" y="98.339" width="207.78" height="134.376"/>
							</defs>
							<clipPath id="SVGID_19_">
								<use xlink:href="#SVGID_18_"  overflow="visible"/>
							</clipPath>
							<path clip-path="url(#SVGID_19_)" fill="#FFFFFF" d="M1311.724,155.707c-0.185-1.781-0.282-3.591-0.282-5.423
								c0-28.689,23.255-51.945,51.945-51.945c17.016,0,32.12,8.183,41.596,20.829c4.821-2.136,10.15-3.331,15.76-3.331
								c21.517,0,38.961,17.443,38.961,38.96c0,0.407-0.019,0.813-0.032,1.218c16.819,4.315,29.25,19.575,29.25,37.739
								c0,21.518-17.442,38.96-38.958,38.96h-129.596v-0.007c-0.091,0-0.179,0.007-0.27,0.007c-21.516,0-38.958-17.442-38.958-38.96
								C1281.14,175.114,1294.233,159.54,1311.724,155.707"/>
						</g>
					</g>
					<g opacity="0.1" clip-path="url(#SVGID_11_)">
						<g>
							<defs>
								<rect id="SVGID_20_" x="553.776" y="152.109" width="218.013" height="140.991"/>
							</defs>
							<clipPath id="SVGID_21_">
								<use xlink:href="#SVGID_20_"  overflow="visible"/>
							</clipPath>
							<path clip-path="url(#SVGID_21_)" fill="#D9EEF5" d="M739.699,212.303c0.195-1.87,0.295-3.769,0.295-5.692
								c0-30.101-24.399-54.503-54.502-54.503c-17.856,0-33.704,8.587-43.647,21.855c-5.055-2.241-10.648-3.496-16.532-3.496
								c-22.576,0-40.88,18.303-40.88,40.879c0,0.429,0.02,0.854,0.033,1.278c-17.648,4.53-30.69,20.54-30.69,39.599
								c0,22.576,18.302,40.877,40.878,40.877h135.975v-0.007c0.094,0,0.188,0.007,0.283,0.007
								c22.577,0,40.877-18.301,40.877-40.877C771.789,232.664,758.051,216.325,739.699,212.303"/>
						</g>
					</g>
					<g opacity="0.6" clip-path="url(#SVGID_11_)">
						<g>
							<defs>
								<rect id="SVGID_22_" x="599.934" y="199.68" width="144.273" height="93.42"/>
							</defs>
							<clipPath id="SVGID_23_">
								<use xlink:href="#SVGID_22_"  overflow="visible"/>
							</clipPath>
							<path clip-path="url(#SVGID_23_)" fill="#FFFFFF" d="M620.615,239.655c-0.134-1.284-0.203-2.587-0.203-3.908
								c0-20.665,14.051-36.068,34.718-36.068c12.258,0,23.139,5.221,29.964,14.329c3.47-1.538,7.311-2.4,11.352-2.4
								c13.697,0,26.714,11.891,26.714,27.39c0,0.294-0.012,0.586-0.023,0.877c12.116,3.111,21.07,12.076,21.07,25.161
								c0,15.5-10.539,28.064-26.039,28.064h-93.352v-0.005c-0.065,0-0.13,0.005-0.193,0.005c-15.501,0-24.689-11.89-24.689-27.389
								C599.934,252.285,608.016,242.417,620.615,239.655"/>
						</g>
					</g>
				</g>
				<polygon clip-path="url(#SVGID_6_)" fill="#CEE2F2" points="1454.193,466.089 1365.247,356.83 1293.565,441.512 1220.809,900 
					1754.813,900 1754.813,317.53 1645.495,230.29 				"/>
				<polygon clip-path="url(#SVGID_6_)" fill="#C3D7E6" points="1754.813,487.254 1754.813,317.531 1645.496,230.29 				"/>
				<polygon clip-path="url(#SVGID_6_)" fill="#C3D7E6" points="1365.247,356.829 1454.193,466.088 1423.978,503.299 				"/>
				<polygon clip-path="url(#SVGID_6_)" fill="#C2D8ED" points="248.508,512.312 159.56,426.79 87.879,505.693 42.397,479.428 
					0,532.209 0,900 902.249,900 913.954,525.524 712.993,399.131 597.69,508.582 439.809,308.884 				"/>
				<polygon clip-path="url(#SVGID_6_)" fill="#CFE8FC" points="712.993,399.351 908.586,697.278 913.954,525.524 				"/>
				<polygon clip-path="url(#SVGID_6_)" fill="#CFE8FC" points="439.81,308.884 597.69,508.583 537.618,570.905 				"/>
				<g clip-path="url(#SVGID_6_)">
					<defs>
						<polygon id="SVGID_24_" points="829.09,900 1754.814,900 1754.814,569.912 1630.771,440.177 1542.971,510.581 1429.4,386.015 
													"/>
					</defs>
					<clipPath id="SVGID_25_">
						<use xlink:href="#SVGID_24_"  overflow="visible"/>
					</clipPath>
					
						<linearGradient id="SVGID_26_" gradientUnits="userSpaceOnUse" x1="0" y1="900.1582" x2="1" y2="900.1582" gradientTransform="matrix(403.0849 -698.1636 -698.1636 -403.0849 629519.9375 363883.4375)">
						<stop  offset="0" style="stop-color:#9CB2C9"/>
						<stop  offset="1" style="stop-color:#C5DCF0"/>
					</linearGradient>
					<polygon clip-path="url(#SVGID_25_)" fill="url(#SVGID_26_)" points="606.528,771.504 1060.521,-14.835 1977.376,514.512 
						1523.383,1300.851 					"/>
				</g>
				<g clip-path="url(#SVGID_6_)">
					<defs>
						<polygon id="SVGID_27_" points="931.802,411.271 872.391,364.092 729.107,554.556 596.307,433.987 240.673,900 1598.938,900 
							1136.244,138.682 						"/>
					</defs>
					<clipPath id="SVGID_28_">
						<use xlink:href="#SVGID_27_"  overflow="visible"/>
					</clipPath>
					
						<linearGradient id="SVGID_29_" gradientUnits="userSpaceOnUse" x1="0" y1="900" x2="1" y2="900" gradientTransform="matrix(0 -766.2222 -766.2222 0 690519.4375 905)">
						<stop  offset="0" style="stop-color:#819CB5"/>
						<stop  offset="1" style="stop-color:#96B5D1"/>
					</linearGradient>
					<rect x="240.673" y="138.682" clip-path="url(#SVGID_28_)" fill="url(#SVGID_29_)" width="1358.265" height="761.318"/>
				</g>
				<polygon clip-path="url(#SVGID_6_)" fill="#9AB5D1" points="596.307,433.987 729.106,554.557 652.223,657.069 				"/>
				<g clip-path="url(#SVGID_6_)">
					<defs>
						<polygon id="SVGID_30_" points="772.382,900 1598.938,900 1136.244,138.682 						"/>
					</defs>
					<clipPath id="SVGID_31_">
						<use xlink:href="#SVGID_30_"  overflow="visible"/>
					</clipPath>
					
						<linearGradient id="SVGID_32_" gradientUnits="userSpaceOnUse" x1="0" y1="900" x2="1" y2="900" gradientTransform="matrix(0 766.2222 766.2222 0 -688413.9375 138.5)">
						<stop  offset="0" style="stop-color:#90ADC9"/>
						<stop  offset="1" style="stop-color:#819BB8"/>
					</linearGradient>
					<rect x="772.382" y="138.682" clip-path="url(#SVGID_31_)" fill="url(#SVGID_32_)" width="826.556" height="761.318"/>
				</g>
				<g clip-path="url(#SVGID_6_)">
					<defs>
						<polygon id="SVGID_33_" points="1108.824,900 1598.938,900 1136.244,138.682 						"/>
					</defs>
					<clipPath id="SVGID_34_">
						<use xlink:href="#SVGID_33_"  overflow="visible"/>
					</clipPath>
					
						<linearGradient id="SVGID_35_" gradientUnits="userSpaceOnUse" x1="4.882812e-04" y1="900.0049" x2="1.0005" y2="900.0049" gradientTransform="matrix(493.2705 0 0 -493.2705 1108.75 444465.4688)">
						<stop  offset="0" style="stop-color:#98B6D4"/>
						<stop  offset="1" style="stop-color:#819DB5"/>
					</linearGradient>
					<rect x="1108.824" y="138.682" clip-path="url(#SVGID_34_)" fill="url(#SVGID_35_)" width="490.113" height="761.318"/>
				</g>
				<g clip-path="url(#SVGID_6_)">
					<defs>
						<polygon id="SVGID_36_" points="1423.942,900 1598.938,900 1136.244,138.682 						"/>
					</defs>
					<clipPath id="SVGID_37_">
						<use xlink:href="#SVGID_36_"  overflow="visible"/>
					</clipPath>
					
						<linearGradient id="SVGID_38_" gradientUnits="userSpaceOnUse" x1="4.882812e-04" y1="900.0059" x2="1.0005" y2="900.0059" gradientTransform="matrix(465.6743 0 0 -465.6743 1136.25 419628.6562)">
						<stop  offset="0" style="stop-color:#98B6D4"/>
						<stop  offset="1" style="stop-color:#8EACC7"/>
					</linearGradient>
					<rect x="1136.244" y="138.682" clip-path="url(#SVGID_37_)" fill="url(#SVGID_38_)" width="462.693" height="761.318"/>
				</g>
				<g clip-path="url(#SVGID_6_)">
					<defs>
						<polygon id="SVGID_39_" points="1754.814,757.251 1754.814,570.282 1630.771,440.363 						"/>
					</defs>
					<clipPath id="SVGID_40_">
						<use xlink:href="#SVGID_39_"  overflow="visible"/>
					</clipPath>
					
						<linearGradient id="SVGID_41_" gradientUnits="userSpaceOnUse" x1="0" y1="900" x2="1" y2="900" gradientTransform="matrix(0 -316.8884 -316.8884 0 286892.3438 757.25)">
						<stop  offset="0" style="stop-color:#A2BAD1"/>
						<stop  offset="1" style="stop-color:#BCD3E8"/>
					</linearGradient>
					<rect x="1630.772" y="440.363" clip-path="url(#SVGID_40_)" fill="url(#SVGID_41_)" width="124.042" height="316.888"/>
				</g>
				<g clip-path="url(#SVGID_6_)">
					<defs>
						<polygon id="SVGID_42_" points="1429.4,386.014 1542.971,510.581 1477.267,563.293 						"/>
					</defs>
					<clipPath id="SVGID_43_">
						<use xlink:href="#SVGID_42_"  overflow="visible"/>
					</clipPath>
					
						<linearGradient id="SVGID_44_" gradientUnits="userSpaceOnUse" x1="4.882812e-04" y1="900" x2="1.0005" y2="900" gradientTransform="matrix(113.5714 0 0 -113.5714 1429.375 102688.9062)">
						<stop  offset="0" style="stop-color:#A2BAD1"/>
						<stop  offset="1" style="stop-color:#BCD3E8"/>
					</linearGradient>
					<rect x="1429.4" y="386.014" clip-path="url(#SVGID_43_)" fill="url(#SVGID_44_)" width="113.57" height="177.279"/>
				</g>
				<g clip-path="url(#SVGID_6_)">
					<defs>
						<polygon id="SVGID_45_" points="827.137,900 1700.204,900 1356.08,716.063 1258.799,776.354 1061.906,594.985 						"/>
					</defs>
					<clipPath id="SVGID_46_">
						<use xlink:href="#SVGID_45_"  overflow="visible"/>
					</clipPath>
					
						<linearGradient id="SVGID_47_" gradientUnits="userSpaceOnUse" x1="0" y1="899.9404" x2="1" y2="899.9404" gradientTransform="matrix(-72.5231 -411.2987 -411.2987 72.5231 371448.5938 -64290.0078)">
						<stop  offset="0" style="stop-color:#70849E"/>
						<stop  offset="1" style="stop-color:#859EBA"/>
					</linearGradient>
					<polygon clip-path="url(#SVGID_46_)" fill="url(#SVGID_47_)" points="853.463,1049.304 774.976,604.183 1673.878,445.682 
						1752.364,890.803 					"/>
				</g>
				<g clip-path="url(#SVGID_6_)">
					<defs>
						<polygon id="SVGID_48_" points="1506.539,900 1700.267,900 1356.112,716.063 						"/>
					</defs>
					<clipPath id="SVGID_49_">
						<use xlink:href="#SVGID_48_"  overflow="visible"/>
					</clipPath>
					
						<linearGradient id="SVGID_50_" gradientUnits="userSpaceOnUse" x1="4.882812e-04" y1="900.0078" x2="1.0005" y2="900.0078" gradientTransform="matrix(353.3315 0 0 -353.3315 1356 318808.875)">
						<stop  offset="0" style="stop-color:#98B6D4"/>
						<stop  offset="1" style="stop-color:#819DB5"/>
					</linearGradient>
					<rect x="1356.112" y="716.063" clip-path="url(#SVGID_49_)" fill="url(#SVGID_50_)" width="344.154" height="183.937"/>
				</g>
				<g clip-path="url(#SVGID_6_)">
					<defs>
						<polygon id="SVGID_51_" points="1061.906,594.984 1150.371,841.999 1258.8,776.354 						"/>
					</defs>
					<clipPath id="SVGID_52_">
						<use xlink:href="#SVGID_51_"  overflow="visible"/>
					</clipPath>
					
						<linearGradient id="SVGID_53_" gradientUnits="userSpaceOnUse" x1="4.882812e-04" y1="900" x2="1.0005" y2="900" gradientTransform="matrix(196.894 0 0 -196.894 1061.875 177923.125)">
						<stop  offset="0" style="stop-color:#92AFCC"/>
						<stop  offset="1" style="stop-color:#819DB5"/>
					</linearGradient>
					<rect x="1061.906" y="594.984" clip-path="url(#SVGID_52_)" fill="url(#SVGID_53_)" width="196.894" height="247.015"/>
				</g>
				<g clip-path="url(#SVGID_6_)">
					<defs>
						<polygon id="SVGID_54_" points="183.141,727.075 108.072,652.005 0,775.107 0,900 624.531,900 464.058,711.337 
							414.725,773.365 297.974,571.82 						"/>
					</defs>
					<clipPath id="SVGID_55_">
						<use xlink:href="#SVGID_54_"  overflow="visible"/>
					</clipPath>
					
						<linearGradient id="SVGID_56_" gradientUnits="userSpaceOnUse" x1="0" y1="900" x2="1" y2="900" gradientTransform="matrix(0 -333.084 -333.084 0 300088.125 905)">
						<stop  offset="0" style="stop-color:#768EA6"/>
						<stop  offset="1" style="stop-color:#839CB8"/>
					</linearGradient>
					<rect y="571.82" clip-path="url(#SVGID_55_)" fill="url(#SVGID_56_)" width="624.531" height="328.18"/>
				</g>
				<g clip-path="url(#SVGID_6_)">
					<defs>
						<polygon id="SVGID_57_" points="297.974,571.82 360.058,842.977 414.726,773.365 						"/>
					</defs>
					<clipPath id="SVGID_58_">
						<use xlink:href="#SVGID_57_"  overflow="visible"/>
					</clipPath>
					
						<linearGradient id="SVGID_59_" gradientUnits="userSpaceOnUse" x1="-4.882812e-04" y1="900" x2="0.9995" y2="900" gradientTransform="matrix(116.7522 0 0 -116.7522 298 105784.3281)">
						<stop  offset="0" style="stop-color:#92AFCC"/>
						<stop  offset="1" style="stop-color:#819DB5"/>
					</linearGradient>
					<rect x="297.974" y="571.82" clip-path="url(#SVGID_58_)" fill="url(#SVGID_59_)" width="116.752" height="271.156"/>
				</g>
				<polygon clip-path="url(#SVGID_6_)" fill="#8AA5C2" points="108.072,652.005 183.141,727.075 137.244,788.714 				"/>
				<g clip-path="url(#SVGID_6_)">
					<defs>
						<polygon id="SVGID_60_" points="518.272,900 624.531,900 464.058,711.337 						"/>
					</defs>
					<clipPath id="SVGID_61_">
						<use xlink:href="#SVGID_60_"  overflow="visible"/>
					</clipPath>
					
						<linearGradient id="SVGID_62_" gradientUnits="userSpaceOnUse" x1="4.882812e-04" y1="900.0146" x2="1.0005" y2="900.0146" gradientTransform="matrix(164.6437 0 0 -164.6437 464 148987.4219)">
						<stop  offset="0" style="stop-color:#92AFCC"/>
						<stop  offset="1" style="stop-color:#819DB5"/>
					</linearGradient>
					<rect x="464.058" y="711.337" clip-path="url(#SVGID_61_)" fill="url(#SVGID_62_)" width="160.473" height="188.663"/>
				</g>
				<g clip-path="url(#SVGID_6_)">
					<defs>
						<rect id="SVGID_63_" width="1755" height="900"/>
					</defs>
					<clipPath id="SVGID_64_">
						<use xlink:href="#SVGID_63_"  overflow="visible"/>
					</clipPath>
					<g opacity="0.5" clip-path="url(#SVGID_64_)">
						<g>
							<defs>
								<rect id="SVGID_65_" x="652.222" y="363.947" width="279.58" height="292.83"/>
							</defs>
							<clipPath id="SVGID_66_">
								<use xlink:href="#SVGID_65_"  overflow="visible"/>
							</clipPath>
							<polygon clip-path="url(#SVGID_66_)" fill="#94AFC9" points="872.391,363.947 652.222,656.777 909.668,448.84 
								931.802,411.053 							"/>
						</g>
					</g>
				</g>
				<g clip-path="url(#SVGID_6_)">
					<defs>
						<polygon id="SVGID_67_" points="872.391,364.093 909.668,448.84 931.802,411.272 						"/>
					</defs>
					<clipPath id="SVGID_68_">
						<use xlink:href="#SVGID_67_"  overflow="visible"/>
					</clipPath>
					
						<linearGradient id="SVGID_69_" gradientUnits="userSpaceOnUse" x1="-4.882812e-04" y1="900" x2="0.9995" y2="900" gradientTransform="matrix(59.4106 0 0 -59.4106 872.4062 53876.0195)">
						<stop  offset="0" style="stop-color:#9EBCDB"/>
						<stop  offset="1" style="stop-color:#87A3BD"/>
					</linearGradient>
					<rect x="872.391" y="364.093" clip-path="url(#SVGID_68_)" fill="url(#SVGID_69_)" width="59.411" height="84.747"/>
				</g>
				<polygon clip-path="url(#SVGID_6_)" fill="#CFE8FC" points="159.561,426.789 248.507,512.312 213.632,550.77 				"/>
				<polygon clip-path="url(#SVGID_6_)" fill="#CFE8FC" points="87.879,505.693 67.727,527.764 42.397,479.428 				"/>
			</g>
		</g>
	</g>
</g>
</svg>
