<?xml version="1.0" encoding="iso-8859-1"?>
<!-- Generator: Adobe Illustrator 19.0.0, SVG Export Plug-In . SVG Version: 6.00 Build 0)  -->
<svg version="1.1" id="Capa_1" xmlns="http://www.w3.org/2000/svg" xmlns:xlink="http://www.w3.org/1999/xlink" x="0px" y="0px"
	 viewBox="0 0 490 490" style="enable-background:new 0 0 490 490;" xml:space="preserve">
<path id="XMLID_28_" d="M475,460h-35v-60h5c8.284,0,15-6.716,15-15s-6.716-15-15-15h-5v-30h5c8.284,0,15-6.716,15-15
	s-6.716-15-15-15h-5v-30h5c8.284,0,15-6.716,15-15s-6.716-15-15-15h-5v-30h5c8.284,0,15-6.716,15-15s-6.716-15-15-15h-5.964
	c-4.101-24.613-20.938-45.561-44.036-54.857V115c0-8.284-6.716-15-15-15h-10V45c0-24.813-20.187-45-45-45H165
	c-24.813,0-45,20.187-45,45v55h-10c-8.284,0-15,6.716-15,15v20.143C71.902,144.439,55.064,165.387,50.964,190H45
	c-8.284,0-15,6.716-15,15s6.716,15,15,15h5v30h-5c-8.284,0-15,6.716-15,15s6.716,15,15,15h5v30h-5c-8.284,0-15,6.716-15,15
	s6.716,15,15,15h5v30h-5c-8.284,0-15,6.716-15,15s6.716,15,15,15h5v60H15c-8.284,0-15,6.716-15,15s6.716,15,15,15h460
	c8.284,0,15-6.716,15-15S483.284,460,475,460z M190,460H80V201.667c0-19.616,13.909-36.765,33.073-40.777
	c6.949-1.455,11.927-7.582,11.927-14.682V130h20v16.208c0,7.1,4.978,13.227,11.927,14.682C176.091,164.901,190,182.05,190,201.667
	V460z M270,201.667V460h-50V201.667c0-29.516-18.326-55.788-45-66.523V115c0-8.284-6.716-15-15-15h-10V45c0-8.271,6.729-15,15-15
	h160c8.271,0,15,6.729,15,15v55h-10c-8.284,0-15,6.716-15,15v20.143C288.326,145.879,270,172.15,270,201.667z M410,460H300V201.667
	c0-19.616,13.909-36.765,33.073-40.777c6.949-1.455,11.927-7.582,11.927-14.682V130h20v16.208c0,7.1,4.978,13.227,11.927,14.682
	C396.091,164.901,410,182.05,410,201.667V460z"/>
<g>
</g>
<g>
</g>
<g>
</g>
<g>
</g>
<g>
</g>
<g>
</g>
<g>
</g>
<g>
</g>
<g>
</g>
<g>
</g>
<g>
</g>
<g>
</g>
<g>
</g>
<g>
</g>
<g>
</g>
</svg>
