
<svg class="ldp-lines" width="300px"  height="150px"  xmlns="http://www.w3.org/2000/svg" xmlns:xlink="http://www.w3.org/1999/xlink" preserveAspectRatio="xMidYMid" style="background: none;"><defs>
  <pattern id="ldp-62d3898f19bf" x="0" y="0" width="300" height="150" patternUnits="userSpaceOnUse">
    <g transform="translate(0 -68.75)"> <line x1="10" y1="-140.625" x2="10" y2="-121.875" stroke="#2f0404" stroke-width="12" stroke-linecap="round"></line> <line x1="10" y1="9.375" x2="10" y2="28.125" stroke="#2f0404" stroke-width="12" stroke-linecap="round"></line> <line x1="10" y1="159.375" x2="10" y2="178.125" stroke="#2f0404" stroke-width="12" stroke-linecap="round"></line> <line x1="10" y1="-103.125" x2="10" y2="-65.625" stroke="#2f0404" stroke-width="12" stroke-linecap="round"></line> <line x1="10" y1="46.875" x2="10" y2="84.375" stroke="#2f0404" stroke-width="12" stroke-linecap="round"></line> <line x1="10" y1="196.875" x2="10" y2="234.375" stroke="#2f0404" stroke-width="12" stroke-linecap="round"></line> <line x1="10" y1="-46.875" x2="10" y2="-9.375" stroke="#ffc400" stroke-width="12" stroke-linecap="round"></line> <line x1="10" y1="103.125" x2="10" y2="140.625" stroke="#ffc400" stroke-width="12" stroke-linecap="round"></line> <line x1="10" y1="253.125" x2="10" y2="290.625" stroke="#ffc400" stroke-width="12" stroke-linecap="round"></line> <animateTransform attributeName="transform" type="translate" repeatCount="indefinite" dur="2s" keyTimes="0;1" values="0 0;0 -150"></animateTransform>
</g> <g transform="translate(0 -68.75)"> <line x1="30" y1="-159.375" x2="30" y2="-121.875" stroke="#2f0404" stroke-width="12" stroke-linecap="round"></line> <line x1="30" y1="-9.375" x2="30" y2="28.125" stroke="#2f0404" stroke-width="12" stroke-linecap="round"></line> <line x1="30" y1="140.625" x2="30" y2="178.125" stroke="#2f0404" stroke-width="12" stroke-linecap="round"></line> <line x1="30" y1="-103.125" x2="30" y2="-46.875" stroke="#2f0404" stroke-width="12" stroke-linecap="round"></line> <line x1="30" y1="46.875" x2="30" y2="103.125" stroke="#2f0404" stroke-width="12" stroke-linecap="round"></line> <line x1="30" y1="196.875" x2="30" y2="253.125" stroke="#2f0404" stroke-width="12" stroke-linecap="round"></line> <line x1="30" y1="-28.125" x2="30" y2="28.125" stroke="#2f0404" stroke-width="12" stroke-linecap="round"></line> <line x1="30" y1="121.875" x2="30" y2="178.125" stroke="#2f0404" stroke-width="12" stroke-linecap="round"></line> <line x1="30" y1="271.875" x2="30" y2="328.125" stroke="#2f0404" stroke-width="12" stroke-linecap="round"></line> <animateTransform attributeName="transform" type="translate" repeatCount="indefinite" dur="2s" keyTimes="0;1" values="0 0;0 -150"></animateTransform>
</g> <g transform="translate(0 -68.75)"> <line x1="50" y1="-140.625" x2="50" y2="-103.125" stroke="#2f0404" stroke-width="12" stroke-linecap="round"></line> <line x1="50" y1="9.375" x2="50" y2="46.875" stroke="#2f0404" stroke-width="12" stroke-linecap="round"></line> <line x1="50" y1="159.375" x2="50" y2="196.875" stroke="#2f0404" stroke-width="12" stroke-linecap="round"></line> <line x1="50" y1="-84.375" x2="50" y2="-46.875" stroke="#2f0404" stroke-width="12" stroke-linecap="round"></line> <line x1="50" y1="65.625" x2="50" y2="103.125" stroke="#2f0404" stroke-width="12" stroke-linecap="round"></line> <line x1="50" y1="215.625" x2="50" y2="253.125" stroke="#2f0404" stroke-width="12" stroke-linecap="round"></line> <line x1="50" y1="-28.125" x2="50" y2="-9.375" stroke="#2f0404" stroke-width="12" stroke-linecap="round"></line> <line x1="50" y1="121.875" x2="50" y2="140.625" stroke="#2f0404" stroke-width="12" stroke-linecap="round"></line> <line x1="50" y1="271.875" x2="50" y2="290.625" stroke="#2f0404" stroke-width="12" stroke-linecap="round"></line> <animateTransform attributeName="transform" type="translate" repeatCount="indefinite" dur="2s" keyTimes="0;1" values="0 0;0 -150"></animateTransform>
</g> <g transform="translate(0 109.375)"> <line x1="70" y1="-159.375" x2="70" y2="-140.625" stroke="#ffc400" stroke-width="12" stroke-linecap="round"></line> <line x1="70" y1="-9.375" x2="70" y2="9.375" stroke="#ffc400" stroke-width="12" stroke-linecap="round"></line> <line x1="70" y1="140.625" x2="70" y2="159.375" stroke="#ffc400" stroke-width="12" stroke-linecap="round"></line> <line x1="70" y1="-121.875" x2="70" y2="-84.375" stroke="#2f0404" stroke-width="12" stroke-linecap="round"></line> <line x1="70" y1="28.125" x2="70" y2="65.625" stroke="#2f0404" stroke-width="12" stroke-linecap="round"></line> <line x1="70" y1="178.125" x2="70" y2="215.625" stroke="#2f0404" stroke-width="12" stroke-linecap="round"></line> <line x1="70" y1="-65.625" x2="70" y2="-46.875" stroke="#ffc400" stroke-width="12" stroke-linecap="round"></line> <line x1="70" y1="84.375" x2="70" y2="103.125" stroke="#ffc400" stroke-width="12" stroke-linecap="round"></line> <line x1="70" y1="234.375" x2="70" y2="253.125" stroke="#ffc400" stroke-width="12" stroke-linecap="round"></line> <line x1="70" y1="-28.125" x2="70" y2="9.375" stroke="#ffc400" stroke-width="12" stroke-linecap="round"></line> <line x1="70" y1="121.875" x2="70" y2="159.375" stroke="#ffc400" stroke-width="12" stroke-linecap="round"></line> <line x1="70" y1="271.875" x2="70" y2="309.375" stroke="#ffc400" stroke-width="12" stroke-linecap="round"></line> <animateTransform attributeName="transform" type="translate" repeatCount="indefinite" dur="4s" keyTimes="0;1" values="0 0;0 150"></animateTransform>
</g> <g transform="translate(0 68.75)"> <line x1="90" y1="-159.375" x2="90" y2="-121.875" stroke="#ffc400" stroke-width="12" stroke-linecap="round"></line> <line x1="90" y1="-9.375" x2="90" y2="28.125" stroke="#ffc400" stroke-width="12" stroke-linecap="round"></line> <line x1="90" y1="140.625" x2="90" y2="178.125" stroke="#ffc400" stroke-width="12" stroke-linecap="round"></line> <line x1="90" y1="-103.125" x2="90" y2="-65.625" stroke="#2f0404" stroke-width="12" stroke-linecap="round"></line> <line x1="90" y1="46.875" x2="90" y2="84.375" stroke="#2f0404" stroke-width="12" stroke-linecap="round"></line> <line x1="90" y1="196.875" x2="90" y2="234.375" stroke="#2f0404" stroke-width="12" stroke-linecap="round"></line> <line x1="90" y1="-46.875" x2="90" y2="-28.125" stroke="#ffc400" stroke-width="12" stroke-linecap="round"></line> <line x1="90" y1="103.125" x2="90" y2="121.875" stroke="#ffc400" stroke-width="12" stroke-linecap="round"></line> <line x1="90" y1="253.125" x2="90" y2="271.875" stroke="#ffc400" stroke-width="12" stroke-linecap="round"></line> <line x1="90" y1="-9.375" x2="90" y2="28.125" stroke="#ffc400" stroke-width="12" stroke-linecap="round"></line> <line x1="90" y1="140.625" x2="90" y2="178.125" stroke="#ffc400" stroke-width="12" stroke-linecap="round"></line> <line x1="90" y1="290.625" x2="90" y2="328.125" stroke="#ffc400" stroke-width="12" stroke-linecap="round"></line> <animateTransform attributeName="transform" type="translate" repeatCount="indefinite" dur="2s" keyTimes="0;1" values="0 0;0 150"></animateTransform>
</g> <g transform="translate(0 -28.125)"> <line x1="110" y1="-140.625" x2="110" y2="-121.875" stroke="#ffc400" stroke-width="12" stroke-linecap="round"></line> <line x1="110" y1="9.375" x2="110" y2="28.125" stroke="#ffc400" stroke-width="12" stroke-linecap="round"></line> <line x1="110" y1="159.375" x2="110" y2="178.125" stroke="#ffc400" stroke-width="12" stroke-linecap="round"></line> <line x1="110" y1="-103.125" x2="110" y2="-46.875" stroke="#2f0404" stroke-width="12" stroke-linecap="round"></line> <line x1="110" y1="46.875" x2="110" y2="103.125" stroke="#2f0404" stroke-width="12" stroke-linecap="round"></line> <line x1="110" y1="196.875" x2="110" y2="253.125" stroke="#2f0404" stroke-width="12" stroke-linecap="round"></line> <line x1="110" y1="-28.125" x2="110" y2="-9.375" stroke="#2f0404" stroke-width="12" stroke-linecap="round"></line> <line x1="110" y1="121.875" x2="110" y2="140.625" stroke="#2f0404" stroke-width="12" stroke-linecap="round"></line> <line x1="110" y1="271.875" x2="110" y2="290.625" stroke="#2f0404" stroke-width="12" stroke-linecap="round"></line> <animateTransform attributeName="transform" type="translate" repeatCount="indefinite" dur="1.3333333333333333s" keyTimes="0;1" values="0 0;0 -150"></animateTransform>
</g> <g transform="translate(0 -109.375)"> <line x1="130" y1="-140.625" x2="130" y2="-103.125" stroke="#2f0404" stroke-width="12" stroke-linecap="round"></line> <line x1="130" y1="9.375" x2="130" y2="46.875" stroke="#2f0404" stroke-width="12" stroke-linecap="round"></line> <line x1="130" y1="159.375" x2="130" y2="196.875" stroke="#2f0404" stroke-width="12" stroke-linecap="round"></line> <line x1="130" y1="-84.375" x2="130" y2="-65.625" stroke="#2f0404" stroke-width="12" stroke-linecap="round"></line> <line x1="130" y1="65.625" x2="130" y2="84.375" stroke="#2f0404" stroke-width="12" stroke-linecap="round"></line> <line x1="130" y1="215.625" x2="130" y2="234.375" stroke="#2f0404" stroke-width="12" stroke-linecap="round"></line> <line x1="130" y1="-46.875" x2="130" y2="-9.375" stroke="#2f0404" stroke-width="12" stroke-linecap="round"></line> <line x1="130" y1="103.125" x2="130" y2="140.625" stroke="#2f0404" stroke-width="12" stroke-linecap="round"></line> <line x1="130" y1="253.125" x2="130" y2="290.625" stroke="#2f0404" stroke-width="12" stroke-linecap="round"></line> <animateTransform attributeName="transform" type="translate" repeatCount="indefinite" dur="4s" keyTimes="0;1" values="0 0;0 -150"></animateTransform>
</g> <g transform="translate(0 -28.125)"> <line x1="150" y1="-140.625" x2="150" y2="-103.125" stroke="#2f0404" stroke-width="12" stroke-linecap="round"></line> <line x1="150" y1="9.375" x2="150" y2="46.875" stroke="#2f0404" stroke-width="12" stroke-linecap="round"></line> <line x1="150" y1="159.375" x2="150" y2="196.875" stroke="#2f0404" stroke-width="12" stroke-linecap="round"></line> <line x1="150" y1="-84.375" x2="150" y2="-65.625" stroke="#ffc400" stroke-width="12" stroke-linecap="round"></line> <line x1="150" y1="65.625" x2="150" y2="84.375" stroke="#ffc400" stroke-width="12" stroke-linecap="round"></line> <line x1="150" y1="215.625" x2="150" y2="234.375" stroke="#ffc400" stroke-width="12" stroke-linecap="round"></line> <line x1="150" y1="-46.875" x2="150" y2="-9.375" stroke="#ffc400" stroke-width="12" stroke-linecap="round"></line> <line x1="150" y1="103.125" x2="150" y2="140.625" stroke="#ffc400" stroke-width="12" stroke-linecap="round"></line> <line x1="150" y1="253.125" x2="150" y2="290.625" stroke="#ffc400" stroke-width="12" stroke-linecap="round"></line> <animateTransform attributeName="transform" type="translate" repeatCount="indefinite" dur="1.3333333333333333s" keyTimes="0;1" values="0 0;0 -150"></animateTransform>
</g> <g transform="translate(0 109.375)"> <line x1="170" y1="-159.375" x2="170" y2="-121.875" stroke="#2f0404" stroke-width="12" stroke-linecap="round"></line> <line x1="170" y1="-9.375" x2="170" y2="28.125" stroke="#2f0404" stroke-width="12" stroke-linecap="round"></line> <line x1="170" y1="140.625" x2="170" y2="178.125" stroke="#2f0404" stroke-width="12" stroke-linecap="round"></line> <line x1="170" y1="-103.125" x2="170" y2="-65.625" stroke="#ffc400" stroke-width="12" stroke-linecap="round"></line> <line x1="170" y1="46.875" x2="170" y2="84.375" stroke="#ffc400" stroke-width="12" stroke-linecap="round"></line> <line x1="170" y1="196.875" x2="170" y2="234.375" stroke="#ffc400" stroke-width="12" stroke-linecap="round"></line> <line x1="170" y1="-46.875" x2="170" y2="-28.125" stroke="#2f0404" stroke-width="12" stroke-linecap="round"></line> <line x1="170" y1="103.125" x2="170" y2="121.875" stroke="#2f0404" stroke-width="12" stroke-linecap="round"></line> <line x1="170" y1="253.125" x2="170" y2="271.875" stroke="#2f0404" stroke-width="12" stroke-linecap="round"></line> <line x1="170" y1="-9.375" x2="170" y2="28.125" stroke="#2f0404" stroke-width="12" stroke-linecap="round"></line> <line x1="170" y1="140.625" x2="170" y2="178.125" stroke="#2f0404" stroke-width="12" stroke-linecap="round"></line> <line x1="170" y1="290.625" x2="170" y2="328.125" stroke="#2f0404" stroke-width="12" stroke-linecap="round"></line> <animateTransform attributeName="transform" type="translate" repeatCount="indefinite" dur="4s" keyTimes="0;1" values="0 0;0 150"></animateTransform>
</g> <g transform="translate(0 -109.375)"> <line x1="190" y1="-159.375" x2="190" y2="-121.875" stroke="#2f0404" stroke-width="12" stroke-linecap="round"></line> <line x1="190" y1="-9.375" x2="190" y2="28.125" stroke="#2f0404" stroke-width="12" stroke-linecap="round"></line> <line x1="190" y1="140.625" x2="190" y2="178.125" stroke="#2f0404" stroke-width="12" stroke-linecap="round"></line> <line x1="190" y1="-103.125" x2="190" y2="-65.625" stroke="#2f0404" stroke-width="12" stroke-linecap="round"></line> <line x1="190" y1="46.875" x2="190" y2="84.375" stroke="#2f0404" stroke-width="12" stroke-linecap="round"></line> <line x1="190" y1="196.875" x2="190" y2="234.375" stroke="#2f0404" stroke-width="12" stroke-linecap="round"></line> <line x1="190" y1="-46.875" x2="190" y2="28.125" stroke="#2f0404" stroke-width="12" stroke-linecap="round"></line> <line x1="190" y1="103.125" x2="190" y2="178.125" stroke="#2f0404" stroke-width="12" stroke-linecap="round"></line> <line x1="190" y1="253.125" x2="190" y2="328.125" stroke="#2f0404" stroke-width="12" stroke-linecap="round"></line> <animateTransform attributeName="transform" type="translate" repeatCount="indefinite" dur="4s" keyTimes="0;1" values="0 0;0 -150"></animateTransform>
</g> <g transform="translate(0 -28.125)"> <line x1="210" y1="-140.625" x2="210" y2="-121.875" stroke="#ffc400" stroke-width="12" stroke-linecap="round"></line> <line x1="210" y1="9.375" x2="210" y2="28.125" stroke="#ffc400" stroke-width="12" stroke-linecap="round"></line> <line x1="210" y1="159.375" x2="210" y2="178.125" stroke="#ffc400" stroke-width="12" stroke-linecap="round"></line> <line x1="210" y1="-103.125" x2="210" y2="-65.625" stroke="#2f0404" stroke-width="12" stroke-linecap="round"></line> <line x1="210" y1="46.875" x2="210" y2="84.375" stroke="#2f0404" stroke-width="12" stroke-linecap="round"></line> <line x1="210" y1="196.875" x2="210" y2="234.375" stroke="#2f0404" stroke-width="12" stroke-linecap="round"></line> <line x1="210" y1="-46.875" x2="210" y2="-9.375" stroke="#ffc400" stroke-width="12" stroke-linecap="round"></line> <line x1="210" y1="103.125" x2="210" y2="140.625" stroke="#ffc400" stroke-width="12" stroke-linecap="round"></line> <line x1="210" y1="253.125" x2="210" y2="290.625" stroke="#ffc400" stroke-width="12" stroke-linecap="round"></line> <animateTransform attributeName="transform" type="translate" repeatCount="indefinite" dur="1.3333333333333333s" keyTimes="0;1" values="0 0;0 -150"></animateTransform>
</g> <g transform="translate(0 -68.75)"> <line x1="230" y1="-159.375" x2="230" y2="-121.875" stroke="#ffc400" stroke-width="12" stroke-linecap="round"></line> <line x1="230" y1="-9.375" x2="230" y2="28.125" stroke="#ffc400" stroke-width="12" stroke-linecap="round"></line> <line x1="230" y1="140.625" x2="230" y2="178.125" stroke="#ffc400" stroke-width="12" stroke-linecap="round"></line> <line x1="230" y1="-103.125" x2="230" y2="-65.625" stroke="#ffc400" stroke-width="12" stroke-linecap="round"></line> <line x1="230" y1="46.875" x2="230" y2="84.375" stroke="#ffc400" stroke-width="12" stroke-linecap="round"></line> <line x1="230" y1="196.875" x2="230" y2="234.375" stroke="#ffc400" stroke-width="12" stroke-linecap="round"></line> <line x1="230" y1="-46.875" x2="230" y2="28.125" stroke="#ffc400" stroke-width="12" stroke-linecap="round"></line> <line x1="230" y1="103.125" x2="230" y2="178.125" stroke="#ffc400" stroke-width="12" stroke-linecap="round"></line> <line x1="230" y1="253.125" x2="230" y2="328.125" stroke="#ffc400" stroke-width="12" stroke-linecap="round"></line> <animateTransform attributeName="transform" type="translate" repeatCount="indefinite" dur="2s" keyTimes="0;1" values="0 0;0 -150"></animateTransform>
</g> <g transform="translate(0 -109.375)"> <line x1="250" y1="-159.375" x2="250" y2="-121.875" stroke="#ffc400" stroke-width="12" stroke-linecap="round"></line> <line x1="250" y1="-9.375" x2="250" y2="28.125" stroke="#ffc400" stroke-width="12" stroke-linecap="round"></line> <line x1="250" y1="140.625" x2="250" y2="178.125" stroke="#ffc400" stroke-width="12" stroke-linecap="round"></line> <line x1="250" y1="-103.125" x2="250" y2="-84.375" stroke="#ffc400" stroke-width="12" stroke-linecap="round"></line> <line x1="250" y1="46.875" x2="250" y2="65.625" stroke="#ffc400" stroke-width="12" stroke-linecap="round"></line> <line x1="250" y1="196.875" x2="250" y2="215.625" stroke="#ffc400" stroke-width="12" stroke-linecap="round"></line> <line x1="250" y1="-65.625" x2="250" y2="28.125" stroke="#ffc400" stroke-width="12" stroke-linecap="round"></line> <line x1="250" y1="84.375" x2="250" y2="178.125" stroke="#ffc400" stroke-width="12" stroke-linecap="round"></line> <line x1="250" y1="234.375" x2="250" y2="328.125" stroke="#ffc400" stroke-width="12" stroke-linecap="round"></line> <animateTransform attributeName="transform" type="translate" repeatCount="indefinite" dur="4s" keyTimes="0;1" values="0 0;0 -150"></animateTransform>
</g> <g transform="translate(0 -109.375)"> <line x1="270" y1="-140.625" x2="270" y2="-103.125" stroke="#ffc400" stroke-width="12" stroke-linecap="round"></line> <line x1="270" y1="9.375" x2="270" y2="46.875" stroke="#ffc400" stroke-width="12" stroke-linecap="round"></line> <line x1="270" y1="159.375" x2="270" y2="196.875" stroke="#ffc400" stroke-width="12" stroke-linecap="round"></line> <line x1="270" y1="-84.375" x2="270" y2="-46.875" stroke="#ffc400" stroke-width="12" stroke-linecap="round"></line> <line x1="270" y1="65.625" x2="270" y2="103.125" stroke="#ffc400" stroke-width="12" stroke-linecap="round"></line> <line x1="270" y1="215.625" x2="270" y2="253.125" stroke="#ffc400" stroke-width="12" stroke-linecap="round"></line> <line x1="270" y1="-28.125" x2="270" y2="-9.375" stroke="#ffc400" stroke-width="12" stroke-linecap="round"></line> <line x1="270" y1="121.875" x2="270" y2="140.625" stroke="#ffc400" stroke-width="12" stroke-linecap="round"></line> <line x1="270" y1="271.875" x2="270" y2="290.625" stroke="#ffc400" stroke-width="12" stroke-linecap="round"></line> <animateTransform attributeName="transform" type="translate" repeatCount="indefinite" dur="4s" keyTimes="0;1" values="0 0;0 -150"></animateTransform>
</g> <g transform="translate(0 109.375)"> <line x1="290" y1="-159.375" x2="290" y2="-121.875" stroke="#2f0404" stroke-width="12" stroke-linecap="round"></line> <line x1="290" y1="-9.375" x2="290" y2="28.125" stroke="#2f0404" stroke-width="12" stroke-linecap="round"></line> <line x1="290" y1="140.625" x2="290" y2="178.125" stroke="#2f0404" stroke-width="12" stroke-linecap="round"></line> <line x1="290" y1="-103.125" x2="290" y2="-84.375" stroke="#ffc400" stroke-width="12" stroke-linecap="round"></line> <line x1="290" y1="46.875" x2="290" y2="65.625" stroke="#ffc400" stroke-width="12" stroke-linecap="round"></line> <line x1="290" y1="196.875" x2="290" y2="215.625" stroke="#ffc400" stroke-width="12" stroke-linecap="round"></line> <line x1="290" y1="-65.625" x2="290" y2="-46.875" stroke="#ffc400" stroke-width="12" stroke-linecap="round"></line> <line x1="290" y1="84.375" x2="290" y2="103.125" stroke="#ffc400" stroke-width="12" stroke-linecap="round"></line> <line x1="290" y1="234.375" x2="290" y2="253.125" stroke="#ffc400" stroke-width="12" stroke-linecap="round"></line> <line x1="290" y1="-28.125" x2="290" y2="28.125" stroke="#2f0404" stroke-width="12" stroke-linecap="round"></line> <line x1="290" y1="121.875" x2="290" y2="178.125" stroke="#2f0404" stroke-width="12" stroke-linecap="round"></line> <line x1="290" y1="271.875" x2="290" y2="328.125" stroke="#2f0404" stroke-width="12" stroke-linecap="round"></line> <animateTransform attributeName="transform" type="translate" repeatCount="indefinite" dur="4s" keyTimes="0;1" values="0 0;0 150"></animateTransform>
</g>
  </pattern>
</defs>
<rect x="0" y="0" width="100%" height="100%" fill="url(#ldp-62d3898f19bf)"></rect></svg>