<?xml version="1.0" encoding="iso-8859-1"?>
<!-- Generator: Adobe Illustrator 16.0.0, SVG Export Plug-In . SVG Version: 6.00 Build 0)  -->
<!DOCTYPE svg PUBLIC "-//W3C//DTD SVG 1.1//EN" "http://www.w3.org/Graphics/SVG/1.1/DTD/svg11.dtd">
<svg version="1.1" id="Capa_1" xmlns="http://www.w3.org/2000/svg" xmlns:xlink="http://www.w3.org/1999/xlink" x="0px" y="0px"
	 width="457.259px" height="457.26px" viewBox="0 0 457.259 457.26" style="enable-background:new 0 0 457.259 457.26;"
	 xml:space="preserve">
<g>
	<path d="M457.259,417.765v24.941H0V14.554h24.941v403.218h432.318V417.765z M164.069,267.576l33.633-77.953l42.32,63.479
		l54.382-46.826l37.333,38.886l75.645-114.701V51.965L331,167.318l-37.412-38.971l-56.117,48.323l-37.412-56.117l-34.294,79.5
		l-63.912-67.029l-67.029,29.617v77.655l69.724-32.254L164.069,267.576z M407.376,152.759l-76.382,115.354l-37.412-38.971
		l-56.117,48.323l-37.412-56.117l-34.294,79.5l-63.912-73.265L34.818,257.2v145.5h372.559V152.759z"/>
</g>
<g>
</g>
<g>
</g>
<g>
</g>
<g>
</g>
<g>
</g>
<g>
</g>
<g>
</g>
<g>
</g>
<g>
</g>
<g>
</g>
<g>
</g>
<g>
</g>
<g>
</g>
<g>
</g>
<g>
</g>
</svg>
