<?xml version="1.0" encoding="iso-8859-1"?>
<!-- Generator: Adobe Illustrator 16.0.0, SVG Export Plug-In . SVG Version: 6.00 Build 0)  -->
<!DOCTYPE svg PUBLIC "-//W3C//DTD SVG 1.1//EN" "http://www.w3.org/Graphics/SVG/1.1/DTD/svg11.dtd">
<svg version="1.1" id="Capa_1" xmlns="http://www.w3.org/2000/svg" xmlns:xlink="http://www.w3.org/1999/xlink" x="0px" y="0px"
	 width="599.208px" height="599.209px" viewBox="0 0 599.208 599.209" style="enable-background:new 0 0 599.208 599.209;"
	 xml:space="preserve">
<g>
	<g>
		<path d="M75.573,468.082c23.537,25.105,51.136,45.398,82.03,60.311c31.854,15.377,65.952,24.404,101.348,26.832
			c1.326,0.092,2.668,0.139,3.991,0.139c5.935,0,11.664-0.898,17.061-2.561c5.636,26.203,28.975,45.906,56.834,45.906
			c1.332,0,2.682-0.047,4.012-0.139c66.746-4.594,129.623-33.244,177.051-80.672s76.078-110.305,80.672-177.051
			c1.104-16.021-4.551-31.943-15.508-43.681c-8.139-8.717-18.781-14.67-30.295-17.156c2.084-6.758,2.949-13.901,2.457-21.064
			c-2.428-35.391-11.455-69.489-26.834-101.343c-14.914-30.893-35.207-58.492-60.312-82.029C416.439,27.162,349.001,0.5,278.193,0.5
			l0,0h-0.002c-37.516,0-73.909,7.334-108.169,21.798c-33.093,13.972-62.792,33.975-88.27,59.454
			c-25.478,25.479-45.481,55.177-59.453,88.27C7.835,204.282,0.501,240.676,0.501,278.193
			C0.502,349.008,27.163,416.443,75.573,468.082z M555.833,337.908c-8.031,116.662-101.262,209.895-217.926,217.924
			c-0.359,0.025-0.715,0.037-1.07,0.037c-8.375,0-15.295-6.797-15.295-15.305V336.842c0-8.449,6.85-15.301,15.301-15.301h203.723
			C549.435,321.541,556.441,329.059,555.833,337.908z M278.193,43.341C278.201,43.341,278.186,43.341,278.193,43.341
			c124.211,0,225.918,96.452,234.293,218.54c0.607,8.827-6.422,16.312-15.27,16.312H314.431c-20.014,0-36.238,16.225-36.238,36.239
			v182.785c0,8.49-6.893,15.307-15.251,15.307c-0.351,0-0.705-0.014-1.06-0.037c-122.095-8.377-218.54-110.07-218.541-234.292
			C43.341,148.268,148.267,43.341,278.193,43.341z"/>
		<path d="M336.837,599.209c-27.265,0-51.235-19.216-57.207-45.771c-6.673,1.988-13.657,2.774-20.714,2.286
			c-35.46-2.433-69.62-11.477-101.531-26.881c-30.948-14.938-58.596-35.266-82.177-60.419
			c-48.498-51.731-75.207-119.29-75.207-190.23c0-37.585,7.347-74.044,21.837-108.366c13.997-33.152,34.036-62.904,59.56-88.429
			c25.524-25.525,55.275-45.564,88.429-59.561C204.151,7.347,240.609,0,278.191,0c70.938,0,138.497,26.71,190.23,75.209
			c25.152,23.581,45.48,51.229,60.421,82.177c15.405,31.91,24.45,66.068,26.883,101.526c0.48,6.989-0.301,13.959-2.32,20.726
			c11.584,2.611,21.957,8.546,30.024,17.187c11.054,11.841,16.754,27.898,15.642,44.057c-4.603,66.865-33.304,129.856-80.817,177.37
			s-110.505,76.215-177.37,80.817C339.54,599.162,338.177,599.209,336.837,599.209z M280.377,552.164l0.115,0.533
			c5.672,26.371,29.369,45.512,56.346,45.512c1.317,0,2.655-0.046,3.978-0.138c66.624-4.585,129.389-33.184,176.731-80.526
			s75.941-110.107,80.526-176.731c1.094-15.883-4.51-31.667-15.374-43.306c-8.051-8.623-18.437-14.505-30.035-17.009l-0.533-0.115
			l0.161-0.521c2.101-6.812,2.92-13.837,2.436-20.882c-2.424-35.331-11.436-69.366-26.785-101.16
			c-14.887-30.836-35.143-58.386-60.204-81.882C416.19,27.614,348.875,1,278.193,1c-37.449,0-73.777,7.321-107.977,21.759
			c-33.034,13.947-62.679,33.914-88.111,59.347c-25.433,25.433-45.399,55.078-59.346,88.11
			C8.322,204.414,1.001,240.743,1.001,278.193c0,70.686,26.613,138.001,74.937,189.547c23.497,25.062,51.046,45.317,81.882,60.202
			c31.796,15.349,65.833,24.36,101.165,26.783c7.117,0.496,14.158-0.334,20.871-2.4L280.377,552.164z M336.837,556.369
			c-8.709,0-15.795-7.09-15.795-15.805V336.842c0-8.713,7.088-15.801,15.801-15.801h203.723c4.425,0,8.525,1.781,11.546,5.017
			c3.025,3.24,4.524,7.461,4.221,11.885c-3.893,56.544-28.174,109.821-68.371,150.019s-93.476,64.479-150.02,68.37
			C337.572,556.357,337.205,556.369,336.837,556.369z M336.843,322.041c-8.161,0-14.801,6.64-14.801,14.801v203.723
			c0,8.508,7.234,15.38,15.83,14.769c56.304-3.875,109.355-28.053,149.382-68.079s64.204-93.077,68.08-149.38
			c0.285-4.145-1.119-8.099-3.953-11.134c-2.829-3.03-6.671-4.699-10.815-4.699H336.843z M262.942,513.023
			c-0.361,0-0.727-0.014-1.093-0.038c-59.369-4.073-114.553-30.305-155.387-73.861c-41.026-43.761-63.62-100.914-63.62-160.93
			c0-62.972,24.451-122.103,68.85-166.502c44.398-44.399,103.53-68.851,166.501-68.851h0.002
			c60.009,0,117.161,22.595,160.924,63.622c43.561,40.837,69.793,96.02,73.865,155.384c0.303,4.396-1.19,8.593-4.203,11.821
			c-2.981,3.194-7.197,5.025-11.565,5.025H314.431c-19.706,0-35.738,16.032-35.738,35.739v182.785
			C278.693,505.933,271.627,513.023,262.942,513.023z M278.193,43.841c-62.705,0-121.584,24.348-165.794,68.558
			c-44.21,44.21-68.557,103.09-68.557,165.795c0,59.761,22.498,116.671,63.35,160.247c40.661,43.371,95.61,69.491,154.725,73.547
			c0.343,0.022,0.686,0.036,1.026,0.036c8.134,0,14.751-6.643,14.751-14.807V314.432c0-20.258,16.48-36.739,36.738-36.739h182.785
			c4.152,0,8-1.672,10.835-4.708c2.821-3.022,4.219-6.954,3.936-11.07c-4.055-59.111-30.176-114.059-73.551-154.723
			C394.858,66.339,337.95,43.841,278.193,43.841z"/>
	</g>
</g>
<g>
</g>
<g>
</g>
<g>
</g>
<g>
</g>
<g>
</g>
<g>
</g>
<g>
</g>
<g>
</g>
<g>
</g>
<g>
</g>
<g>
</g>
<g>
</g>
<g>
</g>
<g>
</g>
<g>
</g>
</svg>
