<?xml version='1.0' encoding='iso-8859-1'?>
<svg version="1.1" xmlns="http://www.w3.org/2000/svg" viewBox="0 0 441.593 441.593" xmlns:xlink="http://www.w3.org/1999/xlink" enable-background="new 0 0 441.593 441.593">
  <path d="m329.701,153.811c-25.903,0-49.851-13.408-70.888-25.266-1.539-0.712-3.021-1.547-4.417-2.491-39.422-22.196-65.687-33.271-96.954-1.383-4.059,4.141-10.708,4.206-14.849,0.146-4.14-4.06-4.206-10.708-0.146-14.849 44.915-45.805 88.026-21.505 122.666-1.979 0.303,0.171 0.597,0.356 0.881,0.556 0.56,0.393 1.167,0.735 1.807,1.017 0.314,0.139 0.621,0.292 0.92,0.461 42.864,24.163 71.479,36.216 107.35-0.056 4.078-4.123 10.726-4.16 14.849-0.083 4.123,4.078 4.16,10.726 0.083,14.849-21.261,21.5-41.836,29.078-61.302,29.078zm-29.853-91.829c5.799,0 10.5-4.701 10.5-10.5 0-12.995 10.572-23.567 23.566-23.567 12.379,0 22.706,9.662 23.512,21.997 0.351,5.37 4.703,9.605 10.08,9.809 29.769,1.127 53.087,25.361 53.087,55.171 0,29.811-23.319,54.045-53.087,55.171-5.377,0.204-9.729,4.438-10.081,9.808-0.807,12.335-11.134,21.998-23.512,21.998-12.994,0-23.566-10.571-23.566-23.565 0-5.799-4.701-10.5-10.5-10.5s-10.5,4.701-10.5,10.5c0,24.573 19.992,44.565 44.566,44.565 20.298,0 37.682-13.75 42.938-32.623 16.473-2.482 31.636-10.276 43.372-22.436 13.78-14.277 21.369-33.071 21.369-52.918s-7.589-38.641-21.369-52.918c-11.736-12.16-26.898-19.954-43.371-22.436-5.255-18.874-22.639-32.623-42.939-32.623-24.574,0-44.566,19.993-44.566,44.567 0.001,5.799 4.702,10.5 10.501,10.5zm-202.239,64.907c1.161,0.412 2.345,0.607 3.511,0.607 4.32,0 8.369-2.688 9.896-6.992 15.871-44.739 57.161-59.71 87.639-58.933 23.612,0.599 44.951,10.305 78.462,29.208l.177,.102c11.618,6.703 24.786,14.3 38.607,17.325 17.597,3.852 32.798-0.545 45.18-13.066 4.077-4.124 4.04-10.771-0.083-14.849-4.123-4.077-10.771-4.039-14.849,0.083-15.224,15.395-32.99,6.954-58.361-7.683l-.226-.131c-0.029-0.017-0.059-0.034-0.088-0.05-31.228-17.615-57.557-31.152-88.286-31.932-37.523-0.963-88.333,17.566-107.964,72.904-1.939,5.466 0.92,11.468 6.385,13.407zm246.784,213.842c5.799,0 10.5-4.701 10.5-10.5v-20.539c0-5.799-4.701-10.5-10.5-10.5s-10.5,4.701-10.5,10.5v20.539c0,5.799 4.701,10.5 10.5,10.5zm97.2,83.444c0,5.799-4.701,10.5-10.5,10.5h-179.835c-0.105,0.002-0.21,0.002-0.314,0h-85.887c-5.799,0-10.5-4.701-10.5-10.5v-34.299c0-5.799 4.701-10.5 10.5-10.5s10.5,4.701 10.5,10.5v23.799h63.602l-31.224-239.783h-130.962l-31.223,239.784 63.603,.001v-23.802c0-5.799 4.701-10.5 10.5-10.5s10.5,4.701 10.5,10.5v34.302c0,2.785-1.106,5.456-3.075,7.425-1.969,1.969-4.64,3.075-7.425,3.075l-85.928-.002c-0.078,0.001-0.156,0.001-0.235,0h-23.19c-5.799,0-10.5-4.701-10.5-10.5s4.702-10.5 10.5-10.5h14.073l32.766-251.639c0.681-5.23 5.137-9.144 10.412-9.144h149.404c5.275,0 9.731,3.914 10.412,9.144l13.606,104.49h166.623c5.799,0 10.5,4.701 10.5,10.5v136.649h12.795c5.801,5.68434e-14 10.502,4.701 10.502,10.5zm-44.296-136.649h-153.388l16.427,126.149h136.962v-126.149zm-101.252,53.205c5.799,0 10.5-4.701 10.5-10.5v-20.539c0-5.799-4.701-10.5-10.5-10.5s-10.5,4.701-10.5,10.5v20.539c0,5.799 4.701,10.5 10.5,10.5z"/>
</svg>
