<?xml version="1.0" encoding="iso-8859-1"?>
<!-- Generator: Adobe Illustrator 18.1.1, SVG Export Plug-In . SVG Version: 6.00 Build 0)  -->
<svg version="1.1" id="Capa_1" xmlns="http://www.w3.org/2000/svg" xmlns:xlink="http://www.w3.org/1999/xlink" x="0px" y="0px"
	 viewBox="0 0 55.257 55.257" style="enable-background:new 0 0 55.257 55.257;" xml:space="preserve">
<g>
	<path d="M8.446,37.434c0,2.093-1.696,3.788-3.788,3.788S0.87,39.528,0.87,37.434s1.696-3.788,3.788-3.788
		S8.446,35.341,8.446,37.434z M40.649,33.646c-2.092,0-3.789,1.695-3.789,3.788s1.697,3.788,3.789,3.788s3.787-1.695,3.787-3.788
		S42.741,33.646,40.649,33.646z M48.225,33.646c-2.092,0-3.787,1.695-3.787,3.788s1.695,3.788,3.787,3.788s3.789-1.695,3.789-3.788
		S50.317,33.646,48.225,33.646z M17.209,24.64c0-2.785,1.463-5.044,3.265-5.044h31.518c1.801,0,3.265,2.259,3.265,5.044
		c0,2.787-1.464,5.047-3.265,5.047h-31.52C18.669,29.687,17.209,27.427,17.209,24.64z M32.836,25.11
		c0,1.469,1.188,2.658,2.654,2.658c1.465,0,2.656-1.188,2.656-2.658c0-1.467-2.656-4.562-2.656-4.562S32.836,23.641,32.836,25.11z
		 M55.254,31.754l-1.58,3.154h-2.451c-0.688-0.953-1.81-1.578-3.074-1.578s-2.385,0.625-3.074,1.578h-1.432
		c-0.688-0.953-1.808-1.578-3.072-1.578c-1.268,0-2.387,0.625-3.074,1.578H14.524h-2.21H7.652c-0.688-0.953-1.806-1.578-3.073-1.578
		s-2.384,0.625-3.069,1.578L0,35.58v-9.035l3.79-9.313h9.632v-2.488v-0.71h3.786v0.708h-1.261v17.012H55.254L55.254,31.754z
		 M12.474,19.127H5.687l-2.684,6.557l1.905-1.683c-0.28-0.539-0.339-1.033-0.099-1.217c0.311-0.239,0.999,0.135,1.536,0.834
		s0.72,1.463,0.408,1.7c-0.279,0.215-0.863-0.067-1.367-0.636L3.814,26.07h8.656L12.474,19.127L12.474,19.127z"/>
</g>
<g>
</g>
<g>
</g>
<g>
</g>
<g>
</g>
<g>
</g>
<g>
</g>
<g>
</g>
<g>
</g>
<g>
</g>
<g>
</g>
<g>
</g>
<g>
</g>
<g>
</g>
<g>
</g>
<g>
</g>
</svg>
